<svg width="24" height="24" viewBox="0 0 24 24" fill="none" xmlns="http://www.w3.org/2000/svg">
<path d="M21.4274 2.5783C20.9274 2.0673 20.1874 1.8783 19.4974 2.0783L3.40742 6.7273C2.67942 6.9293 2.16342 7.5063 2.02442 8.2383C1.88242 8.9843 2.37842 9.9323 3.02642 10.3283L8.05742 13.4003C8.57342 13.7163 9.23942 13.6373 9.66642 13.2093L15.4274 7.4483C15.7174 7.1473 16.1974 7.1473 16.4874 7.4483C16.7774 7.7373 16.7774 8.2083 16.4874 8.5083L10.7164 14.2693C10.2884 14.6973 10.2084 15.3613 10.5234 15.8783L13.5974 20.9283C13.9574 21.5273 14.5774 21.8683 15.2574 21.8683C15.3374 21.8683 15.4274 21.8683 15.5074 21.8573C16.2874 21.7583 16.9074 21.2273 17.1374 20.4773L21.9074 4.5083C22.1174 3.8283 21.9274 3.0883 21.4274 2.5783Z" fill="white"/>
<path opacity="0.4" d="M9.45142 19.1418C9.74342 19.4348 9.74342 19.9098 9.45142 20.2028L8.08542 21.5678C7.93942 21.7148 7.74742 21.7878 7.55542 21.7878C7.36342 21.7878 7.17142 21.7148 7.02542 21.5678C6.73242 21.2748 6.73242 20.8008 7.02542 20.5078L8.39042 19.1418C8.68342 18.8498 9.15842 18.8498 9.45142 19.1418ZM8.66772 15.3538C8.95972 15.6468 8.95972 16.1218 8.66772 16.4148L7.30172 17.7798C7.15572 17.9268 6.96372 17.9998 6.77172 17.9998C6.57972 17.9998 6.38772 17.9268 6.24172 17.7798C5.94872 17.4868 5.94872 17.0128 6.24172 16.7198L7.60672 15.3538C7.89972 15.0618 8.37472 15.0618 8.66772 15.3538ZM4.90652 14.1614C5.19852 14.4544 5.19852 14.9294 4.90652 15.2224L3.54052 16.5874C3.39452 16.7344 3.20252 16.8074 3.01052 16.8074C2.81852 16.8074 2.62652 16.7344 2.48052 16.5874C2.18752 16.2944 2.18752 15.8204 2.48052 15.5274L3.84552 14.1614C4.13852 13.8694 4.61352 13.8694 4.90652 14.1614Z" fill="white"/>
</svg>
