<svg width="1440" height="259" viewBox="0 0 1440 259" fill="none" xmlns="http://www.w3.org/2000/svg">
<g clip-path="url(#clip0_28_848)">
<mask id="path-1-inside-1_28_848" fill="white">
<path d="M-1 0H1440V259H-1V0Z"/>
</mask>
<path d="M-1 0H1440V259H-1V0Z" fill="#D0A88A"/>
<g opacity="0.35" clip-path="url(#clip1_28_848)">
<path fill-rule="evenodd" clip-rule="evenodd" d="M1404.05 234.44C1407.31 229.027 1409.96 223.075 1412.56 217.765C1413.95 219.903 1417.92 243.307 1423.4 280H1411.54C1407.95 253.064 1405.27 236.361 1404.05 234.44Z" fill="white" fill-opacity="0.26"/>
<path fill-rule="evenodd" clip-rule="evenodd" d="M1414.21 218.914C1416.84 213.889 1419.28 209.104 1421.75 205.469C1423.1 207.418 1427.9 236.103 1434.5 280H1423.78C1418.99 243.968 1415.5 220.976 1414.21 218.914Z" fill="white" fill-opacity="0.26"/>
<path fill-rule="evenodd" clip-rule="evenodd" d="M1422.94 204.01C1425.15 200.85 1427.27 197.848 1429.36 194.995C1431.83 209.316 1434.34 223.447 1436.74 237.491C1439.19 251.753 1441.6 265.943 1443.95 279.97L1443.79 279.998H1434.15C1430.56 255.04 1426.75 229.624 1422.94 204.008V204.01Z" fill="white" fill-opacity="0.26"/>
<path fill-rule="evenodd" clip-rule="evenodd" d="M1430.23 193.509C1432.08 190.554 1433.84 187.925 1435.52 185.448C1438.71 201.169 1441.89 216.719 1444.95 231.969C1448.04 247.375 1451.08 262.604 1454 277.536V278.148C1451.22 278.673 1448.37 279.194 1445.44 279.669C1443.05 265.531 1440.52 251.171 1437.97 236.687C1435.46 222.447 1432.79 208.069 1430.23 193.509Z" fill="white" fill-opacity="0.26"/>
<path fill-rule="evenodd" clip-rule="evenodd" d="M1436.36 184.351C1437.94 181.983 1439.19 179.594 1440.29 177.057C1444.17 193.961 1448.09 210.716 1451.72 227.208L1454 237.578V270.992C1451.41 257.947 1448.72 244.713 1446 231.342C1442.87 215.909 1439.63 200.181 1436.36 184.353L1436.36 184.351Z" fill="white" fill-opacity="0.26"/>
<path fill-rule="evenodd" clip-rule="evenodd" d="M1333.99 259.393C1340.5 252.546 1346.54 246.87 1352.22 241.627C1358.64 250.483 1364.59 259.08 1370.87 268.609C1368.06 272.05 1365.2 275.914 1362.2 280.002H1346.86C1342.54 272.93 1338.25 266.093 1333.99 259.393Z" fill="white" fill-opacity="0.26"/>
<path fill-rule="evenodd" clip-rule="evenodd" d="M1354.88 238.82C1360.51 233.789 1365.47 229.006 1370.29 224.403C1375.92 231.955 1381.69 240.009 1387.32 247.955C1383.02 253.454 1378.28 259.078 1373.4 265.292C1367.2 256.312 1361.25 247.606 1354.88 238.82Z" fill="white" fill-opacity="0.26"/>
<path fill-rule="evenodd" clip-rule="evenodd" d="M1372.62 222.287C1377.06 218.394 1381.32 214.443 1385.3 210.773C1390.29 217.388 1395.47 223.813 1400.71 230.668C1397.06 235.179 1393.34 239.94 1389.37 245.296C1383.78 237.583 1378.13 229.627 1372.62 222.287H1372.62Z" fill="white" fill-opacity="0.26"/>
<path fill-rule="evenodd" clip-rule="evenodd" d="M1399.14 197.271C1402.19 194.241 1405.2 191.538 1408.11 188.925C1412.22 193.806 1416.72 199.175 1420.83 204.365C1418.5 207.497 1415.8 210.843 1413.11 214.654C1408.43 208.525 1403.86 203.18 1399.14 197.271Z" fill="white" fill-opacity="0.26"/>
<path fill-rule="evenodd" clip-rule="evenodd" d="M1409.79 188.027C1412.39 185.483 1415.02 183.175 1417.3 180.596C1420.98 184.945 1424.85 189.428 1428.44 193.777C1426.48 196.715 1424.3 199.66 1422.02 202.799C1418.03 197.911 1413.79 192.812 1409.79 188.027Z" fill="white" fill-opacity="0.26"/>
<path fill-rule="evenodd" clip-rule="evenodd" d="M1418.95 179.11C1421.07 176.773 1423.09 174.645 1425.03 172.53C1428.39 176.366 1431.87 180.419 1435.06 184.198C1433.51 186.622 1431.68 189.079 1429.77 191.784C1426.18 187.48 1422.39 183.17 1418.95 179.11H1418.95Z" fill="white" fill-opacity="0.26"/>
<path fill-rule="evenodd" clip-rule="evenodd" d="M1426.25 171.353C1428.09 169.54 1429.73 167.654 1431.48 165.905C1434.4 169.192 1437.47 172.559 1440.39 175.846C1439.16 178.213 1437.73 180.54 1436.41 183.042C1433.02 179.235 1429.49 175.199 1426.25 171.353Z" fill="white" fill-opacity="0.26"/>
<path fill-rule="evenodd" clip-rule="evenodd" d="M1432.16 164.99C1433.7 163.326 1435.11 161.394 1436.32 159.674C1439.03 162.605 1441.59 165.494 1444.49 168.615C1443.29 170.719 1442.09 172.707 1440.81 174.868C1437.96 171.684 1435.02 168.379 1432.16 164.99H1432.16Z" fill="white" fill-opacity="0.26"/>
<path fill-rule="evenodd" clip-rule="evenodd" d="M1437.1 158.318C1438.41 156.787 1439.54 155.334 1440.71 153.836C1443.23 156.569 1445.72 159.381 1447.89 161.777C1447.17 163.67 1446.18 165.447 1445.38 167.481C1442.68 164.428 1439.87 161.285 1437.1 158.318H1437.1Z" fill="white" fill-opacity="0.26"/>
<path fill-rule="evenodd" clip-rule="evenodd" d="M1427.41 103.097C1425.62 102.136 1423.95 101.232 1422.11 100.496C1422.11 100.76 1422.06 100.919 1421.89 100.901C1423.84 101.816 1425.91 103.027 1427.53 103.896C1427.53 103.541 1427.53 103.439 1427.41 103.097Z" fill="white" fill-opacity="0.26"/>
<path fill-rule="evenodd" clip-rule="evenodd" d="M1439.44 112.335C1438.4 111.249 1437.31 110.249 1436.16 109.352C1436.45 109.757 1436.75 110.181 1436.98 110.523C1438.25 111.649 1439.45 112.695 1440.61 113.771C1440.2 113.32 1439.97 112.982 1439.44 112.335Z" fill="white" fill-opacity="0.26"/>
<path fill-rule="evenodd" clip-rule="evenodd" d="M1247.92 269.855C1258.94 262.43 1268.48 255.397 1278.44 248.933C1284.37 259.017 1290.54 268.986 1296.78 280.003H1253.35C1251.56 276.583 1249.75 273.2 1247.92 269.855Z" fill="white" fill-opacity="0.26"/>
<path fill-rule="evenodd" clip-rule="evenodd" d="M1282.9 246.068C1291.66 239.889 1299.85 233.971 1307.43 228.548C1313.78 238.02 1320.08 247.458 1326.35 257.479C1318.99 264.298 1311.46 271.891 1302.85 279.264C1296.25 267.653 1289.39 256.815 1282.9 246.068Z" fill="white" fill-opacity="0.26"/>
<path fill-rule="evenodd" clip-rule="evenodd" d="M1311.05 226.019C1318.31 221.811 1324.74 217.17 1330.99 212.849C1336.76 220.576 1342.71 228.679 1348.47 237.132C1342.61 242.631 1336.6 248.244 1329.86 254.682C1323.43 244.598 1317.43 235.097 1311.05 226.019Z" fill="white" fill-opacity="0.26"/>
<path fill-rule="evenodd" clip-rule="evenodd" d="M1333.84 210.551C1339.86 206.669 1345.34 202.736 1350.63 199.432C1355.92 206.046 1361.55 213.545 1366.93 221.195C1362.01 225.523 1356.76 229.746 1351.1 234.594C1345.56 226.518 1339.64 218.492 1333.84 210.551Z" fill="white" fill-opacity="0.26"/>
<path fill-rule="evenodd" clip-rule="evenodd" d="M1353.15 197.82C1358.19 194.83 1362.74 191.646 1367.25 189.045C1372.27 194.95 1377.08 201.09 1382.2 207.687C1378.17 211.202 1373.74 214.787 1369.29 218.771C1363.97 211.786 1358.46 204.387 1353.15 197.82Z" fill="white" fill-opacity="0.26"/>
<path fill-rule="evenodd" clip-rule="evenodd" d="M1413.17 97.1283C1414.34 97.0085 1415.4 96.8822 1416.34 96.6992C1418.28 98.6094 1420.06 100.391 1421.96 102.203C1421.01 102.334 1420.12 102.643 1419.11 102.878C1417.15 101.031 1415.27 99.1103 1413.17 97.1283Z" fill="white" fill-opacity="0.26"/>
<path fill-rule="evenodd" clip-rule="evenodd" d="M1383.03 178.389C1386.59 176.257 1389.82 173.998 1393.14 171.925C1397.24 176.812 1401.47 181.724 1405.63 186.718C1402.67 189.103 1399.6 191.743 1396.3 194.396C1391.92 189.012 1387.54 183.745 1383.03 178.389Z" fill="white" fill-opacity="0.26"/>
<path fill-rule="evenodd" clip-rule="evenodd" d="M1394.99 171.261C1397.94 169.185 1400.92 167.316 1403.76 165.406C1407.29 169.477 1410.98 173.735 1414.52 178.035C1412.11 180.441 1409.55 182.722 1406.88 185.203C1402.97 180.674 1398.98 175.959 1394.99 171.261Z" fill="white" fill-opacity="0.26"/>
<path fill-rule="evenodd" clip-rule="evenodd" d="M1405.52 164.276C1408.19 162.657 1410.33 160.765 1412.7 159.223C1416.06 162.978 1419.45 166.693 1422.63 170.398C1420.69 172.428 1418.54 174.41 1416.24 176.634C1412.57 172.165 1409 168.144 1405.53 164.276H1405.52Z" fill="white" fill-opacity="0.26"/>
<path fill-rule="evenodd" clip-rule="evenodd" d="M1414.04 158.192C1416.25 156.637 1418.27 155.06 1420.39 153.843C1423.32 157.027 1426.41 160.342 1429.53 164.069C1427.84 165.824 1426.07 167.538 1424.1 169.533C1420.85 165.857 1417.4 161.862 1414.04 158.192Z" fill="white" fill-opacity="0.26"/>
<path fill-rule="evenodd" clip-rule="evenodd" d="M1421.13 153.174C1422.99 151.7 1424.77 150.458 1426.3 149.029C1428.99 151.946 1431.76 154.969 1434.44 157.809C1433.04 159.46 1431.64 161.285 1429.96 163.073C1427.04 159.643 1424.07 156.409 1421.13 153.172V153.174Z" fill="white" fill-opacity="0.26"/>
<path fill-rule="evenodd" clip-rule="evenodd" d="M1427.39 148.052C1429.02 146.989 1430.33 145.571 1431.64 144.354C1434.21 147.028 1436.8 149.842 1439.35 152.706C1437.98 153.948 1436.92 155.605 1435.66 157.115C1432.98 154.137 1430.08 150.992 1427.39 148.054V148.052Z" fill="white" fill-opacity="0.26"/>
<path fill-rule="evenodd" clip-rule="evenodd" d="M1432.36 143.97C1433.78 142.935 1434.7 141.557 1435.87 140.374C1438.06 142.661 1440.34 145.096 1442.44 147.418C1441.4 148.716 1440.49 150.167 1439.44 151.665C1437.08 149.093 1434.74 146.514 1432.36 143.97Z" fill="white" fill-opacity="0.26"/>
<path fill-rule="evenodd" clip-rule="evenodd" d="M1436.42 108.705C1435.61 107.814 1434.76 107.023 1433.97 106.315C1434.48 106.984 1434.94 107.618 1435.46 108.167C1436.43 109.071 1437.41 110.049 1438.27 110.831C1437.57 110.053 1437.06 109.465 1436.42 108.705H1436.42Z" fill="white" fill-opacity="0.26"/>
<path fill-rule="evenodd" clip-rule="evenodd" d="M1438.52 113.216C1438.39 112.536 1438.08 111.804 1437.95 111.118C1438.76 112.079 1439.63 113.044 1440.45 113.913C1440.75 114.708 1441.18 115.577 1441.5 116.435C1440.56 115.435 1439.51 114.366 1438.52 113.216Z" fill="white" fill-opacity="0.26"/>
<path fill-rule="evenodd" clip-rule="evenodd" d="M1065.79 165.476C1083.75 161.69 1100.26 157.959 1115.81 154.409C1121.8 164.082 1127.91 173.319 1133.64 183.231C1118.56 187.433 1101.92 192.847 1083.5 198.362C1077.51 186.947 1071.7 176.148 1065.79 165.476H1065.79Z" fill="white" fill-opacity="0.26"/>
<path fill-rule="evenodd" clip-rule="evenodd" d="M1169.39 154.553C1181.93 151.769 1192.96 149.025 1203.94 146.949C1209.33 154.25 1215.19 161.812 1221.04 169.74C1210.32 172.999 1199.08 176.497 1186.99 180.367C1181.36 171.672 1175.23 162.742 1169.39 154.551V154.553Z" fill="white" fill-opacity="0.26"/>
<path fill-rule="evenodd" clip-rule="evenodd" d="M1184.14 97.7296C1194.13 97.3288 1203.47 96.7233 1212.49 96.2441C1217.56 101.789 1222.53 107.198 1227.3 112.817C1218.56 113.612 1209.27 114.623 1199.39 116.069C1194.46 109.735 1189.53 103.602 1184.14 97.7296Z" fill="white" fill-opacity="0.26"/>
<path fill-rule="evenodd" clip-rule="evenodd" d="M1174.8 256.597C1189.5 248.771 1202.46 241.227 1215.13 234.475C1221.78 245.988 1228.59 258.37 1235.36 270.728C1231.21 273.799 1226.99 276.879 1222.66 280H1186.21C1182.35 272.002 1178.56 264.229 1174.8 256.597Z" fill="white" fill-opacity="0.26"/>
<path fill-rule="evenodd" clip-rule="evenodd" d="M1220.99 231.445C1232.46 225.808 1243.06 220.572 1252.79 215.382C1259.05 224.911 1265.73 235.139 1271.76 245.692C1262.29 252.265 1252.09 259.01 1240.88 266.276C1234.4 254.105 1227.64 242.799 1220.99 231.445Z" fill="white" fill-opacity="0.26"/>
<path fill-rule="evenodd" clip-rule="evenodd" d="M1258.11 213.935C1267.59 209.082 1276.23 204.839 1284.42 200.786C1290.06 208.819 1296.02 217.13 1302.01 225.583C1294.14 230.946 1285.53 236.857 1276.47 243.075C1270.25 232.586 1264.25 223.307 1258.11 213.933V213.935Z" fill="white" fill-opacity="0.26"/>
<path fill-rule="evenodd" clip-rule="evenodd" d="M1289.47 197.831C1297.04 194.338 1304.18 190.931 1310.95 187.542C1316.35 194.47 1321.78 201.782 1327.21 209.294C1320.8 213.735 1314.1 217.978 1306.78 222.214C1301.11 214.182 1295.24 205.962 1289.47 197.833V197.831Z" fill="white" fill-opacity="0.26"/>
<path fill-rule="evenodd" clip-rule="evenodd" d="M1314.86 185.557C1321.02 182.077 1326.9 179.509 1332.75 176.965C1337.83 183.442 1343.05 190.061 1348.41 196.75C1342.88 199.854 1337.11 203.456 1331.28 207.458C1325.89 200.054 1320.25 192.634 1314.86 185.557Z" fill="white" fill-opacity="0.26"/>
<path fill-rule="evenodd" clip-rule="evenodd" d="M1335.3 176.252C1340.5 173.737 1345.62 171.371 1350.61 169.278C1355.03 174.858 1359.7 180.419 1364.32 185.982C1359.79 188.789 1354.99 191.812 1350.12 195.053C1345.12 188.685 1340.07 182.312 1335.31 176.252H1335.3Z" fill="white" fill-opacity="0.26"/>
<path fill-rule="evenodd" clip-rule="evenodd" d="M1368.28 160.948C1372.4 159.45 1376 157.77 1379.58 156.117C1383.43 160.456 1387.43 165.012 1391.12 169.305C1387.87 171.403 1384.71 173.661 1380.83 175.65C1376.77 170.756 1372.57 165.812 1368.28 160.946V160.948Z" fill="white" fill-opacity="0.26"/>
<path fill-rule="evenodd" clip-rule="evenodd" d="M1381.48 155.342C1384.96 153.695 1388.09 152.055 1391.18 150.842C1394.76 154.734 1398.08 158.524 1401.79 162.732C1398.96 164.572 1396.05 166.35 1393.04 168.386C1389.1 163.967 1385.4 159.617 1381.48 155.342Z" fill="white" fill-opacity="0.26"/>
<path fill-rule="evenodd" clip-rule="evenodd" d="M1392.72 150.236C1395.53 148.909 1398.09 147.533 1400.74 146.383C1404.1 149.99 1407.45 153.529 1410.44 157.101C1408.26 158.713 1405.69 160.257 1403.15 161.915C1399.56 157.931 1396.12 154.071 1392.72 150.236H1392.72Z" fill="white" fill-opacity="0.26"/>
<path fill-rule="evenodd" clip-rule="evenodd" d="M1402.67 145.88C1405.24 144.725 1407.54 143.638 1409.77 142.393C1412.44 145.278 1415.61 148.67 1418.32 151.773C1416.38 153.174 1414.19 154.568 1411.97 156.147C1408.97 152.66 1405.74 149.225 1402.67 145.88Z" fill="white" fill-opacity="0.26"/>
<path fill-rule="evenodd" clip-rule="evenodd" d="M1411.01 141.764C1413.15 140.81 1415.29 139.867 1417.17 138.906C1419.78 141.685 1422.3 144.434 1424.9 147.15C1423.25 148.396 1421.35 149.546 1419.56 151.084C1416.73 147.882 1413.98 144.824 1411.01 141.766V141.764Z" fill="white" fill-opacity="0.26"/>
<path fill-rule="evenodd" clip-rule="evenodd" d="M1417.72 138.375C1419.59 137.484 1421.21 136.488 1422.99 135.683C1425.26 138.004 1427.65 140.559 1430.07 143.068C1428.58 144.188 1427.14 145.451 1425.51 146.738C1422.97 143.944 1420.33 141.211 1417.72 138.375Z" fill="white" fill-opacity="0.26"/>
<path fill-rule="evenodd" clip-rule="evenodd" d="M1423.76 134.898C1425.19 133.846 1426.6 132.857 1428 132.114C1430.32 134.549 1432.42 136.762 1434.53 139.019C1433.43 140.208 1432.2 141.312 1430.9 142.488C1428.48 139.892 1426.09 137.418 1423.76 134.896V134.898Z" fill="white" fill-opacity="0.26"/>
<path fill-rule="evenodd" clip-rule="evenodd" d="M1428.82 131.583C1430.1 130.886 1431.32 130.154 1432.35 129.239C1434.32 131.319 1436.11 133.201 1438.22 135.453C1437.31 136.466 1436.39 137.455 1435.35 138.476C1433.24 136.281 1431.15 134.12 1428.82 131.583Z" fill="white" fill-opacity="0.26"/>
<path fill-rule="evenodd" clip-rule="evenodd" d="M1232.93 123.934C1241.29 122.784 1249.25 121.802 1256.98 120.591C1261.81 126.382 1266.67 131.967 1271.78 137.78C1264.41 139.335 1256.57 140.803 1248.21 142.868C1243.08 136.39 1237.93 130.155 1232.92 123.934H1232.93Z" fill="white" fill-opacity="0.26"/>
<path fill-rule="evenodd" clip-rule="evenodd" d="M1388.07 94.1164C1390.35 94.1338 1392.5 94.1382 1394.54 94.1731C1396.93 96.5689 1399.39 98.906 1401.7 101.232C1399.71 101.197 1397.98 101.531 1395.8 101.609C1393.29 99.0933 1390.73 96.5842 1388.07 94.1143L1388.07 94.1164Z" fill="white" fill-opacity="0.26"/>
<path fill-rule="evenodd" clip-rule="evenodd" d="M1388.43 86.6738C1390.49 86.9243 1392.45 87.1138 1394.34 87.2684C1396.66 89.4465 1398.88 91.5396 1401.05 93.5957C1399.3 93.6066 1397.5 93.5848 1395.65 93.5107C1393.32 91.2935 1390.85 88.9542 1388.43 86.6738Z" fill="white" fill-opacity="0.26"/>
<path fill-rule="evenodd" clip-rule="evenodd" d="M1237.41 69.2773C1244.62 69.6541 1251.47 69.9852 1257.99 70.2945C1262.01 74.2847 1265.99 78.3315 1270.09 82.1954C1263.57 82.2346 1257.04 82.1431 1250.02 82.0473C1245.95 77.726 1241.64 73.5006 1237.41 69.2773H1237.41Z" fill="white" fill-opacity="0.26"/>
<path fill-rule="evenodd" clip-rule="evenodd" d="M1097.41 235.64C1115.76 228.134 1132.59 221.498 1148.6 215.362C1154.84 226.897 1161.52 239.293 1167.61 252.572C1151.89 260.792 1135.42 269.138 1117.01 278.068C1110.79 263.639 1104.07 249.342 1097.41 235.64H1097.41Z" fill="white" fill-opacity="0.26"/>
<path fill-rule="evenodd" clip-rule="evenodd" d="M1201.3 194.744C1212.91 190.427 1223.96 186.588 1234.2 182.809C1240.17 191.349 1246.25 200.403 1252.17 209.557C1242.37 214.571 1231.59 219.663 1220.56 224.815C1214.14 214.73 1207.73 204.35 1201.3 194.746L1201.3 194.744Z" fill="white" fill-opacity="0.26"/>
<path fill-rule="evenodd" clip-rule="evenodd" d="M1271.75 170.529C1279.77 167.813 1287.09 165.332 1294.06 162.777C1299.11 169.002 1304.4 175.765 1309.47 182.717C1302.83 185.924 1295.57 189.326 1288.23 192.841C1282.93 185.118 1277.22 177.549 1271.74 170.529H1271.75Z" fill="white" fill-opacity="0.26"/>
<path fill-rule="evenodd" clip-rule="evenodd" d="M1298.04 161.542C1304.68 159.311 1310.9 157.34 1316.87 155.539C1321.86 161.439 1326.71 167.429 1331.71 173.386C1326.04 175.81 1320.25 178.245 1314 181.275C1308.58 174.318 1303.39 167.619 1298.04 161.542Z" fill="white" fill-opacity="0.26"/>
<path fill-rule="evenodd" clip-rule="evenodd" d="M1319.44 154.884C1324.97 153.1 1330.33 151.344 1335.6 149.561C1339.99 154.762 1344.37 159.874 1348.86 165.177C1344.01 167.349 1338.89 169.786 1333.68 172.134C1328.8 166.251 1323.98 160.438 1319.44 154.882L1319.44 154.884Z" fill="white" fill-opacity="0.26"/>
<path fill-rule="evenodd" clip-rule="evenodd" d="M1339.08 148.505C1343.8 147.083 1348.42 145.715 1352.64 144.354C1357.05 149.269 1361.24 153.843 1365.37 158.759C1361.41 160.321 1357.15 162.092 1352.48 164.322C1348.08 158.726 1343.44 153.484 1339.08 148.505Z" fill="white" fill-opacity="0.26"/>
<path fill-rule="evenodd" clip-rule="evenodd" d="M1354.71 143.913C1359 142.73 1362.84 141.375 1366.71 140.265C1370.49 144.353 1374.35 148.748 1377.94 153.006C1374.46 154.533 1370.87 156.23 1366.7 157.643C1362.84 153.224 1358.73 148.439 1354.71 143.913H1354.71Z" fill="white" fill-opacity="0.26"/>
<path fill-rule="evenodd" clip-rule="evenodd" d="M1368.76 139.603C1372.46 138.607 1375.94 137.745 1379.22 136.784C1382.69 140.567 1386.26 144.29 1389.55 147.995C1386.54 149.138 1383.25 150.486 1379.97 152.105C1376.31 147.816 1372.55 143.737 1368.76 139.603Z" fill="white" fill-opacity="0.26"/>
<path fill-rule="evenodd" clip-rule="evenodd" d="M1380.74 136.309C1383.87 135.447 1386.87 134.532 1389.73 133.53C1392.94 136.982 1396.17 140.424 1399.2 143.78C1396.67 144.991 1393.88 146.193 1391.02 147.32C1387.6 143.695 1384.22 139.969 1380.74 136.309H1380.74Z" fill="white" fill-opacity="0.26"/>
<path fill-rule="evenodd" clip-rule="evenodd" d="M1391.7 133.184C1394.48 132.343 1396.94 131.396 1399.32 130.646C1402.26 133.602 1405.17 136.632 1408.03 139.57C1405.92 140.879 1403.5 142.062 1400.88 143.12C1397.8 139.736 1394.8 136.473 1391.7 133.184H1391.7Z" fill="white" fill-opacity="0.26"/>
<path fill-rule="evenodd" clip-rule="evenodd" d="M1401.07 130.502C1403.37 129.707 1405.67 129.039 1407.89 128.427C1410.32 130.971 1413 133.75 1415.47 136.453C1413.47 137.276 1411.52 138.213 1409.38 139.128C1406.69 136.303 1403.9 133.462 1401.07 130.5V130.502Z" fill="white" fill-opacity="0.26"/>
<path fill-rule="evenodd" clip-rule="evenodd" d="M1408.49 127.964C1410.41 127.18 1412.32 126.454 1414.27 125.81C1416.59 128.216 1419.1 130.908 1421.4 133.339C1419.67 134.208 1417.99 135.134 1416.19 136.027C1413.66 133.352 1411.04 130.721 1408.49 127.966L1408.49 127.964Z" fill="white" fill-opacity="0.26"/>
<path fill-rule="evenodd" clip-rule="evenodd" d="M1415.16 125.266C1416.93 124.609 1418.51 124.027 1420.15 123.528C1422.42 125.774 1424.64 127.969 1426.82 130.309C1425.36 131.012 1423.94 131.864 1422.47 132.796C1420.06 130.322 1417.66 127.76 1415.16 125.266H1415.16Z" fill="white" fill-opacity="0.26"/>
<path fill-rule="evenodd" clip-rule="evenodd" d="M1286.65 117.543C1292.92 116.903 1298.95 116.417 1304.73 115.783C1309.01 120.39 1313.37 125.107 1317.72 129.76C1312.14 130.696 1306.57 131.818 1300.31 133.086C1295.75 127.804 1291.24 122.55 1286.65 117.543Z" fill="white" fill-opacity="0.26"/>
<path fill-rule="evenodd" clip-rule="evenodd" d="M1307.36 115.365C1312.81 114.679 1318.14 114.215 1322.93 113.577C1327.12 117.881 1331.26 122.283 1335.16 126.593C1330.42 127.512 1325.53 128.44 1320.25 129.285C1316.06 124.77 1311.64 119.957 1307.36 115.365Z" fill="white" fill-opacity="0.26"/>
<path fill-rule="evenodd" clip-rule="evenodd" d="M1325.3 113.314C1330.28 112.835 1334.74 112.41 1339.06 111.994C1342.81 115.801 1346.74 119.883 1350.48 123.793C1346.32 124.577 1342.02 125.37 1337.49 126.33C1333.55 121.882 1329.39 117.492 1325.3 113.314Z" fill="white" fill-opacity="0.26"/>
<path fill-rule="evenodd" clip-rule="evenodd" d="M1341.11 111.758C1345.34 111.353 1349.36 111.107 1353.2 110.752C1356.72 114.302 1360.45 118.229 1363.85 121.723C1360.19 122.339 1356.36 122.797 1352.43 123.415C1348.85 119.671 1344.85 115.589 1341.1 111.758H1341.11Z" fill="white" fill-opacity="0.26"/>
<path fill-rule="evenodd" clip-rule="evenodd" d="M1355.08 110.615C1358.78 110.204 1362.25 109.701 1365.72 109.563C1368.99 112.815 1372.33 116.2 1375.63 119.698C1372.52 120.236 1369.2 120.852 1365.63 121.517C1362.19 117.84 1358.54 114.159 1355.08 110.615Z" fill="white" fill-opacity="0.26"/>
<path fill-rule="evenodd" clip-rule="evenodd" d="M1367.33 109.506C1370.57 109.197 1373.56 108.911 1376.59 108.711C1379.77 111.793 1382.98 114.964 1385.74 117.909C1383.09 118.44 1380.25 118.989 1377.1 119.383C1373.91 115.97 1370.73 112.747 1367.34 109.506H1367.33Z" fill="white" fill-opacity="0.26"/>
<path fill-rule="evenodd" clip-rule="evenodd" d="M1377.95 108.609C1380.85 108.313 1383.68 108.123 1386.21 107.849C1389.14 110.702 1392.03 113.644 1394.88 116.487C1392.49 117.047 1389.75 117.332 1387.18 117.711C1384.18 114.733 1381.2 111.691 1377.95 108.611V108.609Z" fill="white" fill-opacity="0.26"/>
<path fill-rule="evenodd" clip-rule="evenodd" d="M1387.67 107.894C1390.25 107.666 1392.64 107.437 1394.92 107.226C1397.41 109.804 1400.03 112.398 1402.67 114.925C1400.5 115.291 1398.2 115.846 1396 116.336C1393.27 113.49 1390.54 110.787 1387.67 107.894Z" fill="white" fill-opacity="0.26"/>
<path fill-rule="evenodd" clip-rule="evenodd" d="M1396.31 107.076C1398.51 106.921 1400.48 106.664 1402.49 106.566C1404.89 108.847 1407.3 111.219 1409.72 113.625C1407.86 113.97 1406.11 114.386 1404.13 114.712C1401.55 112.179 1398.86 109.59 1396.31 107.074V107.076Z" fill="white" fill-opacity="0.26"/>
<path fill-rule="evenodd" clip-rule="evenodd" d="M1403.65 106.362C1405.54 106.133 1407.2 105.928 1408.97 105.773C1411.27 108.015 1413.57 110.186 1415.84 112.519C1414.28 112.896 1412.61 113.17 1410.88 113.61C1408.51 111.186 1406.04 108.744 1403.64 106.362H1403.65Z" fill="white" fill-opacity="0.26"/>
<path fill-rule="evenodd" clip-rule="evenodd" d="M1409.72 105.732C1411.31 105.469 1412.68 105.131 1414.09 104.863C1416.17 106.939 1418.31 109.043 1420.23 110.992C1418.98 111.365 1417.56 111.724 1416.24 112.164C1414.09 110.014 1411.84 107.832 1409.72 105.732Z" fill="white" fill-opacity="0.26"/>
<path fill-rule="evenodd" clip-rule="evenodd" d="M1415 104.68C1416.24 104.433 1417.59 104.359 1418.72 104.057C1420.68 105.995 1422.66 107.916 1424.47 109.767C1423.46 110.109 1422.44 110.482 1421.25 110.802C1419.27 108.859 1417.13 106.847 1415 104.68H1415Z" fill="white" fill-opacity="0.26"/>
<path fill-rule="evenodd" clip-rule="evenodd" d="M1429.12 105.847C1429.51 105.52 1429.83 105.013 1430.1 104.651C1431.41 106.034 1432.71 107.252 1433.8 108.476C1433.82 109.077 1433.61 109.609 1433.35 110.123C1431.92 108.705 1430.6 107.35 1429.13 105.847H1429.12Z" fill="white" fill-opacity="0.26"/>
<path fill-rule="evenodd" clip-rule="evenodd" d="M1403.66 94.5562C1400.53 93.8941 1397.46 93.2298 1393.94 92.5328C1393.11 92.1102 1392.33 91.9164 1391.33 91.5439C1395.07 92.4587 1398.48 93.184 1401.77 93.9616C1402.54 94.4821 1403.05 94.2426 1403.66 94.5562Z" fill="white" fill-opacity="0.26"/>
<path fill-rule="evenodd" clip-rule="evenodd" d="M1382.39 91.0647C1377.97 90.6814 1373.49 90.6922 1368.62 90.4701C1367.71 90.3851 1366.67 90.3089 1365.61 89.9844C1370.69 90.4701 1375.35 90.3612 1379.85 90.6313C1380.91 91.0255 1381.72 90.8839 1382.39 91.0669V91.0647Z" fill="white" fill-opacity="0.26"/>
<path fill-rule="evenodd" clip-rule="evenodd" d="M1293.73 100.267C1299.37 99.9079 1304.97 99.7076 1310.02 99.3809C1314.08 103.439 1318.08 107.566 1321.99 111.767C1316.99 112.271 1311.66 112.756 1306.36 113.373C1302.17 108.851 1297.85 104.364 1293.73 100.265L1293.73 100.267Z" fill="white" fill-opacity="0.26"/>
<path fill-rule="evenodd" clip-rule="evenodd" d="M1312.48 99.2391C1317.53 99.1585 1322.32 99.0562 1326.82 98.8623C1330.47 102.613 1334.49 106.54 1338.03 110.284C1333.77 110.702 1329.15 111.027 1324.37 111.417C1320.5 107.328 1316.43 103.197 1312.48 99.2413V99.2391Z" fill="white" fill-opacity="0.26"/>
<path fill-rule="evenodd" clip-rule="evenodd" d="M1328.99 98.8449C1333.45 98.736 1337.64 98.7425 1341.77 98.6445C1345.28 101.988 1348.78 105.545 1352.18 109.208C1348.3 109.419 1344.28 109.7 1340.1 110.19C1336.62 106.464 1332.66 102.519 1328.99 98.8427L1328.99 98.8449Z" fill="white" fill-opacity="0.26"/>
<path fill-rule="evenodd" clip-rule="evenodd" d="M1343.7 98.5248C1347.63 98.4442 1351.3 98.5139 1354.86 98.3984C1358.23 101.628 1361.5 104.848 1364.68 108.043C1361.33 108.191 1357.82 108.614 1354.06 109.021C1350.64 105.523 1347.14 101.909 1343.7 98.5248Z" fill="white" fill-opacity="0.26"/>
<path fill-rule="evenodd" clip-rule="evenodd" d="M1356.58 98.3174C1360.11 98.3849 1363.18 98.2194 1366.39 98.2499C1369.57 101.314 1372.65 104.263 1375.64 107.265C1372.67 107.533 1369.57 107.785 1366.29 107.99C1363.11 104.738 1359.88 101.663 1356.58 98.3174Z" fill="white" fill-opacity="0.26"/>
<path fill-rule="evenodd" clip-rule="evenodd" d="M1367.87 98.1413C1371.02 98.1064 1373.87 98.0955 1376.72 97.9932C1379.64 100.816 1382.47 103.606 1385.31 106.453C1382.76 106.945 1380 107.069 1377.11 107.269C1374.01 104.188 1371.1 101.21 1367.86 98.1413H1367.87Z" fill="white" fill-opacity="0.26"/>
<path fill-rule="evenodd" clip-rule="evenodd" d="M1378.05 98.0264C1380.71 98.0264 1383.42 98.1462 1385.72 98.083C1388.39 100.581 1391.12 103.256 1393.83 105.817C1391.5 105.954 1389.12 106.148 1386.59 106.447C1383.87 103.617 1380.92 100.845 1378.05 98.0264Z" fill="white" fill-opacity="0.26"/>
<path fill-rule="evenodd" clip-rule="evenodd" d="M1279.59 85.2168C1285.53 85.28 1291.26 85.3649 1296.61 85.4978C1300.51 89.4139 1304.4 93.1798 1308.25 97.0632C1302.99 97.2396 1297.45 97.5032 1291.89 97.7428C1287.73 93.5304 1283.55 89.2593 1279.59 85.219V85.2168Z" fill="white" fill-opacity="0.26"/>
<path fill-rule="evenodd" clip-rule="evenodd" d="M1299.1 85.6738C1304.33 85.6913 1309.38 85.9199 1314.09 86.0746C1317.78 89.6705 1321.51 93.2665 1325.09 96.8385C1320.52 96.7928 1315.62 96.8668 1310.68 97.0955C1306.9 93.1228 1303.04 89.4005 1299.1 85.6738Z" fill="white" fill-opacity="0.26"/>
<path fill-rule="evenodd" clip-rule="evenodd" d="M1316.46 86.1143C1321.09 86.2057 1325.58 86.3887 1329.81 86.5782C1333.19 89.8257 1336.63 93.1755 1340.07 96.6974C1336.01 96.7257 1331.75 96.8063 1327.37 96.8738C1323.79 93.2496 1320.07 89.5861 1316.47 86.1143H1316.46Z" fill="white" fill-opacity="0.26"/>
<path fill-rule="evenodd" clip-rule="evenodd" d="M1331.76 86.5996C1335.97 86.8392 1339.61 86.9132 1343.45 87.1311C1346.87 90.3045 1349.96 93.3516 1353.24 96.5228C1349.58 96.5402 1345.85 96.501 1341.86 96.5794C1338.64 93.2078 1335.2 89.858 1331.76 86.5996Z" fill="white" fill-opacity="0.26"/>
<path fill-rule="evenodd" clip-rule="evenodd" d="M1345.42 87.2969C1348.92 87.3644 1352.35 87.4624 1355.76 87.6628C1358.92 90.7099 1361.94 93.6023 1364.87 96.4491C1361.82 96.6037 1358.53 96.6255 1354.95 96.5471C1351.79 93.3628 1348.62 90.3788 1345.42 87.2969Z" fill="white" fill-opacity="0.26"/>
<path fill-rule="evenodd" clip-rule="evenodd" d="M1357.44 87.7148C1360.77 87.9435 1363.71 88.0699 1366.52 88.1831C1369.5 90.9318 1372.55 93.7045 1375.28 96.3922C1372.5 96.4379 1369.58 96.5294 1366.39 96.4488C1363.45 93.613 1360.48 90.7271 1357.44 87.7148Z" fill="white" fill-opacity="0.26"/>
<path fill-rule="evenodd" clip-rule="evenodd" d="M1368.28 88.5146C1371.24 88.7608 1373.87 88.898 1376.54 89.057C1379.27 91.6402 1382.12 94.3039 1384.76 96.9698C1382.24 96.776 1379.59 96.7412 1376.83 96.6279C1374.09 94.0491 1371.36 91.4724 1368.28 88.5168V88.5146Z" fill="white" fill-opacity="0.26"/>
<path fill-rule="evenodd" clip-rule="evenodd" d="M1286.53 73.1133C1291.96 73.4226 1297.1 73.6338 1302.07 74.039C1305.75 77.5543 1309.31 80.9564 1312.9 84.6199C1308 84.2889 1303.1 84.254 1297.78 84.0994C1294.17 80.4294 1290.4 76.7659 1286.53 73.1133H1286.53Z" fill="white" fill-opacity="0.26"/>
<path fill-rule="evenodd" clip-rule="evenodd" d="M1304.56 74.3896C1309.42 74.6118 1313.89 75.03 1318.4 75.5048C1321.83 78.6608 1325.15 81.8778 1328.55 85.1536C1324.17 84.7877 1319.9 84.7768 1315.16 84.6287C1311.59 81.1351 1308.01 77.5805 1304.56 74.3896Z" fill="white" fill-opacity="0.26"/>
<path fill-rule="evenodd" clip-rule="evenodd" d="M1320.48 75.6816C1324.77 76.0127 1328.74 76.4353 1332.76 76.8709C1336.01 79.8199 1339.16 82.891 1342.43 85.9708C1338.55 85.5765 1334.75 85.4959 1330.49 85.1823C1327.3 82.096 1323.91 78.9117 1320.48 75.6816Z" fill="white" fill-opacity="0.26"/>
<path fill-rule="evenodd" clip-rule="evenodd" d="M1334.72 77.0117C1338.5 77.3493 1342.07 77.554 1345.61 77.8916C1348.67 80.7493 1351.64 83.5742 1354.67 86.471C1351.27 86.2946 1347.9 86.1443 1344.13 85.9744C1340.91 82.9338 1337.92 79.9782 1334.72 77.0117Z" fill="white" fill-opacity="0.26"/>
<path fill-rule="evenodd" clip-rule="evenodd" d="M1347.37 78.1055C1350.57 78.3167 1353.76 78.6195 1357.03 79.0834C1359.91 81.7123 1362.79 84.4523 1365.59 87.0747C1362.61 86.9309 1359.52 86.6347 1356.35 86.5541C1353.25 83.6551 1350.27 80.9064 1347.37 78.1055Z" fill="white" fill-opacity="0.26"/>
<path fill-rule="evenodd" clip-rule="evenodd" d="M1366.82 81.1289C1369.64 81.4774 1372.33 81.7976 1374.81 82.0154C1377.35 84.3524 1380.06 86.8289 1382.68 89.2879C1380.19 89.0657 1377.63 89.0069 1375.07 88.8479C1372.48 86.2974 1369.67 83.7208 1366.82 81.1311V81.1289Z" fill="white" fill-opacity="0.26"/>
<path fill-rule="evenodd" clip-rule="evenodd" d="M1376.32 82.1455C1378.73 82.3568 1381.03 82.5114 1383.26 82.7924C1385.6 85.0445 1387.96 87.1485 1390.2 89.3483C1388.23 89.32 1385.98 89.1588 1383.83 89.0913C1381.42 86.8501 1378.82 84.4085 1376.32 82.1455Z" fill="white" fill-opacity="0.26"/>
<path fill-rule="evenodd" clip-rule="evenodd" d="M1292.4 63.1445C1297.29 63.7217 1302 64.2771 1306.75 64.8434C1310.11 67.9755 1313.4 71.0117 1316.85 74.196C1312.19 73.5905 1307.82 73.3269 1302.84 72.7889C1299.43 69.4914 1295.89 66.3855 1292.4 63.1445Z" fill="white" fill-opacity="0.26"/>
<path fill-rule="evenodd" clip-rule="evenodd" d="M1308.93 65.0715C1313.28 65.5463 1317.65 66.1627 1321.81 66.6833C1324.89 69.5932 1328.1 72.5313 1331.32 75.5436C1327.25 75.0927 1323.32 74.7769 1318.93 74.411C1315.48 71.1766 1312.19 68.1687 1308.93 65.0693V65.0715Z" fill="white" fill-opacity="0.26"/>
<path fill-rule="evenodd" clip-rule="evenodd" d="M1323.8 66.917C1327.66 67.357 1331.45 67.8775 1335.33 68.4612C1338.29 71.2404 1341.12 73.7844 1344.21 76.6311C1340.67 76.2935 1337.06 76.0082 1333.26 75.7555C1330.11 72.7259 1326.84 69.718 1323.8 66.917Z" fill="white" fill-opacity="0.26"/>
<path fill-rule="evenodd" clip-rule="evenodd" d="M1337.02 68.7246C1340.45 69.2495 1343.88 69.7026 1347.14 70.1425C1349.96 72.7388 1352.92 75.3437 1355.73 77.9007C1352.5 77.5697 1349.33 77.2212 1345.97 76.8422C1342.88 74.0347 1339.94 71.3775 1337.02 68.7246Z" fill="white" fill-opacity="0.26"/>
<path fill-rule="evenodd" clip-rule="evenodd" d="M1357.63 72.377C1360.58 72.8518 1363.31 73.1785 1365.88 73.5095C1368.53 75.9381 1371.2 78.3296 1373.72 80.7755C1371.19 80.512 1368.61 80.2506 1365.74 79.8847C1363.08 77.4039 1360.42 74.9688 1357.63 72.3791V72.377Z" fill="white" fill-opacity="0.26"/>
<path fill-rule="evenodd" clip-rule="evenodd" d="M1367.78 74.2395C1370.39 74.588 1372.72 74.9539 1375.09 75.3939C1377.56 77.5937 1379.98 79.7717 1382.57 82.1153C1380.35 81.8235 1377.94 81.6405 1375.53 81.4401C1373.01 79.0268 1370.44 76.6375 1367.78 74.2373L1367.78 74.2395Z" fill="white" fill-opacity="0.26"/>
<path fill-rule="evenodd" clip-rule="evenodd" d="M1281.92 51.5725C1287.07 52.3805 1291.93 53.1015 1296.61 53.9095C1299.97 56.7062 1303.16 59.5812 1306.61 62.7306C1301.89 62.0097 1297.13 61.4957 1292.27 60.8662C1288.8 57.6601 1285.38 54.6174 1281.92 51.5703L1281.92 51.5725Z" fill="white" fill-opacity="0.26"/>
<path fill-rule="evenodd" clip-rule="evenodd" d="M1298.83 54.1426C1303.44 54.9354 1307.83 55.554 1312.15 56.301C1315.13 59.0737 1318.26 61.7483 1321.44 64.6539C1317.25 64.0484 1312.93 63.5169 1308.56 62.8526C1305.36 59.9427 1302.16 57.1069 1298.83 54.1426Z" fill="white" fill-opacity="0.26"/>
<path fill-rule="evenodd" clip-rule="evenodd" d="M1286.9 43.8379C1291.59 44.6634 1296.08 45.5694 1300.46 46.3884C1303.62 49.1828 1306.71 51.864 1309.8 54.5539C1305.66 53.8439 1301.16 53.1578 1296.45 52.3562C1293.33 49.5836 1290.08 46.7173 1286.9 43.8379H1286.9Z" fill="white" fill-opacity="0.26"/>
<path fill-rule="evenodd" clip-rule="evenodd" d="M1235.96 46.7725C1242.7 47.7025 1248.97 48.5672 1254.94 49.1879C1258.91 52.6096 1262.55 56.1207 1266.07 59.4139C1260.27 58.9282 1254.1 58.2312 1247.56 57.5277C1243.84 53.9753 1239.97 50.375 1235.97 46.7746L1235.96 46.7725Z" fill="white" fill-opacity="0.26"/>
<path fill-rule="evenodd" clip-rule="evenodd" d="M1417.78 113.164C1419.21 112.769 1420.52 112.351 1421.77 112.014C1423.71 113.935 1425.72 115.895 1427.62 118.051C1426.65 118.554 1425.51 119.16 1424.31 119.709C1422.23 117.611 1420 115.318 1417.78 113.164Z" fill="white" fill-opacity="0.26"/>
<path fill-rule="evenodd" clip-rule="evenodd" d="M1412.42 114.518C1414.09 114.123 1415.65 113.694 1417.14 113.307C1419.43 115.615 1421.6 117.835 1423.68 119.943C1422.47 120.605 1421.14 121.224 1419.69 121.858C1417.33 119.405 1414.86 116.896 1412.42 114.518Z" fill="white" fill-opacity="0.26"/>
<path fill-rule="evenodd" clip-rule="evenodd" d="M1406.19 115.932C1408.11 115.59 1409.86 115.115 1411.55 114.634C1414.11 117.223 1416.57 119.676 1418.87 122.072C1417.3 122.582 1415.72 123.18 1413.84 123.655C1411.31 121.072 1408.68 118.476 1406.19 115.932H1406.19Z" fill="white" fill-opacity="0.26"/>
<path fill-rule="evenodd" clip-rule="evenodd" d="M1398.24 117.52C1400.49 117.034 1402.67 116.52 1404.84 116.176C1407.4 118.709 1410.07 121.549 1412.66 124.23C1410.7 124.762 1408.8 125.539 1406.83 126.31C1404.02 123.291 1401.06 120.423 1398.24 117.517V117.52Z" fill="white" fill-opacity="0.26"/>
<path fill-rule="evenodd" clip-rule="evenodd" d="M1389.6 118.948C1392.23 118.554 1394.85 118.159 1397.05 117.656C1399.93 120.514 1402.89 123.419 1405.75 126.414C1403.53 127.139 1401.18 127.769 1398.76 128.455C1395.86 125.345 1392.8 122.202 1389.6 118.948Z" fill="white" fill-opacity="0.26"/>
<path fill-rule="evenodd" clip-rule="evenodd" d="M1379.75 120.831C1382.78 120.362 1385.56 119.835 1388.21 119.275C1391.53 122.643 1394.64 125.877 1397.54 128.942C1395.1 129.639 1392.46 130.508 1389.75 131.324C1386.35 127.728 1383.21 124.424 1379.75 120.828V120.831Z" fill="white" fill-opacity="0.26"/>
<path fill-rule="evenodd" clip-rule="evenodd" d="M1368.62 123.167C1372.07 122.579 1375.27 121.915 1378.39 121.281C1381.73 124.831 1385.05 128.249 1388.39 131.782C1385.53 132.714 1382.47 133.622 1379.34 134.537C1375.81 130.677 1372.12 126.809 1368.62 123.167Z" fill="white" fill-opacity="0.26"/>
<path fill-rule="evenodd" clip-rule="evenodd" d="M1354.55 125.208C1358.51 124.42 1362.29 123.829 1365.82 123.315C1369.43 126.918 1373.09 130.86 1376.69 134.709C1373.36 135.504 1369.76 136.36 1366.17 137.545C1362.22 133.206 1358.46 129.177 1354.55 125.208H1354.55Z" fill="white" fill-opacity="0.26"/>
<path fill-rule="evenodd" clip-rule="evenodd" d="M1340.08 127.77C1344.54 126.901 1348.93 125.918 1352.78 125.158C1356.72 129.303 1360.72 133.389 1364.49 137.625C1360.69 138.786 1356.67 140.054 1352.28 141.091C1348.26 136.619 1344.21 132.28 1340.08 127.772V127.77Z" fill="white" fill-opacity="0.26"/>
<path fill-rule="evenodd" clip-rule="evenodd" d="M1322.88 130.841C1328.04 129.943 1333.16 129.166 1337.58 127.892C1341.74 132.483 1346 137.113 1349.95 141.622C1345.56 142.892 1340.95 144.183 1336.07 145.412C1331.61 140.405 1327.34 135.665 1322.88 130.841H1322.88Z" fill="white" fill-opacity="0.26"/>
<path fill-rule="evenodd" clip-rule="evenodd" d="M1303.39 134.962C1309.46 133.709 1315.03 132.59 1320.27 131.4C1324.77 136.345 1329.32 141.284 1333.76 146.435C1328.29 147.949 1323.25 149.838 1317.46 151.316C1312.68 145.817 1307.95 140.341 1303.39 134.962Z" fill="white" fill-opacity="0.26"/>
<path fill-rule="evenodd" clip-rule="evenodd" d="M1280.87 140.117C1287.96 138.727 1294.25 137.414 1300.58 136.035C1305.31 141.465 1310.03 146.993 1314.76 152.397C1308.84 154.353 1302.57 156.267 1296 158.227C1290.79 151.887 1285.85 145.926 1280.87 140.117Z" fill="white" fill-opacity="0.26"/>
<path fill-rule="evenodd" clip-rule="evenodd" d="M1046.43 108.729C1050.89 105.161 1055.26 101.561 1059.26 98.2744C1065.71 101.927 1072.13 105.329 1078.62 109.186C1075 112.965 1071.42 116.927 1067.08 120.981C1060.09 116.847 1053.1 112.737 1046.43 108.729H1046.43Z" fill="white" fill-opacity="0.26"/>
<path fill-rule="evenodd" clip-rule="evenodd" d="M1265.43 101.406C1267.2 99.6178 1268.94 97.9537 1270.74 96.5293C1273.26 98.2892 1275.87 100.164 1278.46 101.948C1276.85 103.641 1275.34 105.459 1273.71 107.505C1270.93 105.424 1268.15 103.36 1265.42 101.406H1265.43Z" fill="white" fill-opacity="0.26"/>
<path fill-rule="evenodd" clip-rule="evenodd" d="M1335.72 35.3436C1336.41 34.2895 1337.04 33.1917 1337.63 32.0918C1339.89 33.9627 1342.3 35.9883 1344.68 37.9617C1344.31 39.2271 1343.78 40.3836 1343.19 41.623C1340.71 39.5386 1338.19 37.4193 1335.72 35.3436H1335.72Z" fill="white" fill-opacity="0.26"/>
<path fill-rule="evenodd" clip-rule="evenodd" d="M968.528 218.221C974.108 213.854 979.371 209.67 984.483 205.987C991.14 208.035 997.671 210.459 1004.52 212.772C999.555 216.797 994.663 221.147 989.637 225.834C982.488 223.146 975.175 220.724 968.526 218.219L968.528 218.221Z" fill="white" fill-opacity="0.26"/>
<path fill-rule="evenodd" clip-rule="evenodd" d="M1319.79 49.5096C1320.34 48.9063 1320.77 48.3182 1321.2 47.752C1322.67 48.8192 1324.15 49.8668 1325.58 50.9123C1325.25 51.5592 1324.91 52.3193 1324.52 52.9553C1322.94 51.8118 1321.42 50.6771 1319.79 49.5075V49.5096Z" fill="white" fill-opacity="0.26"/>
<path fill-rule="evenodd" clip-rule="evenodd" d="M1269.14 21.9072C1270.46 21.3431 1271.72 20.8443 1272.96 20.3848C1274.83 21.6589 1276.71 22.9766 1278.62 24.3662C1277.58 24.9957 1276.43 25.5555 1275.12 26.2786C1273.17 24.7561 1271.15 23.3338 1269.14 21.9094V21.9072Z" fill="white" fill-opacity="0.26"/>
<path fill-rule="evenodd" clip-rule="evenodd" d="M987.204 73.5946C992.459 71.434 997.343 69.5478 1001.98 67.7705C1007.99 70.2578 1013.67 72.6406 1019.11 75.1672C1014.91 77.2603 1010.5 79.4035 1005.56 82.0389C999.213 79.0833 993.049 76.1517 987.204 73.5946Z" fill="white" fill-opacity="0.26"/>
<path fill-rule="evenodd" clip-rule="evenodd" d="M1290.62 18.5405C1291.42 18.1637 1292.02 17.6693 1292.66 17.2969C1294.18 18.2944 1295.64 19.4205 1297.11 20.5073C1296.57 20.9843 1296.07 21.5484 1295.43 21.984C1293.96 20.8667 1292.29 19.684 1290.62 18.5405Z" fill="white" fill-opacity="0.26"/>
<path fill-rule="evenodd" clip-rule="evenodd" d="M1324.03 10.3115C1324.45 10.0022 1324.91 9.76482 1325.33 9.47949C1326.43 10.3311 1327.64 11.211 1328.69 12.0235C1328.33 12.3545 1328.01 12.6899 1327.69 13.0733C1326.48 12.165 1325.23 11.2394 1324.03 10.3115Z" fill="white" fill-opacity="0.26"/>
<path fill-rule="evenodd" clip-rule="evenodd" d="M1404.68 94.18C1404.85 93.7226 1405.09 93.2652 1405.21 92.8252C1406.09 93.4263 1406.91 94.1124 1407.79 94.7397C1407.72 95.2712 1407.6 95.7743 1407.48 96.2774C1406.49 95.5739 1405.61 94.8769 1404.68 94.18Z" fill="white" fill-opacity="0.26"/>
<path fill-rule="evenodd" clip-rule="evenodd" d="M964.492 144.497C968.232 142.708 971.26 141.02 974.454 139.404C979.144 140.731 983.634 141.931 988.11 143.229C985.365 144.886 982.256 146.818 978.966 148.648C974.064 147.315 969.263 145.864 964.492 144.497Z" fill="white" fill-opacity="0.26"/>
<path fill-rule="evenodd" clip-rule="evenodd" d="M1239.76 13.2559C1241.07 12.8682 1242.41 12.6025 1243.55 12.2061C1245.37 13.3974 1247.3 14.6346 1249.03 15.7824C1247.93 16.2659 1246.9 16.6776 1245.68 17.1306C1243.87 15.8826 1241.74 14.5061 1239.76 13.2559Z" fill="white" fill-opacity="0.26"/>
<path fill-rule="evenodd" clip-rule="evenodd" d="M1308.87 19.8837C1309.63 19.6441 1310.38 19.4742 1311.07 19.2607C1312.25 20.1058 1313.58 21.0337 1314.81 21.87C1314.11 22.1183 1313.46 22.3492 1312.76 22.6019C1311.43 21.6784 1310.2 20.8093 1308.87 19.8837H1308.87Z" fill="white" fill-opacity="0.26"/>
<path fill-rule="evenodd" clip-rule="evenodd" d="M1436.53 117.498C1436.75 117.149 1436.91 116.875 1437.12 116.526C1437.82 117.001 1438.51 117.48 1439.15 117.927C1438.99 118.286 1438.89 118.624 1438.67 118.916C1437.98 118.465 1437.22 117.979 1436.53 117.498Z" fill="white" fill-opacity="0.26"/>
<path fill-rule="evenodd" clip-rule="evenodd" d="M1326.71 39.3162C1327.46 39.0679 1328.17 38.7826 1328.87 38.5996C1329.98 39.351 1331.19 40.1569 1332.36 40.9062C1331.66 41.1545 1330.96 41.4158 1330.3 41.712C1329.14 40.9214 1327.92 40.1264 1326.71 39.3162Z" fill="white" fill-opacity="0.26"/>
<path fill-rule="evenodd" clip-rule="evenodd" d="M1208.96 49.7105C1210.6 49.2814 1212.17 48.8436 1213.69 48.4385C1215.68 49.5123 1217.62 50.5338 1219.72 51.6576C1218.17 52.0127 1216.64 52.4984 1215.12 52.9492C1213.14 51.8428 1210.97 50.745 1208.96 49.7105Z" fill="white" fill-opacity="0.26"/>
<path fill-rule="evenodd" clip-rule="evenodd" d="M1345.03 56.325C1345.74 56.0788 1346.45 55.7543 1347.09 55.4951C1348.18 56.2204 1349.16 56.8847 1350.19 57.5926C1349.6 57.867 1349.01 58.1763 1348.36 58.5074C1347.27 57.7538 1346.17 57.096 1345.03 56.3228V56.325Z" fill="white" fill-opacity="0.26"/>
<path fill-rule="evenodd" clip-rule="evenodd" d="M1336.12 27.4944C1336.74 27.3354 1337.34 27.2744 1337.95 27.1611C1338.84 27.771 1339.78 28.4527 1340.68 29.0255C1340.18 29.1344 1339.57 29.2913 1339.06 29.4655C1338.06 28.7794 1337.12 28.1173 1336.12 27.4966V27.4944Z" fill="white" fill-opacity="0.26"/>
<path fill-rule="evenodd" clip-rule="evenodd" d="M885 184.627C889.992 183.124 895.27 181.341 900.605 179.792C905.547 180.851 910.884 181.604 915.902 182.53C911.105 183.998 905.91 185.718 901.111 187.424C895.504 186.481 890.318 185.612 885 184.629V184.627Z" fill="white" fill-opacity="0.26"/>
<path fill-rule="evenodd" clip-rule="evenodd" d="M1428.14 114.32C1428.48 114.069 1428.82 113.81 1429.04 113.57C1429.66 113.971 1430.35 114.428 1430.92 114.794C1430.7 115.062 1430.43 115.291 1430.15 115.578C1429.46 115.115 1428.83 114.727 1428.14 114.322V114.32Z" fill="white" fill-opacity="0.26"/>
<path fill-rule="evenodd" clip-rule="evenodd" d="M1131.53 87.6233C1134.02 87.0178 1136.68 86.6563 1139.21 86.1074C1141.71 86.9765 1143.99 87.7366 1146.22 88.6296C1143.92 89.0521 1141.43 89.6468 1138.83 90.2414C1136.4 89.344 1133.9 88.4815 1131.53 87.6233H1131.53Z" fill="white" fill-opacity="0.26"/>
<path fill-rule="evenodd" clip-rule="evenodd" d="M1140.02 132.749C1142.26 131.348 1144.48 129.954 1146.71 128.741C1149.83 129.941 1153.02 131.353 1156.22 132.714C1154.15 134.097 1152.08 135.445 1150 137.018C1146.52 135.441 1143.23 134.119 1140.02 132.747V132.749Z" fill="white" fill-opacity="0.26"/>
<path fill-rule="evenodd" clip-rule="evenodd" d="M1435.23 125.74C1435.44 125.123 1435.59 124.494 1435.75 123.956C1436.63 124.586 1437.57 125.282 1438.51 126.008C1438.41 126.637 1438.32 127.352 1438.17 127.996C1437.22 127.254 1436.22 126.498 1435.23 125.738V125.74Z" fill="white" fill-opacity="0.26"/>
<path fill-rule="evenodd" clip-rule="evenodd" d="M1194.31 77.0256C1196.33 75.8712 1198.19 74.841 1199.92 73.8369C1202.58 75.3115 1205.35 76.8775 1208.12 78.4718C1206.38 79.5412 1204.83 80.8263 1202.88 81.9306C1199.94 80.2774 1197.13 78.633 1194.31 77.0256Z" fill="white" fill-opacity="0.26"/>
</g>
<g opacity="0.35" clip-path="url(#clip2_28_848)">
<path fill-rule="evenodd" clip-rule="evenodd" d="M115.016 4.90439C115.364 4.40589 115.867 4.58716 115.554 2.43005C114.382 -1.10291 115.875 3.0935 115.736 2.49349C115.563 3.5358 114.923 3.02824 114.532 2.97205C114.652 3.43972 114.814 4.19381 115.016 4.90439Z" fill="white" fill-opacity="0.26"/>
<path fill-rule="evenodd" clip-rule="evenodd" d="M40.6071 221.082C37.8974 216.578 35.6871 211.623 33.5186 207.204C32.3651 208.984 29.0596 228.462 24.4931 259H34.3732C37.3654 236.583 39.5903 222.681 40.6071 221.082Z" fill="white" fill-opacity="0.26"/>
<path fill-rule="evenodd" clip-rule="evenodd" d="M32.1465 208.161C29.9561 203.979 27.9207 199.996 25.8616 196.971C24.7409 198.593 20.7411 222.466 15.2416 259H24.1724C28.1685 229.012 31.0732 209.877 32.1465 208.161Z" fill="white" fill-opacity="0.26"/>
<path fill-rule="evenodd" clip-rule="evenodd" d="M24.8757 195.757C23.0298 193.126 21.2677 190.629 19.5275 188.254C17.4665 200.172 15.3801 211.933 13.3774 223.622C11.3402 235.491 9.33025 247.301 7.37317 258.975L7.50437 258.998H15.5331C18.5253 238.226 21.7032 217.074 24.8757 195.755V195.757Z" fill="white" fill-opacity="0.26"/>
<path fill-rule="evenodd" clip-rule="evenodd" d="M18.8041 187.017C17.2624 184.558 15.7919 182.37 14.3924 180.309C11.7393 193.393 9.08972 206.334 6.53859 219.026C3.96377 231.847 1.43633 244.522 -1 256.95V257.459C1.31424 257.896 3.69226 258.329 6.13405 258.724C8.12576 246.958 10.2323 235.007 12.357 222.952C14.4453 211.101 16.6684 199.135 18.8041 187.017Z" fill="white" fill-opacity="0.26"/>
<path fill-rule="evenodd" clip-rule="evenodd" d="M13.6963 179.395C12.377 177.425 11.3384 175.436 10.42 173.324C7.19095 187.393 3.92368 201.338 0.900592 215.063L-1 223.694V251.502C1.15753 240.646 3.39706 229.632 5.66027 218.504C8.26971 205.659 10.9684 192.57 13.6982 179.397L13.6963 179.395Z" fill="white" fill-opacity="0.26"/>
<path fill-rule="evenodd" clip-rule="evenodd" d="M9.74755 172.527C8.62869 170.758 7.62464 169.077 6.73904 167.227C4.13871 177.769 1.54566 188.221 -1 198.57V219.447L0.0933416 214.6C3.19661 200.83 6.44201 186.753 9.74755 172.529V172.527Z" fill="white" fill-opacity="0.26"/>
<path fill-rule="evenodd" clip-rule="evenodd" d="M6.24339 166.457C5.35778 164.995 4.7528 163.279 4.15146 161.571C2.41487 168.075 0.698324 174.541 -1 180.964V195.57C1.39806 185.97 3.83257 176.26 6.24339 166.458V166.457Z" fill="white" fill-opacity="0.26"/>
<path fill-rule="evenodd" clip-rule="evenodd" d="M3.50457 161.112C2.90505 159.628 2.36385 158.105 1.97936 156.635L-1 167.235V178.03C0.486944 172.422 1.98847 166.779 3.50457 161.112Z" fill="white" fill-opacity="0.26"/>
<path fill-rule="evenodd" clip-rule="evenodd" d="M1.73518 155.469C1.25411 154.037 0.873258 152.667 0.541611 151.439L-1 156.705V165.174L1.73518 155.469Z" fill="white" fill-opacity="0.26"/>
<path fill-rule="evenodd" clip-rule="evenodd" d="M0.435922 150.674C0.158942 149.376 0.0350299 148.071 -0.139905 146.812L-1 149.667V155.547L0.435922 150.674Z" fill="white" fill-opacity="0.26"/>
<path fill-rule="evenodd" clip-rule="evenodd" d="M-0.0724819 141.468C-0.0597262 140.417 0.160764 139.189 0.381255 137.89L-1 142.324V144.446L-0.0724819 141.468Z" fill="white" fill-opacity="0.26"/>
<path fill-rule="evenodd" clip-rule="evenodd" d="M0.403122 137.558C0.610856 136.451 0.960726 135.385 1.36344 134.176L-0.998178 141.778V142.03L0.404944 137.558H0.403122Z" fill="white" fill-opacity="0.26"/>
<path fill-rule="evenodd" clip-rule="evenodd" d="M1.59304 133.461C2.0814 132.41 2.62078 131.258 2.99799 130.359C1.66958 134.665 0.333877 138.97 -1 143.266V141.801C-0.128971 139.022 0.738413 136.245 1.59304 133.461Z" fill="white" fill-opacity="0.26"/>
<path fill-rule="evenodd" clip-rule="evenodd" d="M3.41346 129.674C3.98564 128.676 4.74733 127.552 5.50538 126.491C3.33328 133.599 1.1557 140.703 -1.00182 147.787V143.98C0.474189 139.213 1.95202 134.436 3.41163 129.674H3.41346Z" fill="white" fill-opacity="0.26"/>
<path fill-rule="evenodd" clip-rule="evenodd" d="M116.662 259C111.408 253.895 106.415 249.146 101.678 244.299C98.762 249.09 95.7134 254.033 92.672 259H116.662Z" fill="white" fill-opacity="0.26"/>
<path fill-rule="evenodd" clip-rule="evenodd" d="M98.9733 241.85C93.5504 236.151 88.5192 231.427 83.785 227.063C78.4367 234.434 73.4803 241.589 68.2504 249.519C70.5884 252.383 72.9755 255.599 75.4738 259.001H88.2513C91.852 253.116 95.4236 247.426 98.9733 241.85Z" fill="white" fill-opacity="0.26"/>
<path fill-rule="evenodd" clip-rule="evenodd" d="M81.5673 224.727C76.8769 220.539 72.7459 216.559 68.7351 212.729C64.0465 219.013 59.2358 225.717 54.5454 232.329C58.1261 236.906 62.0785 241.587 66.1439 246.758C71.3118 239.285 76.261 232.039 81.5673 224.727Z" fill="white" fill-opacity="0.26"/>
<path fill-rule="evenodd" clip-rule="evenodd" d="M66.7926 210.967C63.0935 207.727 59.5474 204.439 56.2273 201.385C52.0708 206.89 47.7594 212.237 43.3915 217.942C46.4328 221.696 49.5342 225.659 52.8398 230.116C57.4956 223.697 62.2024 217.076 66.7945 210.967H66.7926Z" fill="white" fill-opacity="0.26"/>
<path fill-rule="evenodd" clip-rule="evenodd" d="M44.7035 190.148C42.1578 187.627 39.6523 185.377 37.2323 183.202C33.8011 187.264 30.0527 191.733 26.6324 196.052C28.5712 198.659 30.8217 201.443 33.0649 204.616C36.9608 199.515 40.7656 195.066 44.7035 190.148Z" fill="white" fill-opacity="0.26"/>
<path fill-rule="evenodd" clip-rule="evenodd" d="M35.8256 182.455C33.6626 180.338 31.4741 178.417 29.5717 176.271C26.503 179.89 23.2849 183.621 20.2946 187.241C21.9255 189.686 23.7441 192.137 25.6429 194.749C28.9612 190.681 32.4982 186.438 35.8256 182.455Z" fill="white" fill-opacity="0.26"/>
<path fill-rule="evenodd" clip-rule="evenodd" d="M28.194 175.034C26.4356 173.089 24.75 171.318 23.1355 169.558C20.3311 172.75 17.4392 176.123 14.7806 179.268C16.0689 181.286 17.5905 183.331 19.1849 185.582C22.1734 182 25.335 178.413 28.1959 175.034H28.194Z" fill="white" fill-opacity="0.26"/>
<path fill-rule="evenodd" clip-rule="evenodd" d="M22.1205 168.577C20.5844 167.068 19.2177 165.499 17.7581 164.043C15.3291 166.778 12.767 169.581 10.3343 172.316C11.3584 174.287 12.5556 176.223 13.6562 178.305C16.4771 175.137 19.42 171.778 22.1205 168.577Z" fill="white" fill-opacity="0.26"/>
<path fill-rule="evenodd" clip-rule="evenodd" d="M17.1914 163.282C15.9067 161.897 14.7368 160.289 13.7291 158.857C11.4677 161.297 9.34119 163.701 6.9249 166.299C7.91802 168.05 8.92208 169.705 9.98444 171.503C12.3588 168.853 14.8134 166.103 17.1932 163.282H17.1914Z" fill="white" fill-opacity="0.26"/>
<path fill-rule="evenodd" clip-rule="evenodd" d="M13.0804 157.73C11.9871 156.455 11.0486 155.246 10.0683 153.999C7.97087 156.274 5.90081 158.614 4.08951 160.608C4.69267 162.183 5.51267 163.663 6.17779 165.356C8.43189 162.814 10.7698 160.198 13.0822 157.73H13.0804Z" fill="white" fill-opacity="0.26"/>
<path fill-rule="evenodd" clip-rule="evenodd" d="M9.67648 153.606C8.80727 152.364 8.09842 151.017 7.33855 149.928C5.66938 151.664 3.98382 153.586 2.34016 155.442C2.82852 156.883 3.26585 158.415 3.86355 159.899C5.78054 157.788 7.68842 155.674 9.67648 153.606Z" fill="white" fill-opacity="0.26"/>
<path fill-rule="evenodd" clip-rule="evenodd" d="M7.01602 149.191C6.26343 148.148 5.81516 146.945 5.37054 145.826C3.92186 147.34 2.41123 148.924 0.995348 150.47C1.27233 151.794 1.7042 153.097 1.97753 154.658C3.61755 152.883 5.40698 150.885 7.01784 149.191H7.01602Z" fill="white" fill-opacity="0.26"/>
<path fill-rule="evenodd" clip-rule="evenodd" d="M5.04436 145.341C4.70542 144.176 4.31182 143.195 3.97288 142.097C2.68638 143.438 1.54202 144.752 0.191742 146.17C0.370321 147.373 0.545256 148.671 0.822236 149.924C2.29096 148.307 3.69955 146.775 5.04436 145.343V145.341Z" fill="white" fill-opacity="0.26"/>
<path fill-rule="evenodd" clip-rule="evenodd" d="M3.81435 141.313C3.62484 140.238 3.3843 139.286 3.34603 138.149C2.16887 139.424 1.14113 140.539 0.162587 141.575C0.03503 142.917 0.066008 144.091 0.137075 145.406C1.28144 144.159 2.62807 142.647 3.81435 141.314V141.313Z" fill="white" fill-opacity="0.26"/>
<path fill-rule="evenodd" clip-rule="evenodd" d="M21.1511 111.771C22.638 110.971 24.0339 110.219 25.5646 109.606C25.5627 109.826 25.6083 109.958 25.7468 109.944C24.1213 110.705 22.3993 111.713 21.0472 112.436C21.0527 112.141 21.0527 112.055 21.1511 111.771Z" fill="white" fill-opacity="0.26"/>
<path fill-rule="evenodd" clip-rule="evenodd" d="M3.16381 134.29C3.36425 133.267 3.51003 132.287 3.74692 131.426C3.14559 132.02 2.34016 132.89 1.68051 133.637C1.327 134.794 0.977126 135.925 0.618145 137.096C1.58757 136.068 2.30371 135.245 3.16199 134.29H3.16381Z" fill="white" fill-opacity="0.26"/>
<path fill-rule="evenodd" clip-rule="evenodd" d="M4.02208 130.65C4.35737 129.704 4.73458 128.743 5.11178 127.818C4.51226 128.509 4.06035 129.107 3.45901 129.774C2.83216 130.884 2.34562 131.939 1.85362 133.101C2.61714 132.201 3.22212 131.502 4.0239 130.65H4.02208Z" fill="white" fill-opacity="0.26"/>
<path fill-rule="evenodd" clip-rule="evenodd" d="M11.1288 119.46C11.9962 118.555 12.9055 117.723 13.8585 116.977C13.6162 117.314 13.372 117.667 13.177 117.952C12.1237 118.889 11.1179 119.759 10.1539 120.655C10.4947 120.279 10.6915 119.998 11.1288 119.46Z" fill="white" fill-opacity="0.26"/>
<path fill-rule="evenodd" clip-rule="evenodd" d="M170.669 250.556C161.491 244.377 153.544 238.524 145.251 233.144C140.305 241.536 135.165 249.833 129.973 259.002H166.152C167.644 256.156 169.149 253.341 170.669 250.556Z" fill="white" fill-opacity="0.26"/>
<path fill-rule="evenodd" clip-rule="evenodd" d="M141.533 230.76C134.239 225.617 127.417 220.692 121.103 216.179C115.807 224.062 110.563 231.917 105.34 240.257C111.47 245.932 117.744 252.251 124.915 258.387C130.412 248.724 136.127 239.704 141.533 230.76Z" fill="white" fill-opacity="0.26"/>
<path fill-rule="evenodd" clip-rule="evenodd" d="M118.081 214.074C112.031 210.572 106.678 206.709 101.472 203.112C96.6682 209.544 91.7062 216.287 86.9101 223.322C91.7937 227.899 96.803 232.571 102.417 237.929C107.767 229.536 112.768 221.629 118.081 214.074Z" fill="white" fill-opacity="0.26"/>
<path fill-rule="evenodd" clip-rule="evenodd" d="M99.1009 201.2C94.0861 197.97 89.5141 194.696 85.1098 191.946C80.7018 197.451 76.0113 203.693 71.5341 210.059C75.6341 213.661 80.0039 217.175 84.7198 221.211C89.3355 214.489 94.2647 207.809 99.1009 201.2Z" fill="white" fill-opacity="0.26"/>
<path fill-rule="evenodd" clip-rule="evenodd" d="M83.0105 190.605C78.8157 188.116 75.0255 185.466 71.2662 183.302C67.086 188.216 63.0789 193.326 58.8094 198.817C62.166 201.742 65.8597 204.726 69.5661 208.042C73.9978 202.228 78.5916 196.07 83.0105 190.605Z" fill="white" fill-opacity="0.26"/>
<path fill-rule="evenodd" clip-rule="evenodd" d="M33.0157 106.803C32.0408 106.704 31.1588 106.599 30.3716 106.446C28.7571 108.036 27.2756 109.519 25.6939 111.027C26.483 111.136 27.2264 111.393 28.0647 111.589C29.6937 110.052 31.2663 108.453 33.0157 106.803Z" fill="white" fill-opacity="0.26"/>
<path fill-rule="evenodd" clip-rule="evenodd" d="M58.1206 174.434C55.1522 172.659 52.4644 170.779 49.7019 169.054C46.2797 173.121 42.7555 177.209 39.2969 181.366C41.7624 183.35 44.319 185.547 47.0706 187.755C50.7132 183.274 54.3668 178.891 58.1206 174.434Z" fill="white" fill-opacity="0.26"/>
<path fill-rule="evenodd" clip-rule="evenodd" d="M48.1603 168.5C45.6984 166.773 43.2147 165.218 40.8531 163.628C37.9138 167.016 34.8397 170.56 31.8895 174.138C33.8976 176.141 36.0315 178.039 38.251 180.104C41.5109 176.335 44.8311 172.41 48.1603 168.5Z" fill="white" fill-opacity="0.26"/>
<path fill-rule="evenodd" clip-rule="evenodd" d="M39.3826 162.688C37.1649 161.341 35.3791 159.766 33.4075 158.482C30.6067 161.608 27.7804 164.7 25.1309 167.783C26.7454 169.473 28.5366 171.122 30.4573 172.973C33.5095 169.253 36.4889 165.907 39.3807 162.688H39.3826Z" fill="white" fill-opacity="0.26"/>
<path fill-rule="evenodd" clip-rule="evenodd" d="M32.2922 157.625C30.4445 156.331 28.7662 155.018 27.0023 154.005C24.555 156.655 21.9839 159.414 19.3835 162.516C20.7903 163.977 22.2645 165.403 23.91 167.064C26.6123 164.004 29.4915 160.679 32.2922 157.625Z" fill="white" fill-opacity="0.26"/>
<path fill-rule="evenodd" clip-rule="evenodd" d="M26.3791 153.449C24.8338 152.221 23.3505 151.188 22.0786 149.999C19.8373 152.426 17.5249 154.942 15.2926 157.306C16.457 158.68 17.6305 160.199 19.0227 161.687C21.4627 158.832 23.93 156.14 26.3791 153.447V153.449Z" fill="white" fill-opacity="0.26"/>
<path fill-rule="evenodd" clip-rule="evenodd" d="M21.1693 149.184C19.8118 148.3 18.7166 147.12 17.6269 146.106C15.4894 148.332 13.3319 150.674 11.2072 153.058C12.3461 154.091 13.2317 155.471 14.2794 156.727C16.5135 154.249 18.9298 151.632 21.1693 149.186V149.184Z" fill="white" fill-opacity="0.26"/>
<path fill-rule="evenodd" clip-rule="evenodd" d="M17.0292 145.788C15.8466 144.927 15.0739 143.779 14.1045 142.795C12.275 144.698 10.3817 146.725 8.6287 148.657C9.49244 149.738 10.256 150.945 11.127 152.192C13.0932 150.051 15.0448 147.905 17.0292 145.788Z" fill="white" fill-opacity="0.26"/>
<path fill-rule="evenodd" clip-rule="evenodd" d="M8.73438 136.273C8.33896 135.33 7.98909 134.493 7.68842 133.628C6.4329 134.955 5.32316 136.129 4.15875 137.373C4.34826 138.381 4.64164 139.309 4.73093 140.489C6.15592 139.019 7.42784 137.634 8.73621 136.274L8.73438 136.273Z" fill="white" fill-opacity="0.26"/>
<path fill-rule="evenodd" clip-rule="evenodd" d="M7.36406 133.324C7.26384 132.316 6.96135 131.625 6.90668 130.782C5.9573 131.772 4.95324 132.841 3.99657 133.884C3.94737 134.844 4.0403 135.849 4.13688 136.806C5.20107 135.64 6.25979 134.455 7.36406 133.324Z" fill="white" fill-opacity="0.26"/>
<path fill-rule="evenodd" clip-rule="evenodd" d="M7.05428 127.473C7.13264 126.845 7.36224 125.921 7.53353 125.227C6.89211 125.935 6.19601 126.735 5.60196 127.387C5.13 128.368 4.80018 129.3 4.51409 130.242C5.3596 129.381 6.16139 128.435 7.05246 127.474L7.05428 127.473Z" fill="white" fill-opacity="0.26"/>
<path fill-rule="evenodd" clip-rule="evenodd" d="M8.67243 122.734C9.02594 122.124 9.57261 121.211 10.3088 120.303C9.91701 120.816 9.42683 121.369 9.22639 121.764C8.34442 122.821 7.69935 123.662 7.00144 124.613C7.49709 124.024 8.13487 123.339 8.67425 122.734H8.67243Z" fill="white" fill-opacity="0.26"/>
<path fill-rule="evenodd" clip-rule="evenodd" d="M13.6435 116.439C14.3159 115.697 15.0284 115.039 15.6899 114.45C15.2598 115.007 14.8753 115.534 14.4471 115.991C13.6362 116.743 12.8217 117.557 12.1037 118.208C12.6832 117.561 13.115 117.071 13.6453 116.439H13.6435Z" fill="white" fill-opacity="0.26"/>
<path fill-rule="evenodd" clip-rule="evenodd" d="M11.8923 120.192C12.0053 119.626 12.2604 119.017 12.3734 118.446C11.6955 119.246 10.9684 120.049 10.2888 120.772C10.0336 121.434 9.67648 122.157 9.41226 122.871C10.194 122.039 11.0687 121.149 11.8923 120.192Z" fill="white" fill-opacity="0.26"/>
<path fill-rule="evenodd" clip-rule="evenodd" d="M322.394 163.686C307.43 160.535 293.679 157.43 280.729 154.476C275.738 162.526 270.643 170.213 265.872 178.463C278.434 181.96 292.294 186.466 307.641 191.056C312.634 181.556 317.474 172.568 322.396 163.686H322.394Z" fill="white" fill-opacity="0.26"/>
<path fill-rule="evenodd" clip-rule="evenodd" d="M236.095 154.596C225.648 152.279 216.457 149.995 207.309 148.268C202.823 154.344 197.937 160.637 193.066 167.236C201.992 169.947 211.36 172.859 221.428 176.08C226.118 168.844 231.224 161.411 236.095 154.594V154.596Z" fill="white" fill-opacity="0.26"/>
<path fill-rule="evenodd" clip-rule="evenodd" d="M223.804 107.304C215.483 106.97 207.699 106.466 200.188 106.067C195.962 110.683 191.825 115.183 187.849 119.86C195.135 120.522 202.872 121.363 211.103 122.567C215.21 117.295 219.31 112.191 223.804 107.304Z" fill="white" fill-opacity="0.26"/>
<path fill-rule="evenodd" clip-rule="evenodd" d="M268.011 259C257.346 253.342 247.365 247.991 237.966 242.834C235.28 248.114 232.589 253.5 229.928 259H268.01H268.011Z" fill="white" fill-opacity="0.26"/>
<path fill-rule="evenodd" clip-rule="evenodd" d="M231.581 239.523C219.336 233.01 208.546 226.731 197.99 221.111C192.452 230.693 186.78 240.998 181.134 251.284C184.589 253.84 188.106 256.403 191.712 259H222.076C225.293 252.344 228.454 245.875 231.581 239.523Z" fill="white" fill-opacity="0.26"/>
<path fill-rule="evenodd" clip-rule="evenodd" d="M193.106 218.589C183.549 213.898 174.726 209.54 166.62 205.221C161.398 213.151 155.834 221.664 150.81 230.446C158.706 235.917 167.2 241.531 176.539 247.578C181.934 237.449 187.567 228.039 193.106 218.589Z" fill="white" fill-opacity="0.26"/>
<path fill-rule="evenodd" clip-rule="evenodd" d="M162.183 204.017C154.287 199.979 147.091 196.448 140.269 193.074C135.566 199.759 130.604 206.677 125.616 213.712C132.167 218.175 139.339 223.094 146.893 228.27C152.075 219.54 157.074 211.818 162.183 204.016V204.017Z" fill="white" fill-opacity="0.26"/>
<path fill-rule="evenodd" clip-rule="evenodd" d="M136.061 190.614C129.756 187.706 123.803 184.871 118.165 182.051C113.666 187.817 109.147 193.902 104.622 200.154C109.96 203.85 115.545 207.381 121.642 210.907C126.367 204.222 131.252 197.381 136.061 190.616V190.614Z" fill="white" fill-opacity="0.26"/>
<path fill-rule="evenodd" clip-rule="evenodd" d="M114.905 180.399C109.781 177.502 104.876 175.365 100.008 173.248C95.7735 178.639 91.4275 184.148 86.9612 189.715C91.5641 192.298 96.3767 195.296 101.227 198.626C105.721 192.464 110.415 186.289 114.905 180.399Z" fill="white" fill-opacity="0.26"/>
<path fill-rule="evenodd" clip-rule="evenodd" d="M97.8782 172.656C93.554 170.562 89.2845 168.594 85.128 166.852C81.4471 171.496 77.5529 176.124 73.7098 180.753C77.4837 183.09 81.4799 185.606 85.5325 188.303C89.7018 183.003 93.9112 177.699 97.8763 172.656H97.8782Z" fill="white" fill-opacity="0.26"/>
<path fill-rule="evenodd" clip-rule="evenodd" d="M70.408 159.918C66.973 158.671 63.9736 157.273 60.9943 155.897C57.789 159.508 54.4561 163.301 51.3856 166.873C54.0917 168.619 56.723 170.499 59.952 172.154C63.3377 168.081 66.8364 163.966 70.408 159.916V159.918Z" fill="white" fill-opacity="0.26"/>
<path fill-rule="evenodd" clip-rule="evenodd" d="M59.4108 155.252C56.5171 153.881 53.904 152.517 51.3328 151.507C48.348 154.746 45.5855 157.9 42.4968 161.402C44.8511 162.934 47.2747 164.413 49.7802 166.108C53.0621 162.43 56.1453 158.81 59.4108 155.252Z" fill="white" fill-opacity="0.26"/>
<path fill-rule="evenodd" clip-rule="evenodd" d="M50.0518 151.003C47.7065 149.899 45.5782 148.753 43.3696 147.796C40.5652 150.798 37.779 153.743 35.2844 156.716C37.1048 158.058 39.2459 159.343 41.3561 160.722C44.3518 157.407 47.2182 154.195 50.0499 151.003H50.0518Z" fill="white" fill-opacity="0.26"/>
<path fill-rule="evenodd" clip-rule="evenodd" d="M41.7606 147.378C39.6213 146.417 37.7025 145.512 35.8438 144.476C33.6207 146.877 30.9821 149.7 28.7243 152.283C30.3352 153.448 32.1647 154.609 34.0143 155.923C36.5144 153.021 39.2003 150.162 41.7606 147.378Z" fill="white" fill-opacity="0.26"/>
<path fill-rule="evenodd" clip-rule="evenodd" d="M34.8161 143.952C33.0303 143.158 31.2499 142.373 29.6828 141.573C27.5034 143.886 25.4078 146.174 23.2412 148.434C24.6134 149.471 26.1969 150.428 27.6911 151.708C30.0509 149.043 32.3415 146.498 34.8161 143.953V143.952Z" fill="white" fill-opacity="0.26"/>
<path fill-rule="evenodd" clip-rule="evenodd" d="M29.2254 141.131C27.6674 140.39 26.319 139.561 24.8302 138.891C22.9442 140.823 20.947 142.949 18.9353 145.037C20.178 145.969 21.3789 147.021 22.7364 148.092C24.8502 145.766 27.046 143.491 29.2254 141.131Z" fill="white" fill-opacity="0.26"/>
<path fill-rule="evenodd" clip-rule="evenodd" d="M24.1869 138.238C23.0025 137.362 21.8271 136.539 20.6555 135.921C18.7239 137.947 16.9764 139.789 15.2161 141.667C16.1363 142.657 17.1622 143.576 18.2446 144.555C20.2564 142.394 22.2517 140.335 24.1869 138.236V138.238Z" fill="white" fill-opacity="0.26"/>
<path fill-rule="evenodd" clip-rule="evenodd" d="M19.9739 135.479C18.9079 134.899 17.8966 134.29 17.0347 133.528C15.3983 135.259 13.9041 136.826 12.1474 138.7C12.9055 139.543 13.669 140.366 14.5346 141.216C16.293 139.389 18.0387 137.591 19.9739 135.479Z" fill="white" fill-opacity="0.26"/>
<path fill-rule="evenodd" clip-rule="evenodd" d="M183.164 129.113C176.2 128.155 169.563 127.338 163.121 126.33C159.103 131.15 155.056 135.798 150.796 140.636C156.935 141.93 163.47 143.152 170.43 144.87C174.705 139.479 178.991 134.29 183.166 129.113H183.164Z" fill="white" fill-opacity="0.26"/>
<path fill-rule="evenodd" clip-rule="evenodd" d="M53.9204 104.297C52.0252 104.311 50.2285 104.315 48.5302 104.344C46.5403 106.338 44.4885 108.283 42.5697 110.219C44.2279 110.19 45.6656 110.467 47.4806 110.532C49.5762 108.439 51.7063 106.351 53.9222 104.295L53.9204 104.297Z" fill="white" fill-opacity="0.26"/>
<path fill-rule="evenodd" clip-rule="evenodd" d="M53.6215 98.1025C51.9032 98.311 50.2741 98.4687 48.696 98.5974C46.7644 100.41 44.9185 102.152 43.1109 103.863C44.5632 103.872 46.0629 103.854 47.61 103.793C49.5488 101.947 51.6098 100 53.6215 98.1025Z" fill="white" fill-opacity="0.26"/>
<path fill-rule="evenodd" clip-rule="evenodd" d="M383.67 259C378.592 256.859 373.63 254.751 368.79 252.668C367.977 254.747 367.179 256.859 366.392 259H383.672H383.67Z" fill="white" fill-opacity="0.26"/>
<path fill-rule="evenodd" clip-rule="evenodd" d="M179.427 83.625C173.421 83.9386 167.717 84.2141 162.285 84.4715C158.936 87.7924 155.621 91.1604 152.203 94.3761C157.637 94.4088 163.074 94.3326 168.923 94.2529C172.316 90.6565 175.908 87.1398 179.425 83.625H179.427Z" fill="white" fill-opacity="0.26"/>
<path fill-rule="evenodd" clip-rule="evenodd" d="M296.052 222.08C280.767 215.834 266.75 210.31 253.411 205.204C248.214 214.804 242.651 225.12 237.578 236.172C250.673 243.013 264.389 249.96 279.723 257.392C284.907 245.383 290.507 233.484 296.05 222.08H296.052Z" fill="white" fill-opacity="0.26"/>
<path fill-rule="evenodd" clip-rule="evenodd" d="M209.512 188.045C199.841 184.452 190.635 181.256 182.1 178.111C177.129 185.219 172.063 192.754 167.136 200.373C175.294 204.546 184.279 208.784 193.462 213.071C198.812 204.678 204.151 196.039 209.51 188.047L209.512 188.045Z" fill="white" fill-opacity="0.26"/>
<path fill-rule="evenodd" clip-rule="evenodd" d="M150.825 167.892C144.143 165.631 138.046 163.567 132.24 161.44C128.031 166.621 123.626 172.25 119.401 178.036C124.929 180.704 130.981 183.535 137.091 186.461C141.508 180.033 146.266 173.734 150.827 167.892H150.825Z" fill="white" fill-opacity="0.26"/>
<path fill-rule="evenodd" clip-rule="evenodd" d="M128.924 160.413C123.389 158.557 118.205 156.916 113.236 155.417C109.074 160.328 105.034 165.313 100.872 170.27C105.599 172.288 110.415 174.314 115.625 176.836C120.139 171.046 124.463 165.47 128.924 160.413Z" fill="white" fill-opacity="0.26"/>
<path fill-rule="evenodd" clip-rule="evenodd" d="M111.095 154.872C106.488 153.387 102.018 151.926 97.6322 150.441C93.9786 154.77 90.3232 159.025 86.5876 163.438C90.6275 165.246 94.8933 167.274 99.2339 169.228C103.297 164.332 107.31 159.494 111.093 154.87L111.095 154.872Z" fill="white" fill-opacity="0.26"/>
<path fill-rule="evenodd" clip-rule="evenodd" d="M94.7348 149.561C90.8042 148.378 86.9539 147.239 83.4369 146.106C79.7633 150.198 76.2756 154.004 72.8352 158.096C76.1334 159.395 79.6831 160.869 83.57 162.725C87.2363 158.068 91.0994 153.705 94.7348 149.561Z" fill="white" fill-opacity="0.26"/>
<path fill-rule="evenodd" clip-rule="evenodd" d="M81.7131 145.74C78.1397 144.756 74.938 143.629 71.72 142.704C68.5675 146.107 65.3531 149.765 62.3573 153.308C65.2638 154.579 68.2523 155.991 71.7218 157.168C74.9435 153.49 78.3638 149.507 81.7113 145.74H81.7131Z" fill="white" fill-opacity="0.26"/>
<path fill-rule="evenodd" clip-rule="evenodd" d="M70.0071 142.153C66.9275 141.325 64.0283 140.607 61.2913 139.808C58.4031 142.956 55.431 146.054 52.6885 149.138C55.1941 150.089 57.9402 151.211 60.6663 152.558C63.7149 148.989 66.8528 145.594 70.0071 142.153Z" fill="white" fill-opacity="0.26"/>
<path fill-rule="evenodd" clip-rule="evenodd" d="M60.0303 139.413C57.4209 138.695 54.9244 137.933 52.5355 137.1C49.8659 139.973 47.1708 142.837 44.6543 145.63C46.7572 146.638 49.0787 147.639 51.4622 148.576C54.314 145.559 57.133 142.458 60.0321 139.413H60.0303Z" fill="white" fill-opacity="0.26"/>
<path fill-rule="evenodd" clip-rule="evenodd" d="M50.8973 136.811C48.5867 136.111 46.5348 135.323 44.5523 134.699C42.0977 137.159 39.6814 139.681 37.2925 142.126C39.0509 143.215 41.0663 144.2 43.2475 145.081C45.8187 142.264 48.3188 139.548 50.8991 136.811H50.8973Z" fill="white" fill-opacity="0.26"/>
<path fill-rule="evenodd" clip-rule="evenodd" d="M43.0945 134.58C41.1738 133.918 39.2641 133.362 37.4127 132.853C35.3882 134.97 33.1542 137.283 31.1005 139.532C32.7642 140.218 34.3878 140.997 36.17 141.758C38.4113 139.407 40.7365 137.044 43.0945 134.578V134.58Z" fill="white" fill-opacity="0.26"/>
<path fill-rule="evenodd" clip-rule="evenodd" d="M36.908 132.467C35.3099 131.814 33.7245 131.21 32.0954 130.674C30.1602 132.677 28.0701 134.917 26.1604 136.94C27.6 137.664 28.9958 138.434 30.4992 139.177C32.602 136.951 34.7905 134.761 36.9098 132.468L36.908 132.467Z" fill="white" fill-opacity="0.26"/>
<path fill-rule="evenodd" clip-rule="evenodd" d="M31.3538 130.222C29.8833 129.674 28.564 129.19 27.2009 128.775C25.3113 130.644 23.4599 132.471 21.6449 134.418C22.8622 135.004 24.0375 135.713 25.2675 136.488C27.2775 134.429 29.2728 132.297 31.352 130.222H31.3538Z" fill="white" fill-opacity="0.26"/>
<path fill-rule="evenodd" clip-rule="evenodd" d="M138.407 123.794C133.188 123.261 128.164 122.857 123.346 122.329C119.783 126.163 116.15 130.089 112.525 133.961C117.174 134.741 121.815 135.674 127.027 136.729C130.828 132.333 134.589 127.961 138.407 123.794Z" fill="white" fill-opacity="0.26"/>
<path fill-rule="evenodd" clip-rule="evenodd" d="M121.157 121.981C116.614 121.41 112.175 121.024 108.188 120.493C104.697 124.075 101.244 127.739 98.0021 131.326C101.949 132.091 106.022 132.863 110.421 133.566C113.912 129.809 117.593 125.803 121.157 121.981Z" fill="white" fill-opacity="0.26"/>
<path fill-rule="evenodd" clip-rule="evenodd" d="M106.209 120.274C102.066 119.875 98.3501 119.522 94.7457 119.176C91.6243 122.344 88.3497 125.741 85.2337 128.995C88.6996 129.648 92.2839 130.308 96.0578 131.107C99.3414 127.405 102.806 123.751 106.209 120.274Z" fill="white" fill-opacity="0.26"/>
<path fill-rule="evenodd" clip-rule="evenodd" d="M93.0456 118.98C89.5177 118.643 86.1685 118.438 82.9705 118.143C80.0421 121.097 76.9279 124.366 74.1016 127.273C77.1466 127.786 80.3391 128.167 83.6101 128.682C86.5967 125.566 89.9259 122.169 93.0474 118.98H93.0456Z" fill="white" fill-opacity="0.26"/>
<path fill-rule="evenodd" clip-rule="evenodd" d="M81.4052 118.028C78.3183 117.685 75.4337 117.267 72.5382 117.152C69.8176 119.859 67.0314 122.676 64.2816 125.587C66.8765 126.035 69.639 126.548 72.6183 127.1C75.4847 124.041 78.5242 120.977 81.4052 118.028Z" fill="white" fill-opacity="0.26"/>
<path fill-rule="evenodd" clip-rule="evenodd" d="M71.197 117.105C68.5001 116.848 66.0127 116.61 63.4889 116.443C60.8339 119.008 58.1662 121.648 55.8592 124.098C58.0714 124.541 60.4403 124.997 63.0571 125.326C65.7193 122.485 68.3689 119.802 71.1952 117.105H71.197Z" fill="white" fill-opacity="0.26"/>
<path fill-rule="evenodd" clip-rule="evenodd" d="M62.3537 116.358C59.9356 116.112 57.5794 115.954 55.4693 115.726C53.0293 118.1 50.6276 120.549 48.2532 122.915C50.2413 123.381 52.5209 123.618 54.662 123.933C57.1658 121.456 59.6458 118.923 62.3537 116.36V116.358Z" fill="white" fill-opacity="0.26"/>
<path fill-rule="evenodd" clip-rule="evenodd" d="M54.2538 115.764C52.1091 115.573 50.1119 115.383 48.2186 115.207C46.1449 117.353 43.96 119.512 41.7588 121.615C43.5682 121.919 45.4871 122.382 47.3148 122.79C49.5944 120.42 51.8631 118.171 54.2538 115.764Z" fill="white" fill-opacity="0.26"/>
<path fill-rule="evenodd" clip-rule="evenodd" d="M47.0578 115.082C45.2247 114.954 43.5865 114.74 41.9082 114.658C39.9092 116.556 37.9011 118.53 35.8839 120.533C37.4328 120.82 38.8906 121.166 40.5415 121.438C42.6954 119.33 44.9313 117.174 47.0578 115.081V115.082Z" fill="white" fill-opacity="0.26"/>
<path fill-rule="evenodd" clip-rule="evenodd" d="M40.946 114.487C39.368 114.297 37.9831 114.127 36.5107 113.998C34.5992 115.863 32.6767 117.671 30.7925 119.612C32.0863 119.926 33.4785 120.154 34.9236 120.52C36.8952 118.503 38.9507 116.471 40.9479 114.487H40.946Z" fill="white" fill-opacity="0.26"/>
<path fill-rule="evenodd" clip-rule="evenodd" d="M35.8912 113.964C34.5609 113.744 33.4239 113.463 32.243 113.24C30.5156 114.968 28.7334 116.719 27.128 118.341C28.1704 118.651 29.3584 118.95 30.4554 119.316C32.2449 117.527 34.12 115.711 35.8912 113.964Z" fill="white" fill-opacity="0.26"/>
<path fill-rule="evenodd" clip-rule="evenodd" d="M31.4905 113.089C30.4554 112.884 29.3293 112.822 28.3927 112.57C26.7563 114.184 25.109 115.782 23.5984 117.323C24.4421 117.608 25.2894 117.918 26.2807 118.184C27.9316 116.567 29.7174 114.892 31.4923 113.089H31.4905Z" fill="white" fill-opacity="0.26"/>
<path fill-rule="evenodd" clip-rule="evenodd" d="M19.7225 114.06C19.4036 113.788 19.1357 113.365 18.9079 113.064C17.8201 114.216 16.7322 115.229 15.8247 116.248C15.8083 116.748 15.9832 117.19 16.2037 117.618C17.3955 116.438 18.4906 115.31 19.7206 114.06H19.7225Z" fill="white" fill-opacity="0.26"/>
<path fill-rule="evenodd" clip-rule="evenodd" d="M40.9388 104.663C43.5409 104.112 46.0975 103.559 49.0331 102.979C49.7238 102.628 50.3743 102.466 51.2052 102.156C48.0892 102.918 45.2538 103.521 42.5132 104.168C41.8717 104.602 41.4435 104.402 40.9388 104.663Z" fill="white" fill-opacity="0.26"/>
<path fill-rule="evenodd" clip-rule="evenodd" d="M58.6545 101.758C62.3391 101.438 66.0674 101.448 70.1255 101.263C70.8872 101.192 71.7473 101.128 72.6366 100.858C68.398 101.263 64.5148 101.172 60.7683 101.397C59.8864 101.725 59.214 101.607 58.6545 101.759V101.758Z" fill="white" fill-opacity="0.26"/>
<path fill-rule="evenodd" clip-rule="evenodd" d="M132.512 109.416C127.812 109.116 123.149 108.95 118.938 108.678C115.563 112.055 112.228 115.49 108.974 118.987C113.138 119.405 117.575 119.81 121.994 120.323C125.478 116.559 129.082 112.825 132.51 109.414L132.512 109.416Z" fill="white" fill-opacity="0.26"/>
<path fill-rule="evenodd" clip-rule="evenodd" d="M116.89 108.561C112.684 108.494 108.691 108.408 104.943 108.247C101.902 111.369 98.556 114.637 95.6095 117.753C99.1555 118.101 103.008 118.371 106.986 118.695C110.207 115.293 113.602 111.854 116.89 108.562V108.561Z" fill="white" fill-opacity="0.26"/>
<path fill-rule="evenodd" clip-rule="evenodd" d="M103.137 108.232C99.4234 108.142 95.9338 108.147 92.4916 108.065C89.5688 110.848 86.6532 113.808 83.8214 116.857C87.0541 117.033 90.3979 117.267 93.8838 117.675C96.7848 114.573 100.085 111.29 103.139 108.23L103.137 108.232Z" fill="white" fill-opacity="0.26"/>
<path fill-rule="evenodd" clip-rule="evenodd" d="M90.8881 107.965C87.6099 107.898 84.554 107.956 81.5874 107.86C78.783 110.549 76.0551 113.228 73.4037 115.887C76.1972 116.01 79.1201 116.362 82.2507 116.701C85.1043 113.79 88.0181 110.782 90.8881 107.965Z" fill="white" fill-opacity="0.26"/>
<path fill-rule="evenodd" clip-rule="evenodd" d="M80.1569 107.794C77.2177 107.85 74.6592 107.712 71.9787 107.738C69.3365 110.288 66.7671 112.742 64.278 115.24C66.7507 115.463 69.331 115.674 72.0644 115.844C74.7139 113.138 77.409 110.578 80.1569 107.794Z" fill="white" fill-opacity="0.26"/>
<path fill-rule="evenodd" clip-rule="evenodd" d="M70.7524 107.647C68.1283 107.618 65.7503 107.609 63.376 107.523C60.9414 109.873 58.5871 112.195 56.2219 114.564C58.3429 114.974 60.6444 115.077 63.0534 115.244C65.6373 112.679 68.0627 110.201 70.7542 107.647H70.7524Z" fill="white" fill-opacity="0.26"/>
<path fill-rule="evenodd" clip-rule="evenodd" d="M62.268 107.551C60.0522 107.551 57.7999 107.65 55.8793 107.598C53.6561 109.677 51.3783 111.903 49.1279 114.035C51.0613 114.149 53.0512 114.31 55.1522 114.559C57.4245 112.204 59.8791 109.896 62.268 107.551Z" fill="white" fill-opacity="0.26"/>
<path fill-rule="evenodd" clip-rule="evenodd" d="M144.287 96.8896C139.343 96.9422 134.573 97.0129 130.115 97.1235C126.863 100.383 123.619 103.517 120.416 106.749C124.8 106.896 129.412 107.115 134.042 107.314C137.514 103.809 140.996 100.254 144.287 96.8915V96.8896Z" fill="white" fill-opacity="0.26"/>
<path fill-rule="evenodd" clip-rule="evenodd" d="M128.034 97.2705C123.683 97.285 119.472 97.4753 115.554 97.604C112.474 100.597 109.373 103.59 106.386 106.562C110.196 106.524 114.28 106.586 118.395 106.776C121.54 103.47 124.754 100.372 128.034 97.2705Z" fill="white" fill-opacity="0.26"/>
<path fill-rule="evenodd" clip-rule="evenodd" d="M113.573 97.6367C109.715 97.7129 105.98 97.8651 102.452 98.0228C99.6403 100.726 96.7775 103.514 93.9111 106.445C97.2914 106.468 100.836 106.535 104.491 106.591C107.47 103.575 110.572 100.526 113.571 97.6367H113.573Z" fill="white" fill-opacity="0.26"/>
<path fill-rule="evenodd" clip-rule="evenodd" d="M100.832 98.041C97.3224 98.2404 94.292 98.302 91.0903 98.4833C88.2476 101.124 85.6674 103.66 82.9358 106.3C85.9863 106.314 89.0895 106.282 92.4133 106.347C95.0993 103.541 97.9675 100.753 100.832 98.041Z" fill="white" fill-opacity="0.26"/>
<path fill-rule="evenodd" clip-rule="evenodd" d="M89.4485 98.6211C86.5329 98.6773 83.6775 98.7589 80.8366 98.9256C78.2053 101.462 75.687 103.869 73.2452 106.238C75.7908 106.367 78.5297 106.385 81.5108 106.32C84.1476 103.669 86.7862 101.186 89.4485 98.6211Z" fill="white" fill-opacity="0.26"/>
<path fill-rule="evenodd" clip-rule="evenodd" d="M79.4408 98.9697C76.6619 99.1601 74.2183 99.2652 71.873 99.3595C69.3893 101.647 66.8491 103.955 64.5732 106.192C66.8947 106.23 69.3219 106.306 71.9842 106.239C74.4278 103.879 76.9024 101.477 79.4408 98.9697Z" fill="white" fill-opacity="0.26"/>
<path fill-rule="evenodd" clip-rule="evenodd" d="M70.4116 99.6348C67.9407 99.8396 65.754 99.9538 63.5254 100.086C61.2531 102.236 58.8769 104.453 56.6811 106.672C58.7785 106.51 60.9852 106.481 63.2885 106.387C65.5717 104.241 67.8423 102.096 70.4116 99.6366V99.6348Z" fill="white" fill-opacity="0.26"/>
<path fill-rule="evenodd" clip-rule="evenodd" d="M138.512 86.8174C133.988 87.0748 129.705 87.2506 125.565 87.5878C122.497 90.5135 119.534 93.3449 116.538 96.3939C120.623 96.1184 124.709 96.0893 129.137 95.9606C132.145 92.9062 135.287 89.8573 138.51 86.8174H138.512Z" fill="white" fill-opacity="0.26"/>
<path fill-rule="evenodd" clip-rule="evenodd" d="M123.493 87.8789C119.441 88.0638 115.716 88.4118 111.959 88.807C109.103 91.4336 106.337 94.111 103.505 96.8373C107.155 96.5327 110.709 96.5237 114.655 96.4004C117.629 93.4928 120.618 90.5345 123.493 87.8789Z" fill="white" fill-opacity="0.26"/>
<path fill-rule="evenodd" clip-rule="evenodd" d="M110.224 88.9541C106.656 89.2296 103.349 89.5813 99.9993 89.9438C97.2878 92.3982 94.6692 94.9541 91.9413 97.5173C95.1703 97.1892 98.341 97.1221 101.887 96.8611C104.546 94.2925 107.372 91.6423 110.224 88.9541Z" fill="white" fill-opacity="0.26"/>
<path fill-rule="evenodd" clip-rule="evenodd" d="M98.3683 90.0615C95.2122 90.3425 92.2402 90.5129 89.29 90.7939C86.7425 93.1721 84.2697 95.5232 81.7423 97.9341C84.5813 97.7873 87.3821 97.6622 90.5254 97.5208C93.2114 94.9903 95.7006 92.5304 98.3683 90.0615Z" fill="white" fill-opacity="0.26"/>
<path fill-rule="evenodd" clip-rule="evenodd" d="M87.8231 90.9717C85.159 91.1475 82.5058 91.3995 79.7761 91.7856C77.3798 93.9735 74.98 96.2539 72.6493 98.4364C75.1312 98.3168 77.7042 98.0702 80.3501 98.0032C82.9286 95.5904 85.4086 93.3028 87.8231 90.9717Z" fill="white" fill-opacity="0.26"/>
<path fill-rule="evenodd" clip-rule="evenodd" d="M71.6216 93.4873C69.2782 93.7773 67.0332 94.0438 64.9722 94.2251C62.8548 96.1701 60.5952 98.2311 58.4158 100.278C60.4877 100.093 62.6215 100.044 64.7499 99.9115C66.9129 97.7888 69.2508 95.6444 71.6216 93.4891V93.4873Z" fill="white" fill-opacity="0.26"/>
<path fill-rule="evenodd" clip-rule="evenodd" d="M63.7076 94.334C61.6995 94.5098 59.7843 94.6385 57.9256 94.8724C55.9795 96.7467 54.0169 98.4978 52.1455 100.329C53.7892 100.305 55.6661 100.171 57.4573 100.115C59.4581 98.2494 61.6284 96.2174 63.7076 94.334Z" fill="white" fill-opacity="0.26"/>
<path fill-rule="evenodd" clip-rule="evenodd" d="M133.618 78.5205C129.547 79.0009 125.622 79.4631 121.666 79.9344C118.863 82.5411 116.128 85.068 113.249 87.7182C117.13 87.2142 120.773 86.9949 124.926 86.5471C127.763 83.8027 130.711 81.2178 133.618 78.5205Z" fill="white" fill-opacity="0.26"/>
<path fill-rule="evenodd" clip-rule="evenodd" d="M119.847 80.1249C116.223 80.52 112.582 81.033 109.121 81.4663C106.554 83.888 103.879 86.3334 101.198 88.8403C104.588 88.4651 107.86 88.2023 111.518 87.8977C114.391 85.2059 117.136 82.7025 119.847 80.123V80.1249Z" fill="white" fill-opacity="0.26"/>
<path fill-rule="evenodd" clip-rule="evenodd" d="M107.465 81.6602C104.247 82.0263 101.091 82.4596 97.8545 82.9454C95.389 85.2584 93.0328 87.3756 90.458 89.7448C93.4046 89.4638 96.4131 89.2264 99.5783 89.0161C102.208 86.4946 104.927 83.9913 107.465 81.6602Z" fill="white" fill-opacity="0.26"/>
<path fill-rule="evenodd" clip-rule="evenodd" d="M96.4459 83.1641C93.5886 83.6009 90.7332 83.978 88.0217 84.3441C85.6655 86.5049 83.2019 88.6729 80.8603 90.801C83.5499 90.5254 86.1976 90.2354 88.9893 89.92C91.5714 87.5834 94.015 85.3719 96.4459 83.1641Z" fill="white" fill-opacity="0.26"/>
<path fill-rule="evenodd" clip-rule="evenodd" d="M79.2823 86.2041C76.8241 86.5993 74.5481 86.8712 72.4106 87.1467C70.2021 89.1679 67.9735 91.1582 65.8797 93.1939C67.9826 92.9745 70.1346 92.757 72.5218 92.4525C74.7431 90.3878 76.9553 88.3612 79.2823 86.2059V86.2041Z" fill="white" fill-opacity="0.26"/>
<path fill-rule="evenodd" clip-rule="evenodd" d="M70.8253 87.7538C68.6495 88.0438 66.7106 88.3483 64.7335 88.7145C62.678 90.5453 60.6608 92.358 58.5015 94.3085C60.3565 94.0656 62.3628 93.9133 64.3691 93.7466C66.4701 91.7381 68.6058 89.7496 70.8271 87.752L70.8253 87.7538Z" fill="white" fill-opacity="0.26"/>
<path fill-rule="evenodd" clip-rule="evenodd" d="M142.352 68.8895C138.06 69.562 134.008 70.162 130.112 70.8345C127.313 73.162 124.658 75.5548 121.786 78.176C125.713 77.576 129.678 77.1482 133.729 76.6243C136.617 73.956 139.469 71.4237 142.35 68.8877L142.352 68.8895Z" fill="white" fill-opacity="0.26"/>
<path fill-rule="evenodd" clip-rule="evenodd" d="M128.262 71.0283C124.426 71.6881 120.764 72.203 117.17 72.8247C114.681 75.1323 112.073 77.3583 109.431 79.7764C112.917 79.2725 116.516 78.8302 120.155 78.2773C122.821 75.8555 125.485 73.4954 128.262 71.0283Z" fill="white" fill-opacity="0.26"/>
<path fill-rule="evenodd" clip-rule="evenodd" d="M138.197 62.4521C134.296 63.1392 130.556 63.8932 126.901 64.5748C124.271 66.9005 121.7 69.132 119.125 71.3706C122.575 70.7797 126.32 70.2087 130.248 69.5416C132.843 67.2341 135.551 64.8485 138.199 62.4521H138.197Z" fill="white" fill-opacity="0.26"/>
<path fill-rule="evenodd" clip-rule="evenodd" d="M180.633 64.8945C175.021 65.6686 169.795 66.3882 164.823 66.9048C161.516 69.7526 158.488 72.6746 155.557 75.4154C160.383 75.0112 165.521 74.4311 170.97 73.8456C174.069 70.8891 177.293 67.8927 180.631 64.8963L180.633 64.8945Z" fill="white" fill-opacity="0.26"/>
<path fill-rule="evenodd" clip-rule="evenodd" d="M29.1762 120.149C27.9845 119.82 26.893 119.472 25.8506 119.191C24.2325 120.79 22.5597 122.422 20.9743 124.216C21.7798 124.635 22.7292 125.139 23.7314 125.596C25.4625 123.85 27.3248 121.941 29.1762 120.149Z" fill="white" fill-opacity="0.26"/>
<path fill-rule="evenodd" clip-rule="evenodd" d="M33.6407 121.276C32.2431 120.948 30.9474 120.591 29.7029 120.269C27.8023 122.19 25.9873 124.037 24.258 125.792C25.2639 126.343 26.3718 126.858 27.5818 127.385C29.5498 125.344 31.6016 123.256 33.6407 121.276Z" fill="white" fill-opacity="0.26"/>
<path fill-rule="evenodd" clip-rule="evenodd" d="M38.8286 122.452C37.225 122.168 35.7673 121.773 34.3623 121.372C32.2303 123.527 30.1785 125.568 28.2615 127.562C29.5735 127.987 30.8928 128.485 32.4581 128.88C34.5628 126.73 36.7513 124.57 38.8304 122.452H38.8286Z" fill="white" fill-opacity="0.26"/>
<path fill-rule="evenodd" clip-rule="evenodd" d="M45.4524 123.775C43.5774 123.37 41.7569 122.943 39.9493 122.656C37.8227 124.764 35.5941 127.128 33.4421 129.36C35.0693 129.802 36.6565 130.449 38.2983 131.091C40.6345 128.578 43.1018 126.191 45.4524 123.773V123.775Z" fill="white" fill-opacity="0.26"/>
<path fill-rule="evenodd" clip-rule="evenodd" d="M52.6484 124.964C50.4563 124.636 48.2751 124.307 46.4383 123.889C44.0402 126.267 41.5747 128.685 39.1912 131.178C41.0444 131.781 42.9997 132.305 45.0187 132.876C47.435 130.288 49.9789 127.672 52.6484 124.964Z" fill="white" fill-opacity="0.26"/>
<path fill-rule="evenodd" clip-rule="evenodd" d="M60.8558 126.53C58.332 126.14 56.0141 125.701 53.8019 125.235C51.0394 128.038 48.4518 130.73 46.0356 133.28C48.0655 133.86 50.2631 134.583 52.5191 135.263C55.3526 132.27 57.973 129.521 60.8558 126.528V126.53Z" fill="white" fill-opacity="0.26"/>
<path fill-rule="evenodd" clip-rule="evenodd" d="M70.1219 128.475C67.2518 127.986 64.5859 127.433 61.9856 126.905C59.2048 129.86 56.4387 132.704 53.6543 135.644C56.0378 136.42 58.5835 137.176 61.1911 137.937C64.1395 134.725 67.2099 131.506 70.1219 128.475Z" fill="white" fill-opacity="0.26"/>
<path fill-rule="evenodd" clip-rule="evenodd" d="M81.8443 130.173C78.5497 129.517 75.3954 129.025 72.4616 128.598C69.4513 131.596 66.3972 134.877 63.4051 138.08C66.1804 138.742 69.1761 139.454 72.1646 140.44C75.4556 136.829 78.588 133.476 81.8461 130.173H81.8443Z" fill="white" fill-opacity="0.26"/>
<path fill-rule="evenodd" clip-rule="evenodd" d="M93.8984 132.305C90.1865 131.582 86.5311 130.764 83.324 130.132C80.0367 133.581 76.7093 136.982 73.5677 140.508C76.7329 141.474 80.0822 142.529 83.7376 143.392C87.0869 139.67 90.4635 136.059 93.8984 132.307V132.305Z" fill="white" fill-opacity="0.26"/>
<path fill-rule="evenodd" clip-rule="evenodd" d="M108.227 134.861C103.928 134.114 99.664 133.467 95.9812 132.406C92.5135 136.227 88.9693 140.081 85.6801 143.834C89.3355 144.89 93.175 145.965 97.2404 146.988C100.958 142.82 104.517 138.876 108.228 134.861H108.227Z" fill="white" fill-opacity="0.26"/>
<path fill-rule="evenodd" clip-rule="evenodd" d="M124.461 138.29C119.41 137.248 114.765 136.316 110.399 135.326C106.65 139.441 102.864 143.552 99.1647 147.839C103.72 149.099 107.922 150.671 112.744 151.902C116.727 147.324 120.665 142.767 124.461 138.29Z" fill="white" fill-opacity="0.26"/>
<path fill-rule="evenodd" clip-rule="evenodd" d="M143.224 142.581C137.317 141.424 132.082 140.331 126.803 139.184C122.863 143.703 118.932 148.303 114.996 152.801C119.925 154.428 125.146 156.022 130.624 157.653C134.957 152.376 139.075 147.415 143.224 142.581Z" fill="white" fill-opacity="0.26"/>
<path fill-rule="evenodd" clip-rule="evenodd" d="M338.524 116.458C334.805 113.489 331.164 110.492 327.837 107.757C322.461 110.797 317.11 113.628 311.705 116.838C314.721 119.984 317.707 123.281 321.317 126.654C327.145 123.214 332.968 119.793 338.523 116.458H338.524Z" fill="white" fill-opacity="0.26"/>
<path fill-rule="evenodd" clip-rule="evenodd" d="M156.089 110.364C154.61 108.876 153.165 107.491 151.661 106.306C149.568 107.77 147.386 109.331 145.233 110.816C146.57 112.224 147.833 113.738 149.191 115.44C151.508 113.709 153.821 111.99 156.091 110.364H156.089Z" fill="white" fill-opacity="0.26"/>
<path fill-rule="evenodd" clip-rule="evenodd" d="M97.5338 55.3831C96.9579 54.5058 96.4295 53.5922 95.9429 52.6768C94.0588 54.2339 92.047 55.9197 90.0717 57.562C90.3797 58.6152 90.8152 59.5777 91.3072 60.6091C93.3736 58.8744 95.4746 57.1106 97.5319 55.3831H97.5338Z" fill="white" fill-opacity="0.26"/>
<path fill-rule="evenodd" clip-rule="evenodd" d="M403.418 207.584C398.769 203.95 394.385 200.468 390.127 197.402C384.581 199.106 379.14 201.124 373.431 203.049C377.571 206.399 381.646 210.019 385.833 213.92C391.788 211.683 397.88 209.667 403.42 207.582L403.418 207.584Z" fill="white" fill-opacity="0.26"/>
<path fill-rule="evenodd" clip-rule="evenodd" d="M110.803 67.1728C110.346 66.6707 109.985 66.1813 109.626 65.71C108.402 66.5982 107.17 67.4701 105.98 68.3402C106.255 68.8786 106.539 69.5112 106.858 70.0405C108.176 69.0888 109.444 68.1444 110.803 67.171V67.1728Z" fill="white" fill-opacity="0.26"/>
<path fill-rule="evenodd" clip-rule="evenodd" d="M152.999 44.2007C151.895 43.7312 150.849 43.3161 149.814 42.9336C148.252 43.994 146.692 45.0907 145.096 46.2472C145.967 46.7711 146.924 47.237 148.012 47.8388C149.637 46.5717 151.319 45.388 152.999 44.2025V44.2007Z" fill="white" fill-opacity="0.26"/>
<path fill-rule="evenodd" clip-rule="evenodd" d="M387.86 87.2173C383.483 85.4191 379.414 83.8493 375.547 82.3701C370.547 84.4402 365.812 86.4233 361.282 88.526C364.776 90.2681 368.455 92.0518 372.571 94.2451C377.856 91.7853 382.991 89.3454 387.86 87.2173Z" fill="white" fill-opacity="0.26"/>
<path fill-rule="evenodd" clip-rule="evenodd" d="M135.099 41.3983C134.432 41.0847 133.933 40.6733 133.404 40.3633C132.133 41.1935 130.921 42.1307 129.696 43.0352C130.144 43.4322 130.558 43.9017 131.099 44.2642C132.318 43.3343 133.707 42.35 135.099 41.3983Z" fill="white" fill-opacity="0.26"/>
<path fill-rule="evenodd" clip-rule="evenodd" d="M107.274 34.5499C106.92 34.2925 106.534 34.0949 106.186 33.8574C105.269 34.5662 104.265 35.2985 103.385 35.9747C103.689 36.2502 103.953 36.5293 104.225 36.8484C105.229 36.0925 106.271 35.3221 107.274 34.5499Z" fill="white" fill-opacity="0.26"/>
<path fill-rule="evenodd" clip-rule="evenodd" d="M40.0894 104.349C39.94 103.969 39.7432 103.588 39.6411 103.222C38.9086 103.722 38.2252 104.293 37.4927 104.815C37.5492 105.257 37.6512 105.676 37.7533 106.095C38.5788 105.509 39.3131 104.929 40.0894 104.349Z" fill="white" fill-opacity="0.26"/>
<path fill-rule="evenodd" clip-rule="evenodd" d="M406.78 146.226C403.664 144.738 401.142 143.333 398.481 141.988C394.575 143.092 390.834 144.091 387.105 145.171C389.392 146.551 391.982 148.159 394.722 149.681C398.806 148.572 402.806 147.365 406.78 146.226Z" fill="white" fill-opacity="0.26"/>
<path fill-rule="evenodd" clip-rule="evenodd" d="M177.472 37.0007C176.378 36.678 175.261 36.4569 174.316 36.127C172.794 37.1185 171.187 38.1481 169.747 39.1034C170.664 39.5058 171.522 39.8484 172.535 40.2255C174.049 39.1868 175.821 38.0412 177.472 37.0007Z" fill="white" fill-opacity="0.26"/>
<path fill-rule="evenodd" clip-rule="evenodd" d="M137.182 12.4886C136.488 12.3599 135.793 12.2493 135.112 12.2148C133.968 12.9399 132.878 13.7683 131.783 14.5623C132.431 14.6747 133.084 14.7979 133.738 14.9411C134.908 14.0856 136.045 13.2716 137.182 12.4886Z" fill="white" fill-opacity="0.26"/>
<path fill-rule="evenodd" clip-rule="evenodd" d="M119.896 42.5165C119.266 42.3171 118.644 42.1757 118.063 41.998C117.085 42.7014 115.977 43.4736 114.949 44.1697C115.534 44.3763 116.073 44.5685 116.662 44.7787C117.77 44.0101 118.792 43.2869 119.898 42.5165H119.896Z" fill="white" fill-opacity="0.26"/>
<path fill-rule="evenodd" clip-rule="evenodd" d="M13.5506 123.756C13.372 123.466 13.239 123.237 13.0586 122.947C12.4809 123.342 11.9051 123.741 11.3748 124.113C11.5042 124.412 11.588 124.693 11.7684 124.936C12.3479 124.561 12.9747 124.156 13.5506 123.756Z" fill="white" fill-opacity="0.26"/>
<path fill-rule="evenodd" clip-rule="evenodd" d="M105.04 58.6892C104.409 58.4825 103.819 58.245 103.239 58.0928C102.317 58.7182 101.304 59.3889 100.331 60.0124C100.916 60.2191 101.501 60.4366 102.046 60.6831C103.013 60.0251 104.028 59.3635 105.04 58.6892Z" fill="white" fill-opacity="0.26"/>
<path fill-rule="evenodd" clip-rule="evenodd" d="M203.13 67.3399C201.762 66.9828 200.45 66.6184 199.189 66.2812C197.529 67.1749 195.913 68.0251 194.161 68.9604C195.457 69.2559 196.729 69.6601 197.999 70.0354C199.65 69.1145 201.458 68.2009 203.13 67.3399Z" fill="white" fill-opacity="0.26"/>
<path fill-rule="evenodd" clip-rule="evenodd" d="M9.13163 117.489C8.96216 117.194 8.74167 116.938 8.57038 116.71C8.00367 117.071 7.48069 117.448 6.95588 117.87C7.12535 118.122 7.29846 118.385 7.46793 118.679C8.04011 118.274 8.61047 117.87 9.13163 117.489Z" fill="white" fill-opacity="0.26"/>
<path fill-rule="evenodd" clip-rule="evenodd" d="M89.7729 72.8449C89.1879 72.6401 88.5975 72.37 88.06 72.1543C87.1543 72.7579 86.3379 73.3108 85.4742 73.8999C85.9662 74.1283 86.4619 74.3857 87.0049 74.6613C87.9124 74.0341 88.8235 73.4866 89.7729 72.8431V72.8449Z" fill="white" fill-opacity="0.26"/>
<path fill-rule="evenodd" clip-rule="evenodd" d="M97.1967 48.8496C96.6846 48.7173 96.1835 48.6665 95.6751 48.5723C94.9298 49.0798 94.1481 49.6472 93.3973 50.1239C93.8164 50.2146 94.3266 50.3451 94.753 50.4901C95.5803 49.9191 96.3657 49.368 97.1967 48.8514V48.8496Z" fill="white" fill-opacity="0.26"/>
<path fill-rule="evenodd" clip-rule="evenodd" d="M473 179.626C468.842 178.375 464.445 176.89 460 175.602C455.884 176.483 451.438 177.11 447.257 177.88C451.253 179.102 455.581 180.534 459.579 181.953C464.25 181.168 468.57 180.445 473 179.628V179.626Z" fill="white" fill-opacity="0.26"/>
<path fill-rule="evenodd" clip-rule="evenodd" d="M153.427 19.9629C152.511 19.9991 151.685 20.0082 150.86 20.0155C149.892 20.63 148.883 21.2717 147.84 21.9587C148.662 21.9206 149.415 21.9895 150.244 21.9822C151.286 21.297 152.33 20.6046 153.425 19.9629H153.427Z" fill="white" fill-opacity="0.26"/>
<path fill-rule="evenodd" clip-rule="evenodd" d="M20.5406 121.112C20.26 120.903 19.9794 120.688 19.7954 120.488C19.2724 120.822 18.7002 121.202 18.2228 121.507C18.4068 121.73 18.6382 121.92 18.8697 122.16C19.4418 121.773 19.9685 121.451 20.5406 121.114V121.112Z" fill="white" fill-opacity="0.26"/>
<path fill-rule="evenodd" clip-rule="evenodd" d="M267.629 98.8935C265.558 98.3895 263.341 98.0886 261.229 97.6318C259.148 98.3551 257.255 98.9877 255.394 99.7309C257.311 100.083 259.387 100.577 261.553 101.072C263.578 100.326 265.657 99.6077 267.627 98.8935H267.629Z" fill="white" fill-opacity="0.26"/>
<path fill-rule="evenodd" clip-rule="evenodd" d="M260.562 136.449C258.694 135.283 256.846 134.123 254.988 133.113C252.386 134.112 249.732 135.287 247.061 136.42C248.79 137.571 250.509 138.693 252.245 140.002C255.141 138.689 257.883 137.589 260.562 136.447V136.449Z" fill="white" fill-opacity="0.26"/>
<path fill-rule="evenodd" clip-rule="evenodd" d="M14.6403 130.615C14.4617 130.102 14.3323 129.579 14.2011 129.131C13.4704 129.655 12.6886 130.235 11.9051 130.838C11.9834 131.362 12.0636 131.957 12.1875 132.493C12.9747 131.875 13.8075 131.246 14.6403 130.614V130.615Z" fill="white" fill-opacity="0.26"/>
<path fill-rule="evenodd" clip-rule="evenodd" d="M215.336 90.0727C213.652 89.112 212.1 88.2546 210.658 87.4189C208.442 88.6461 206.134 89.9495 203.827 91.2764C205.277 92.1664 206.573 93.2359 208.189 94.155C210.642 92.7791 212.983 91.4105 215.336 90.0727Z" fill="white" fill-opacity="0.26"/>
</g>
</g>
<path d="M-1 1H1440V-1H-1V1ZM1440 258H-1V260H1440V258Z" fill="#262626" mask="url(#path-1-inside-1_28_848)"/>
<defs>
<clipPath id="clip0_28_848">
<path d="M-1 0H1440V259H-1V0Z" fill="white"/>
</clipPath>
<clipPath id="clip1_28_848">
<rect width="569" height="310" fill="white" transform="matrix(-1 0 0 1 1454 -30)"/>
</clipPath>
<clipPath id="clip2_28_848">
<rect width="474" height="258" fill="white" transform="translate(-1 1)"/>
</clipPath>
</defs>
</svg>
