<svg width="46" height="20" viewBox="0 0 46 20" fill="none" xmlns="http://www.w3.org/2000/svg">
<g clip-path="url(#clip0_28_4084)">
<path d="M10 20.0107C15.5228 20.0107 20 15.5335 20 10.0107C20 4.48784 15.5228 0.0107422 10 0.0107422C4.47715 0.0107422 0 4.48784 0 10.0107C0 15.5335 4.47715 20.0107 10 20.0107Z" fill="#FFBE8B"/>
<path d="M0 30C5.52285 30 10 25.5228 10 20C10 14.4772 5.52285 10 0 10C-5.52285 10 -10 14.4772 -10 20C-10 25.5228 -5.52285 30 0 30Z" fill="white"/>
<path d="M20 30C25.5228 30 30 25.5228 30 20C30 14.4772 25.5228 10 20 10C14.4772 10 10 14.4772 10 20C10 25.5228 14.4772 30 20 30Z" fill="white"/>
<path d="M0 10C5.52285 10 10 5.52285 10 0C10 -5.52285 5.52285 -10 0 -10C-5.52285 -10 -10 -5.52285 -10 0C-10 5.52285 -5.52285 10 0 10Z" fill="white"/>
<path d="M20 10C25.5228 10 30 5.52285 30 0C30 -5.52285 25.5228 -10 20 -10C14.4772 -10 10 -5.52285 10 0C10 5.52285 14.4772 10 20 10Z" fill="white"/>
</g>
<g clip-path="url(#clip1_28_4084)">
<path d="M30 16.0068C33.3137 16.0068 36 13.3205 36 10.0068C36 6.69309 33.3137 4.00684 30 4.00684C26.6863 4.00684 24 6.69309 24 10.0068C24 13.3205 26.6863 16.0068 30 16.0068Z" fill="#FFBE8B"/>
<path d="M24 22C27.3137 22 30 19.3137 30 16C30 12.6863 27.3137 10 24 10C20.6863 10 18 12.6863 18 16C18 19.3137 20.6863 22 24 22Z" fill="white"/>
<path d="M36 22C39.3137 22 42 19.3137 42 16C42 12.6863 39.3137 10 36 10C32.6863 10 30 12.6863 30 16C30 19.3137 32.6863 22 36 22Z" fill="white"/>
<path d="M24 10C27.3137 10 30 7.31371 30 4C30 0.686292 27.3137 -2 24 -2C20.6863 -2 18 0.686292 18 4C18 7.31371 20.6863 10 24 10Z" fill="white"/>
<path d="M36 10C39.3137 10 42 7.31371 42 4C42 0.686292 39.3137 -2 36 -2C32.6863 -2 30 0.686292 30 4C30 7.31371 32.6863 10 36 10Z" fill="white"/>
</g>
<g clip-path="url(#clip2_28_4084)">
<path d="M42.8 12.8031C44.3464 12.8031 45.6 11.5495 45.6 10.0031C45.6 8.45671 44.3464 7.20312 42.8 7.20312C41.2536 7.20312 40 8.45671 40 10.0031C40 11.5495 41.2536 12.8031 42.8 12.8031Z" fill="#FFBE8B"/>
<path d="M40 15.6C41.5463 15.6 42.8 14.3464 42.8 12.8C42.8 11.2536 41.5463 10 40 10C38.4536 10 37.2 11.2536 37.2 12.8C37.2 14.3464 38.4536 15.6 40 15.6Z" fill="white"/>
<path d="M45.5999 15.6C47.1463 15.6 48.3999 14.3464 48.3999 12.8C48.3999 11.2536 47.1463 10 45.5999 10C44.0535 10 42.7999 11.2536 42.7999 12.8C42.7999 14.3464 44.0535 15.6 45.5999 15.6Z" fill="white"/>
<path d="M40 10.0004C41.5463 10.0004 42.8 8.74679 42.8 7.20039C42.8 5.65399 41.5463 4.40039 40 4.40039C38.4536 4.40039 37.2 5.65399 37.2 7.20039C37.2 8.74679 38.4536 10.0004 40 10.0004Z" fill="white"/>
<path d="M45.5999 10.0004C47.1463 10.0004 48.3999 8.74679 48.3999 7.20039C48.3999 5.65399 47.1463 4.40039 45.5999 4.40039C44.0535 4.40039 42.7999 5.65399 42.7999 7.20039C42.7999 8.74679 44.0535 10.0004 45.5999 10.0004Z" fill="white"/>
</g>
<defs>
<clipPath id="clip0_28_4084">
<rect width="20" height="20" fill="white"/>
</clipPath>
<clipPath id="clip1_28_4084">
<rect width="12" height="12" fill="white" transform="translate(24 4)"/>
</clipPath>
<clipPath id="clip2_28_4084">
<rect width="5.6" height="5.6" fill="white" transform="translate(40 7.2002)"/>
</clipPath>
</defs>
</svg>
