<svg width="61" height="60" viewBox="0 0 61 60" fill="none" xmlns="http://www.w3.org/2000/svg">
<rect x="1" y="0.5" width="59" height="59" rx="29.5" stroke="url(#paint0_linear_28_734)"/>
<rect x="1" y="0.5" width="59" height="59" rx="29.5" stroke="url(#paint1_linear_28_734)"/>
<rect x="9" y="8.5" width="43" height="43" rx="21.5" stroke="url(#paint2_linear_28_734)"/>
<rect x="9" y="8.5" width="43" height="43" rx="21.5" stroke="url(#paint3_linear_28_734)"/>
<path fill-rule="evenodd" clip-rule="evenodd" d="M30.5925 34.5566C30.5925 32.0301 31.9557 29.8207 33.9876 28.626H33.0241C32.8522 28.626 32.716 28.4887 32.716 28.3179C32.716 28.146 32.8533 28.0098 33.0241 28.0098H35.2883C35.3084 28.0098 35.3285 28.0131 35.3486 28.0154C36.0173 27.7977 36.7263 27.6838 37.4665 27.6838C37.7556 27.6838 38.0414 27.7005 38.3183 27.7351V26.2235L18.0001 26.2223V39.7949C18.0001 40.352 18.4579 40.8097 19.015 40.8097H34.6139C32.2426 39.7301 30.5925 37.3344 30.5925 34.5566ZM23.2932 38.4093H21.029C20.8571 38.4093 20.7209 38.272 20.7209 38.1012C20.7209 37.9292 20.8582 37.7931 21.029 37.7931H23.2932C23.4651 37.7931 23.6013 37.9304 23.6013 38.1012C23.6024 38.272 23.4618 38.4093 23.2932 38.4093ZM23.2932 35.9654H21.029C20.8571 35.9654 20.7209 35.8281 20.7209 35.6573C20.7209 35.4853 20.8582 35.3491 21.029 35.3491H23.2932C23.4651 35.3491 23.6013 35.4865 23.6013 35.6573C23.6024 35.8259 23.4618 35.9654 23.2932 35.9654ZM23.2932 33.5193H21.029C20.8571 33.5193 20.7209 33.382 20.7209 33.2111C20.7209 33.0392 20.8582 32.903 21.029 32.903H23.2932C23.4651 32.903 23.6013 33.0403 23.6013 33.2111C23.6024 33.382 23.4618 33.5193 23.2932 33.5193ZM23.2932 31.072H21.029C20.8571 31.072 20.7209 30.9347 20.7209 30.7639C20.7209 30.592 20.8582 30.4558 21.029 30.4558H23.2932C23.4651 30.4558 23.6013 30.5931 23.6013 30.7639C23.6024 30.9358 23.4618 31.072 23.2932 31.072ZM23.2932 28.6292H21.029C20.8571 28.6292 20.7209 28.4919 20.7209 28.3211C20.7209 28.1492 20.8582 28.013 21.029 28.013H23.2932C23.4651 28.013 23.6013 28.1503 23.6013 28.3211C23.6024 28.4886 23.4618 28.6292 23.2932 28.6292ZM29.2895 38.4094H27.0264C26.8545 38.4094 26.7183 38.272 26.7183 38.1012C26.7183 37.9293 26.8556 37.7931 27.0264 37.7931H29.2906C29.4625 37.7931 29.5987 37.9304 29.5987 38.1012C29.5987 38.272 29.4614 38.4094 29.2895 38.4094ZM29.2895 35.9655H27.0264C26.8545 35.9655 26.7183 35.8281 26.7183 35.6573C26.7183 35.4854 26.8556 35.3492 27.0264 35.3492H29.2906C29.4625 35.3492 29.5987 35.4865 29.5987 35.6573C29.5987 35.8259 29.4614 35.9655 29.2895 35.9655ZM29.2895 33.5193H27.0264C26.8545 33.5193 26.7183 33.382 26.7183 33.2112C26.7183 33.0393 26.8556 32.9031 27.0264 32.9031H29.2906C29.4625 32.9031 29.5987 33.0404 29.5987 33.2112C29.5987 33.382 29.4614 33.5193 29.2895 33.5193ZM29.2895 31.0721H27.0264C26.8545 31.0721 26.7183 30.9348 26.7183 30.764C26.7183 30.592 26.8556 30.4558 27.0264 30.4558H29.2906C29.4625 30.4558 29.5987 30.5932 29.5987 30.764C29.5987 30.9359 29.4614 31.0721 29.2895 31.0721ZM29.2895 28.6293H27.0264C26.8545 28.6293 26.7183 28.492 26.7183 28.3212C26.7183 28.1492 26.8556 28.013 27.0264 28.013H29.2906C29.4625 28.013 29.5987 28.1504 29.5987 28.3212C29.5987 28.4886 29.4614 28.6293 29.2895 28.6293ZM42.2369 34.5564C42.2369 34.3845 42.3743 34.2483 42.5451 34.2483H43.7106C43.5532 31.0387 40.9809 28.4641 37.7712 28.3089V29.4778C37.7712 29.6497 37.6339 29.7859 37.4631 29.7859C37.2912 29.7859 37.155 29.6486 37.155 29.4778V28.3089C33.9453 28.4663 31.373 31.0386 31.2155 34.2483H32.3811C32.553 34.2483 32.6892 34.3856 32.6892 34.5564C32.6892 34.725 32.5519 34.8646 32.3811 34.8646H31.2155C31.373 38.0742 33.9453 40.6488 37.155 40.804V39.6384C37.155 39.4665 37.2923 39.3303 37.4631 39.3303C37.635 39.3303 37.7712 39.4676 37.7712 39.6384V40.8073C40.9809 40.6499 43.5532 38.0776 43.7106 34.8679H42.5451C42.3765 34.8657 42.2369 34.7283 42.2369 34.5564ZM39.9907 34.8657H37.4675C37.2956 34.8657 37.1594 34.7283 37.1594 34.5575L37.1582 31.0898C37.1582 30.9179 37.2956 30.7817 37.4664 30.7817C37.6383 30.7817 37.7745 30.919 37.7745 31.0898V34.2506H39.9895C40.1615 34.2506 40.2977 34.3879 40.2977 34.5587C40.2988 34.7284 40.1615 34.8657 39.9907 34.8657ZM38.3182 25.608H18V23.6699C18 22.6037 18.8719 21.7317 19.9381 21.7317H21.8528V22.5981C21.8528 23.4153 22.5216 24.0818 23.3366 24.0818C24.1538 24.0818 24.8203 23.4131 24.8203 22.5981V21.7317H26.6759V22.5981C26.6759 23.4153 27.3446 24.0818 28.1596 24.0818C28.9746 24.0818 29.6434 23.4131 29.6434 22.5981V21.7317H31.5011V22.5981C31.5011 23.4153 32.1699 24.0818 32.9849 24.0818C33.8021 24.0818 34.4686 23.4131 34.4686 22.5981V21.7317H36.3833C37.4462 21.7317 38.3215 22.6037 38.3215 23.6699L38.3182 25.608ZM32.1164 22.6013V20.8663C32.1164 20.3885 32.505 20 32.9828 20C33.4606 20 33.8491 20.3885 33.8491 20.8663V22.6013C33.8491 23.0791 33.4606 23.4699 32.9828 23.4699C32.505 23.4699 32.1164 23.078 32.1164 22.6013ZM22.4669 22.6013V20.8663C22.4669 20.3885 22.8554 20 23.3333 20C23.8111 20 24.2019 20.3885 24.2019 20.8663V22.6013C24.2019 23.0791 23.81 23.4699 23.3333 23.4699C22.8565 23.4699 22.4669 23.078 22.4669 22.6013ZM27.2922 22.6013V20.8663C27.2922 20.3885 27.6841 20 28.1608 20C28.6387 20 29.0272 20.3885 29.0272 20.8663V22.6013C29.0272 23.0791 28.6387 23.4699 28.1608 23.4699C27.683 23.4699 27.2922 23.078 27.2922 22.6013Z" fill="#CE8943"/>
<defs>
<linearGradient id="paint0_linear_28_734" x1="5.43903" y1="63.2927" x2="63.2439" y2="-4.02439" gradientUnits="userSpaceOnUse">
<stop stop-color="#88292B"/>
<stop offset="0.323723" stop-color="#88292B" stop-opacity="0"/>
</linearGradient>
<linearGradient id="paint1_linear_28_734" x1="60.3171" y1="-7.68292" x2="5.43902" y2="60" gradientUnits="userSpaceOnUse">
<stop stop-color="#88292B"/>
<stop offset="0.576615" stop-color="#88292B" stop-opacity="0.12"/>
</linearGradient>
<linearGradient id="paint2_linear_28_734" x1="3.70968" y1="10.4839" x2="52.3226" y2="52" gradientUnits="userSpaceOnUse">
<stop stop-color="#88292B"/>
<stop offset="0.323723" stop-color="#88292B" stop-opacity="0"/>
</linearGradient>
<linearGradient id="paint3_linear_28_734" x1="61.1935" y1="61.9355" x2="10.0968" y2="25.7419" gradientUnits="userSpaceOnUse">
<stop stop-color="#88292B"/>
<stop offset="0.576615" stop-color="#88292B" stop-opacity="0"/>
</linearGradient>
</defs>
</svg>
