<svg width="60" height="60" viewBox="0 0 60 60" fill="none" xmlns="http://www.w3.org/2000/svg">
<rect x="0.5" y="0.5" width="59" height="59" rx="29.5" stroke="url(#paint0_linear_147_2)"/>
<rect x="0.5" y="0.5" width="59" height="59" rx="29.5" stroke="url(#paint1_linear_147_2)"/>
<path fill-rule="evenodd" clip-rule="evenodd" d="M39.0114 25.0098C38.272 25.0117 37.672 25.6107 37.6701 26.3501V27.0146L40.3519 27.0155V26.3501C40.35 25.6107 39.7509 25.0117 39.0114 25.0098Z" fill="#CE8943"/>
<path d="M37.6699 27.9395H40.3518V37.4894H37.6699V27.9395Z" fill="#CE8943"/>
<path fill-rule="evenodd" clip-rule="evenodd" d="M39.0114 41.2035L40.1556 38.4141H37.8672L39.0114 41.2035Z" fill="#CE8943"/>
<path fill-rule="evenodd" clip-rule="evenodd" d="M39.3814 20.4221H39.3833C39.3776 19.6394 38.7449 19.0067 37.9622 19C37.1795 19.0029 36.5449 19.6375 36.542 20.4211V21.9106L39.3814 21.9096L39.3814 20.4221Z" fill="#CE8943"/>
<path fill-rule="evenodd" clip-rule="evenodd" d="M20.5086 19.5106C20.1827 19.8347 20 20.2751 20 20.7337V40.4114C20.001 40.5931 20.1481 40.7402 20.3298 40.7412H35.2865C35.4682 40.7402 35.6144 40.5931 35.6163 40.4114V20.4221C35.6153 19.9077 35.7855 19.4077 36.098 19H21.7328C21.2732 19.001 20.8327 19.1837 20.5086 19.5106ZM23.3126 21.9116L32.3038 21.9106C32.5596 21.9106 32.7663 22.1183 32.7663 22.3731C32.7663 22.6289 32.5595 22.8356 32.3038 22.8356H23.3126C23.0568 22.8356 22.8501 22.6289 22.8501 22.3731C22.8501 22.1183 23.0568 21.9106 23.3126 21.9106V21.9116ZM23.3126 25.6605L32.3038 25.6595C32.5557 25.6653 32.7566 25.8711 32.7566 26.122C32.7566 26.3739 32.5557 26.5788 32.3038 26.5855H23.3126C23.1876 26.5884 23.0674 26.5403 22.978 26.4537C22.8895 26.3662 22.8395 26.247 22.8395 26.122C22.8395 25.998 22.8895 25.8787 22.978 25.7912C23.0674 25.7047 23.1876 25.6566 23.3126 25.6595V25.6605ZM23.3126 29.4094L32.3038 29.4084C32.5596 29.4084 32.7663 29.6161 32.7663 29.8709C32.7663 30.1267 32.5595 30.3334 32.3038 30.3334H23.3126C23.0568 30.3334 22.8501 30.1267 22.8501 29.8709C22.8501 29.6161 23.0568 29.4084 23.3126 29.4084V29.4094ZM23.3126 33.1583L32.3038 33.1573C32.5557 33.1631 32.7566 33.3689 32.7566 33.6198C32.7566 33.8717 32.5557 34.0775 32.3038 34.0833H23.3126C23.1876 34.0862 23.0674 34.0381 22.978 33.9515C22.8895 33.864 22.8395 33.7448 22.8395 33.6198C22.8395 33.4958 22.8895 33.3765 22.978 33.289C23.0674 33.2025 23.1876 33.1544 23.3126 33.1573V33.1583ZM23.3126 36.9072L32.3038 36.9062C32.5596 36.9062 32.7663 37.1139 32.7663 37.3687C32.7663 37.6245 32.5595 37.8312 32.3038 37.8312H23.3126C23.0568 37.8312 22.8501 37.6245 22.8501 37.3687C22.8501 37.1139 23.0568 36.9062 23.3126 36.9062V36.9072Z" fill="#CE8943"/>
<defs>
<linearGradient id="paint0_linear_147_2" x1="4.93903" y1="63.2927" x2="62.7439" y2="-4.02439" gradientUnits="userSpaceOnUse">
<stop stop-color="#88292B"/>
<stop offset="0.323723" stop-color="#88292B" stop-opacity="0"/>
</linearGradient>
<linearGradient id="paint1_linear_147_2" x1="59.8171" y1="-7.68292" x2="4.93902" y2="60" gradientUnits="userSpaceOnUse">
<stop stop-color="#88292B"/>
<stop offset="0.576615" stop-color="#88292B" stop-opacity="0.12"/>
</linearGradient>
</defs>
</svg>
