<svg width="60" height="60" viewBox="0 0 60 60" fill="none" xmlns="http://www.w3.org/2000/svg">
<rect x="0.5" y="0.5" width="59" height="59" rx="29.5" stroke="url(#paint0_linear_147_15)"/>
<rect x="0.5" y="0.5" width="59" height="59" rx="29.5" stroke="url(#paint1_linear_147_15)"/>
<rect x="8.5" y="8.5" width="44.7106" height="39.8097" rx="19.9049" stroke="url(#paint2_linear_147_15)"/>
<rect x="8.5" y="8.5" width="44.7106" height="39.8097" rx="19.9049" stroke="url(#paint3_linear_147_15)"/>
<path fill-rule="evenodd" clip-rule="evenodd" d="M30.5925 32.5566C30.5925 30.0301 31.9557 27.8207 33.9876 26.626H33.0241C32.8522 26.626 32.716 26.4887 32.716 26.3179C32.716 26.146 32.8533 26.0098 33.0241 26.0098H35.2883C35.3084 26.0098 35.3285 26.0131 35.3486 26.0154C36.0173 25.7977 36.7263 25.6838 37.4665 25.6838C37.7556 25.6838 38.0414 25.7005 38.3183 25.7351V24.2235L18.0001 24.2223V37.7949C18.0001 38.352 18.4579 38.8097 19.015 38.8097H34.6139C32.2426 37.7301 30.5925 35.3344 30.5925 32.5566ZM23.2932 36.4093H21.029C20.8571 36.4093 20.7209 36.272 20.7209 36.1012C20.7209 35.9292 20.8582 35.7931 21.029 35.7931H23.2932C23.4651 35.7931 23.6013 35.9304 23.6013 36.1012C23.6024 36.272 23.4618 36.4093 23.2932 36.4093ZM23.2932 33.9654H21.029C20.8571 33.9654 20.7209 33.8281 20.7209 33.6573C20.7209 33.4853 20.8582 33.3491 21.029 33.3491H23.2932C23.4651 33.3491 23.6013 33.4865 23.6013 33.6573C23.6024 33.8259 23.4618 33.9654 23.2932 33.9654ZM23.2932 31.5193H21.029C20.8571 31.5193 20.7209 31.382 20.7209 31.2111C20.7209 31.0392 20.8582 30.903 21.029 30.903H23.2932C23.4651 30.903 23.6013 31.0403 23.6013 31.2111C23.6024 31.382 23.4618 31.5193 23.2932 31.5193ZM23.2932 29.072H21.029C20.8571 29.072 20.7209 28.9347 20.7209 28.7639C20.7209 28.592 20.8582 28.4558 21.029 28.4558H23.2932C23.4651 28.4558 23.6013 28.5931 23.6013 28.7639C23.6024 28.9358 23.4618 29.072 23.2932 29.072ZM23.2932 26.6292H21.029C20.8571 26.6292 20.7209 26.4919 20.7209 26.3211C20.7209 26.1492 20.8582 26.013 21.029 26.013H23.2932C23.4651 26.013 23.6013 26.1503 23.6013 26.3211C23.6024 26.4886 23.4618 26.6292 23.2932 26.6292ZM29.2895 36.4094H27.0264C26.8545 36.4094 26.7183 36.272 26.7183 36.1012C26.7183 35.9293 26.8556 35.7931 27.0264 35.7931H29.2906C29.4625 35.7931 29.5987 35.9304 29.5987 36.1012C29.5987 36.272 29.4614 36.4094 29.2895 36.4094ZM29.2895 33.9655H27.0264C26.8545 33.9655 26.7183 33.8281 26.7183 33.6573C26.7183 33.4854 26.8556 33.3492 27.0264 33.3492H29.2906C29.4625 33.3492 29.5987 33.4865 29.5987 33.6573C29.5987 33.8259 29.4614 33.9655 29.2895 33.9655ZM29.2895 31.5193H27.0264C26.8545 31.5193 26.7183 31.382 26.7183 31.2112C26.7183 31.0393 26.8556 30.9031 27.0264 30.9031H29.2906C29.4625 30.9031 29.5987 31.0404 29.5987 31.2112C29.5987 31.382 29.4614 31.5193 29.2895 31.5193ZM29.2895 29.0721H27.0264C26.8545 29.0721 26.7183 28.9348 26.7183 28.764C26.7183 28.592 26.8556 28.4558 27.0264 28.4558H29.2906C29.4625 28.4558 29.5987 28.5932 29.5987 28.764C29.5987 28.9359 29.4614 29.0721 29.2895 29.0721ZM29.2895 26.6293H27.0264C26.8545 26.6293 26.7183 26.492 26.7183 26.3212C26.7183 26.1492 26.8556 26.013 27.0264 26.013H29.2906C29.4625 26.013 29.5987 26.1504 29.5987 26.3212C29.5987 26.4886 29.4614 26.6293 29.2895 26.6293ZM42.2369 32.5564C42.2369 32.3845 42.3743 32.2483 42.5451 32.2483H43.7106C43.5532 29.0387 40.9809 26.4641 37.7712 26.3089V27.4778C37.7712 27.6497 37.6339 27.7859 37.4631 27.7859C37.2912 27.7859 37.155 27.6486 37.155 27.4778V26.3089C33.9453 26.4663 31.373 29.0386 31.2155 32.2483H32.3811C32.553 32.2483 32.6892 32.3856 32.6892 32.5564C32.6892 32.725 32.5519 32.8646 32.3811 32.8646H31.2155C31.373 36.0742 33.9453 38.6488 37.155 38.804V37.6384C37.155 37.4665 37.2923 37.3303 37.4631 37.3303C37.635 37.3303 37.7712 37.4676 37.7712 37.6384V38.8073C40.9809 38.6499 43.5532 36.0776 43.7106 32.8679H42.5451C42.3765 32.8657 42.2369 32.7283 42.2369 32.5564ZM39.9907 32.8657H37.4675C37.2956 32.8657 37.1594 32.7283 37.1594 32.5575L37.1582 29.0898C37.1582 28.9179 37.2956 28.7817 37.4664 28.7817C37.6383 28.7817 37.7745 28.919 37.7745 29.0898V32.2506H39.9895C40.1615 32.2506 40.2977 32.3879 40.2977 32.5587C40.2988 32.7284 40.1615 32.8657 39.9907 32.8657ZM38.3182 23.608H18V21.6699C18 20.6037 18.8719 19.7317 19.9381 19.7317H21.8528V20.5981C21.8528 21.4153 22.5216 22.0818 23.3366 22.0818C24.1538 22.0818 24.8203 21.4131 24.8203 20.5981V19.7317H26.6759V20.5981C26.6759 21.4153 27.3446 22.0818 28.1596 22.0818C28.9746 22.0818 29.6434 21.4131 29.6434 20.5981V19.7317H31.5011V20.5981C31.5011 21.4153 32.1699 22.0818 32.9849 22.0818C33.8021 22.0818 34.4686 21.4131 34.4686 20.5981V19.7317H36.3833C37.4462 19.7317 38.3215 20.6037 38.3215 21.6699L38.3182 23.608ZM32.1164 20.6013V18.8663C32.1164 18.3885 32.505 18 32.9828 18C33.4606 18 33.8491 18.3885 33.8491 18.8663V20.6013C33.8491 21.0791 33.4606 21.4699 32.9828 21.4699C32.505 21.4699 32.1164 21.078 32.1164 20.6013ZM22.4669 20.6013V18.8663C22.4669 18.3885 22.8554 18 23.3333 18C23.8111 18 24.2019 18.3885 24.2019 18.8663V20.6013C24.2019 21.0791 23.81 21.4699 23.3333 21.4699C22.8565 21.4699 22.4669 21.078 22.4669 20.6013ZM27.2922 20.6013V18.8663C27.2922 18.3885 27.6841 18 28.1608 18C28.6387 18 29.0272 18.3885 29.0272 18.8663V20.6013C29.0272 21.0791 28.6387 21.4699 28.1608 21.4699C27.683 21.4699 27.2922 21.078 27.2922 20.6013Z" fill="white"/>
<defs>
<linearGradient id="paint0_linear_147_15" x1="4.93903" y1="63.2927" x2="62.7439" y2="-4.02439" gradientUnits="userSpaceOnUse">
<stop stop-color="white"/>
<stop offset="0.323723" stop-color="white" stop-opacity="0"/>
</linearGradient>
<linearGradient id="paint1_linear_147_15" x1="59.8171" y1="-7.68292" x2="4.93902" y2="60" gradientUnits="userSpaceOnUse">
<stop stop-color="white"/>
<stop offset="0.576615" stop-color="white" stop-opacity="0"/>
</linearGradient>
<linearGradient id="paint2_linear_147_15" x1="3.02344" y1="10.3038" x2="48.6292" y2="53.9291" gradientUnits="userSpaceOnUse">
<stop stop-color="white"/>
<stop offset="0.323723" stop-color="white" stop-opacity="0"/>
</linearGradient>
<linearGradient id="paint3_linear_147_15" x1="62.7422" y1="58.0248" x2="13.8204" y2="19.2103" gradientUnits="userSpaceOnUse">
<stop stop-color="white"/>
<stop offset="0.576615" stop-color="white" stop-opacity="0"/>
</linearGradient>
</defs>
</svg>
