<svg width="60" height="60" viewBox="0 0 60 60" fill="none" xmlns="http://www.w3.org/2000/svg">
<rect x="0.5" y="0.5" width="59" height="59" rx="29.5" stroke="url(#paint0_linear_147_23)"/>
<rect x="0.5" y="0.5" width="59" height="59" rx="29.5" stroke="url(#paint1_linear_147_23)"/>
<rect x="8.5" y="8.5" width="46.3041" height="41.4097" rx="20.7049" stroke="url(#paint2_linear_147_23)"/>
<rect x="8.5" y="8.5" width="46.3041" height="41.4097" rx="20.7049" stroke="url(#paint3_linear_147_23)"/>
<path d="M34.4205 27.7756C38.7555 27.7756 42.3691 31.0155 42.9636 35.1925H30.4577C30.4806 34.9943 30.4416 34.7846 30.3294 34.5898L30.2824 34.5096H32.0856C32.9437 34.5096 33.6425 33.8108 33.6425 32.9527V27.8112C33.8992 27.7883 34.1582 27.7756 34.4205 27.7756ZM44.7978 36.077H18.5075C18.228 36.077 18 36.3061 18 36.5845V37.4747C18 37.7542 18.2291 37.9822 18.5075 37.9822H44.7966C45.0761 37.9822 45.3041 37.7531 45.3041 37.4747V36.5845C45.3053 36.3061 45.0762 36.077 44.7978 36.077ZM23.3708 34.5109L23.0649 35.0356C23.0213 35.1112 23.0798 35.1926 23.1554 35.1926H29.4748C29.5492 35.1926 29.6088 35.1101 29.5653 35.0356L29.2594 34.5109H23.3708ZM32.7582 24.8543C32.7582 24.4842 32.4558 24.1818 32.0857 24.1818L20.5435 24.1806C20.1735 24.1806 19.871 24.483 19.871 24.8531V31.2309H32.7582V24.8543ZM20.5435 33.6252H32.0857C32.4557 33.6252 32.7582 33.3228 32.7582 32.9527V32.1164H19.871V32.9527C19.871 33.3227 20.1734 33.6252 20.5435 33.6252ZM32.0857 23.296C32.9438 23.296 33.6426 23.9949 33.6426 24.853V27.2599C33.8958 27.3023 34.1547 27.3253 34.4193 27.3253C36.9947 27.3253 39.082 25.2379 39.082 22.6626C39.082 20.0874 36.9946 18 34.4193 18C31.8441 18 29.7567 20.0874 29.7567 22.6626C29.7567 22.878 29.7716 23.0899 29.8003 23.2973H32.0858L32.0857 23.296ZM18.9601 40.4097H44.3452V38.8677H18.9601V40.4097Z" fill="white"/>
<defs>
<linearGradient id="paint0_linear_147_23" x1="4.93903" y1="63.2927" x2="62.7439" y2="-4.02439" gradientUnits="userSpaceOnUse">
<stop stop-color="white"/>
<stop offset="0.323723" stop-color="white" stop-opacity="0"/>
</linearGradient>
<linearGradient id="paint1_linear_147_23" x1="59.8171" y1="-7.68292" x2="4.93902" y2="60" gradientUnits="userSpaceOnUse">
<stop stop-color="white"/>
<stop offset="0.576615" stop-color="white" stop-opacity="0"/>
</linearGradient>
<linearGradient id="paint2_linear_147_23" x1="2.84995" y1="10.3941" x2="50.2346" y2="55.5315" gradientUnits="userSpaceOnUse">
<stop stop-color="white"/>
<stop offset="0.323723" stop-color="white" stop-opacity="0"/>
</linearGradient>
<linearGradient id="paint3_linear_147_23" x1="64.6505" y1="59.9861" x2="13.8595" y2="19.8571" gradientUnits="userSpaceOnUse">
<stop stop-color="white"/>
<stop offset="0.576615" stop-color="white" stop-opacity="0"/>
</linearGradient>
</defs>
</svg>
