<svg width="60" height="60" viewBox="0 0 60 60" fill="none" xmlns="http://www.w3.org/2000/svg">
<rect x="0.5" y="0.5" width="59" height="59" rx="29.5" stroke="url(#paint0_linear_147_29)"/>
<rect x="0.5" y="0.5" width="59" height="59" rx="29.5" stroke="url(#paint1_linear_147_29)"/>
<rect x="8.5" y="8.5" width="38.5" height="45" rx="19.25" stroke="url(#paint2_linear_147_29)"/>
<rect x="8.5" y="8.5" width="38.5" height="45" rx="19.25" stroke="url(#paint3_linear_147_29)"/>
<path d="M23.5714 19.8574H22.6429V20.786H23.5714V19.8574Z" fill="white"/>
<path d="M28.2143 29.6073C28.4707 29.6073 28.6786 29.3994 28.6786 29.143C28.6786 28.8866 28.4707 28.6787 28.2143 28.6787C27.9579 28.6787 27.75 28.8866 27.75 29.143C27.75 29.3994 27.9579 29.6073 28.2143 29.6073Z" fill="white"/>
<path d="M22.6429 37.5H21.7143V38.4286H22.6429V37.5Z" fill="white"/>
<path d="M18.0799 42.1424H22.1786V43.071H18.0799C18.1761 43.3424 18.354 43.5773 18.5891 43.7435C18.8242 43.9098 19.1049 43.9992 19.3929 43.9996H31.4643V43.071H23.5714V42.1424H31.4643V41.2139H19.3929C19.1049 41.2142 18.8242 41.3037 18.5891 41.4699C18.354 41.6362 18.1761 41.8711 18.0799 42.1424Z" fill="white"/>
<path d="M21.7143 26.085L20.978 26.8213L21.7143 27.5576L22.4506 26.8213L21.7143 26.085Z" fill="white"/>
<path d="M37.5 41.2139H35.1786V42.1424H37.5V41.2139Z" fill="white"/>
<path d="M34.25 18H32.3929V44H34.25V18Z" fill="white"/>
<path d="M37.5 43.0713H35.1786V43.9999H37.5V43.0713Z" fill="white"/>
<path d="M37.5 18H35.1786V40.2857H37.5V18Z" fill="white"/>
<path d="M18 19.3929V40.7513C18.4013 40.4487 18.8903 40.2852 19.3929 40.2857H31.4643V18H19.3929C19.0236 18.0004 18.6695 18.1473 18.4084 18.4084C18.1473 18.6695 18.0004 19.0236 18 19.3929ZM23.5714 38.8929C23.5714 39.016 23.5225 39.1341 23.4354 39.2212C23.3484 39.3082 23.2303 39.3571 23.1071 39.3571H21.25C21.1269 39.3571 21.0088 39.3082 20.9217 39.2212C20.8346 39.1341 20.7857 39.016 20.7857 38.8929V37.0357C20.7857 36.9126 20.8346 36.7945 20.9217 36.7074C21.0088 36.6203 21.1269 36.5714 21.25 36.5714H23.1071C23.2303 36.5714 23.3484 36.6203 23.4354 36.7074C23.5225 36.7945 23.5714 36.9126 23.5714 37.0357V38.8929ZM23.1071 33.978L22.0426 35.0426L21.386 34.386L22.4505 33.3214L21.386 32.2569L22.0426 31.6003L23.1071 32.6648L24.1717 31.6002L24.8283 32.2569L23.7638 33.3214L24.8283 34.386L24.1717 35.0426L23.1071 33.978ZM28.2143 30.5357C27.9388 30.5357 27.6695 30.454 27.4405 30.301C27.2114 30.1479 27.0329 29.9304 26.9275 29.6759C26.822 29.4214 26.7944 29.1413 26.8482 28.8711C26.9019 28.6009 27.0346 28.3528 27.2294 28.158C27.4242 27.9632 27.6724 27.8305 27.9426 27.7768C28.2127 27.723 28.4928 27.7506 28.7473 27.856C29.0018 27.9614 29.2194 28.14 29.3724 28.369C29.5255 28.5981 29.6071 28.8674 29.6071 29.1429C29.6067 29.5121 29.4598 29.8662 29.1987 30.1273C28.9376 30.3884 28.5836 30.5353 28.2143 30.5357ZM26.4931 22.5069L27.1497 21.8503L28.2143 22.9148L29.2789 21.8502L29.9354 22.5069L28.8709 23.5714L29.9354 24.636L29.2789 25.2926L28.2143 24.228L27.1497 25.2926L26.4931 24.636L27.5577 23.5714L26.4931 22.5069ZM26.0635 26.8214C26.0643 27.1228 26.0054 27.4214 25.89 27.6998C25.7747 27.9783 25.6053 28.2311 25.3916 28.4436C25.2532 28.5819 25.1462 28.7484 25.0778 28.9317C25.0094 29.115 24.9812 29.3108 24.9951 29.5059C25.0089 29.7011 25.0646 29.891 25.1582 30.0627C25.2518 30.2345 25.3813 30.3842 25.5378 30.5015L27.5643 32.0214C27.622 32.0647 27.6687 32.1208 27.701 32.1852C27.7332 32.2497 27.75 32.3208 27.75 32.3929V36.1071C27.7493 36.7226 27.5045 37.3127 27.0693 37.7479C26.6341 38.1831 26.044 38.4279 25.4286 38.4286H24.5V37.5H25.4286C25.7979 37.4996 26.1519 37.3527 26.413 37.0916C26.6741 36.8305 26.821 36.4764 26.8214 36.1071V32.625L24.9807 31.2444C24.7177 31.0472 24.5002 30.7958 24.3429 30.5072C24.1856 30.2187 24.0921 29.8996 24.0688 29.5718C24.0455 29.2439 24.0929 28.9149 24.2079 28.6069C24.3228 28.299 24.5026 28.0194 24.735 27.787C24.8618 27.6602 24.9624 27.5096 25.031 27.344C25.0996 27.1783 25.1349 27.0007 25.1349 26.8214C25.1349 26.6421 25.0996 26.4646 25.031 26.2989C24.9624 26.1332 24.8618 25.9827 24.735 25.8559L23.4354 24.5563C23.1834 24.3056 22.9835 24.0074 22.8475 23.679C22.7114 23.3505 22.6419 22.9984 22.6429 22.6429H23.5714C23.5708 22.8764 23.6165 23.1077 23.7058 23.3235C23.7952 23.5392 23.9265 23.7351 24.0921 23.8997L25.3916 25.1993C25.6053 25.4118 25.7747 25.6646 25.89 25.943C26.0054 26.2215 26.0643 26.52 26.0635 26.8214ZM21.7143 19.3929C21.7143 19.2697 21.7632 19.1516 21.8503 19.0646C21.9373 18.9775 22.0554 18.9286 22.1786 18.9286H24.0357C24.1589 18.9286 24.2769 18.9775 24.364 19.0646C24.4511 19.1516 24.5 19.2697 24.5 19.3929V21.25C24.5 21.3731 24.4511 21.4912 24.364 21.5783C24.2769 21.6654 24.1589 21.7143 24.0357 21.7143H22.1786C22.0554 21.7143 21.9373 21.6654 21.8503 21.5783C21.7632 21.4912 21.7143 21.3731 21.7143 21.25V19.3929ZM19.9931 26.4931L21.386 25.1003C21.4731 25.0132 21.5912 24.9643 21.7143 24.9643C21.8374 24.9643 21.9555 25.0132 22.0426 25.1003L23.4354 26.4931C23.4786 26.5362 23.5128 26.5874 23.5361 26.6437C23.5594 26.7001 23.5714 26.7605 23.5714 26.8214C23.5714 26.8824 23.5594 26.9428 23.5361 26.9991C23.5128 27.0554 23.4786 27.1066 23.4354 27.1497L22.0426 28.5426C21.9555 28.6297 21.8374 28.6786 21.7143 28.6786C21.5912 28.6786 21.4731 28.6297 21.386 28.5426L19.9931 27.1497C19.95 27.1066 19.9158 27.0554 19.8925 26.9991C19.8691 26.9428 19.8571 26.8824 19.8571 26.8214C19.8571 26.7605 19.8691 26.7001 19.8925 26.6437C19.9158 26.5874 19.95 26.5362 19.9931 26.4931Z" fill="white"/>
<defs>
<linearGradient id="paint0_linear_147_29" x1="4.93903" y1="63.2927" x2="62.7439" y2="-4.02439" gradientUnits="userSpaceOnUse">
<stop stop-color="white"/>
<stop offset="0.323723" stop-color="white" stop-opacity="0"/>
</linearGradient>
<linearGradient id="paint1_linear_147_29" x1="59.8171" y1="-7.68292" x2="4.93902" y2="60" gradientUnits="userSpaceOnUse">
<stop stop-color="white"/>
<stop offset="0.576615" stop-color="white" stop-opacity="0"/>
</linearGradient>
<linearGradient id="paint2_linear_147_29" x1="3.6996" y1="10.5968" x2="52.7769" y2="46.5871" gradientUnits="userSpaceOnUse">
<stop stop-color="white"/>
<stop offset="0.323723" stop-color="white" stop-opacity="0"/>
</linearGradient>
<linearGradient id="paint3_linear_147_29" x1="55.3044" y1="64.3871" x2="5.02112" y2="33.8026" gradientUnits="userSpaceOnUse">
<stop stop-color="white"/>
<stop offset="0.576615" stop-color="white" stop-opacity="0"/>
</linearGradient>
</defs>
</svg>
