<svg width="60" height="60" viewBox="0 0 60 60" fill="none" xmlns="http://www.w3.org/2000/svg">
<rect x="0.5" y="0.5" width="59" height="59" rx="29.5" stroke="url(#paint0_linear_147_26)"/>
<rect x="0.5" y="0.5" width="59" height="59" rx="29.5" stroke="url(#paint1_linear_147_26)"/>
<rect x="8.5" y="8.5" width="42" height="44.9313" rx="21" stroke="url(#paint2_linear_147_26)"/>
<rect x="8.5" y="8.5" width="42" height="44.9313" rx="21" stroke="url(#paint3_linear_147_26)"/>
<path fill-rule="evenodd" clip-rule="evenodd" d="M35.1582 21.1857L32.711 18.6235V21.1857H35.1582ZM40.4854 29.8362H31.7827C31.5005 29.8362 31.2681 30.0686 31.2681 30.3508V43.4167C31.2681 43.6989 31.5005 43.9313 31.7827 43.9313H40.4854C40.7676 43.9313 41 43.6989 41 43.4167V30.3508C41 30.0686 40.7676 29.8362 40.4854 29.8362ZM39.4587 31.3989V33.7749H32.8096V31.3989H39.4587ZM32.3922 30.5618H39.8772C40.1084 30.5618 40.2958 30.7492 40.2958 30.9804V34.1935C40.2958 34.4247 40.1084 34.612 39.8772 34.612H32.3922C32.161 34.612 31.9737 34.4247 31.9737 34.1935V30.9804C31.9737 30.7492 32.161 30.5618 32.3922 30.5618ZM33.6585 35.9898V36.5957H32.8108V35.9898H33.6585ZM32.3922 35.1527H34.0771C34.3083 35.1527 34.4956 35.3401 34.4956 35.5713V37.0142C34.4956 37.2454 34.3083 37.4327 34.0771 37.4327H32.3922C32.161 37.4327 31.9737 37.2454 31.9737 37.0142V35.5713C31.9737 35.3401 32.161 35.1527 32.3922 35.1527ZM36.5588 35.9898V36.5957H35.711V35.9898H36.5588ZM35.2925 35.1527H36.9773C37.2085 35.1527 37.3958 35.3401 37.3958 35.5713V37.0142C37.3958 37.2454 37.2085 37.4327 36.9773 37.4327H35.2925C35.0613 37.4327 34.8739 37.2454 34.8739 37.0142V35.5713C34.8739 35.3401 35.0613 35.1527 35.2925 35.1527ZM39.459 35.9898V36.5957H38.6112V35.9898H39.459ZM38.1927 35.1527H39.8775C40.1087 35.1527 40.2961 35.3401 40.2961 35.5713V37.0142C40.2961 37.2454 40.1087 37.4327 39.8775 37.4327H38.1927C37.9615 37.4327 37.7742 37.2454 37.7742 37.0142V35.5713C37.7742 35.3401 37.9615 35.1527 38.1927 35.1527ZM33.6586 38.8105V39.4164H32.8109V38.8105H33.6586ZM32.3923 37.9735H34.0772C34.3084 37.9735 34.4957 38.1608 34.4957 38.392V39.8349C34.4957 40.0661 34.3084 40.2535 34.0772 40.2535H32.3923C32.1611 40.2535 31.9738 40.0661 31.9738 39.8349V38.392C31.9738 38.1608 32.1611 37.9735 32.3923 37.9735ZM36.5589 38.8105V39.4164H35.7111V38.8105H36.5589ZM35.2926 37.9735H36.9774C37.2086 37.9735 37.3959 38.1608 37.3959 38.392V39.8349C37.3959 40.0661 37.2086 40.2535 36.9774 40.2535H35.2926C35.0614 40.2535 34.874 40.0661 34.874 39.8349V38.392C34.874 38.1608 35.0614 37.9735 35.2926 37.9735ZM33.6587 41.6313V42.2371H32.811V41.6313H33.6587ZM32.3925 40.7942H34.0773C34.3085 40.7942 34.4958 40.9815 34.4958 41.2127V42.6557C34.4958 42.8869 34.3085 43.0742 34.0773 43.0742H32.3925C32.1613 43.0742 31.9739 42.8869 31.9739 42.6557V41.2127C31.9739 40.9815 32.1613 40.7942 32.3925 40.7942ZM36.559 41.6313V42.2371H35.7112V41.6313H36.559ZM35.2927 40.7942H36.9775C37.2087 40.7942 37.396 40.9815 37.396 41.2127V42.6557C37.396 42.8869 37.2087 43.0742 36.9775 43.0742H35.2927C35.0615 43.0742 34.8742 42.8869 34.8742 42.6557V41.2127C34.8742 40.9815 35.0615 40.7942 35.2927 40.7942ZM39.4592 38.8094V42.2371H38.6115V38.8094H39.4592ZM38.1929 37.9723H39.8777C40.1089 37.9723 40.2963 38.1597 40.2963 38.3909V42.6545C40.2963 42.8857 40.1089 43.0731 39.8777 43.0731H38.1929C37.9617 43.0731 37.7744 42.8857 37.7744 42.6545V38.3909C37.7744 38.1597 37.9617 37.9723 38.1929 37.9723ZM28.2973 37.6949H22.829C22.7164 37.6949 22.6239 37.7886 22.6239 37.9V38.6399C22.6239 38.7525 22.7175 38.845 22.829 38.845H28.2973C28.41 38.845 28.5025 38.7513 28.5025 38.6399V37.9C28.5025 37.7874 28.4088 37.6949 28.2973 37.6949ZM28.8605 39.6832H23.3922C23.2796 39.6832 23.1871 39.7769 23.1871 39.8884V40.6282C23.1871 40.7408 23.2807 40.8333 23.3922 40.8333H28.8605C28.9732 40.8333 29.0656 40.7397 29.0656 40.6282V39.8884C29.0656 39.7757 28.972 39.6832 28.8605 39.6832ZM21.806 41.6811C21.87 41.3491 22.0917 41.0693 22.3952 40.9293C22.3881 40.9044 22.381 40.8795 22.3751 40.8547H19.3671C19.1359 40.8547 18.9485 40.6673 18.9485 40.4361L18.9473 19.6633H18V41.6833H21.8047L21.806 41.6811ZM29.2958 41.5755C29.3065 41.6099 29.3148 41.6455 29.3219 41.6811H30.434V40.8546H29.8791C29.808 41.1736 29.5898 41.4404 29.2958 41.5755ZM23.3925 41.6704H22.8293C22.7167 41.6704 22.6242 41.7641 22.6242 41.8755V42.6154C22.6242 42.728 22.7178 42.8205 22.8293 42.8205H28.2976C28.4103 42.8205 28.5028 42.7268 28.5028 42.6154V41.8755C28.5028 41.7629 28.4091 41.6704 28.2976 41.6704H23.3925ZM23.2882 32.4838L28.5701 33.8995C29.1226 34.0477 29.4546 34.6216 29.3064 35.1741L29.1144 35.889C29.0408 36.1653 28.8594 36.387 28.6294 36.5198V36.5186C28.3994 36.6526 28.1148 36.6988 27.8398 36.6253L22.5578 35.2097C22.0053 35.0614 21.6733 34.4876 21.8215 33.9339L22.0136 33.2189C22.1618 32.6664 22.7356 32.3344 23.2881 32.4826L23.2882 32.4838ZM28.3543 34.7057L23.0723 33.2901C22.9621 33.2604 22.8494 33.3256 22.8198 33.4359L22.6277 34.1509C22.5981 34.2611 22.6633 34.3738 22.7736 34.4034L28.0343 35.8131C28.0983 35.8286 28.1469 35.8369 28.2121 35.7989V35.7977C28.2785 35.7586 28.2951 35.7135 28.3141 35.6507L28.4991 34.9583C28.5287 34.848 28.4635 34.7354 28.3532 34.7058L28.3543 34.7057ZM22.407 27.8633C22.1758 27.8633 21.9885 27.676 21.9885 27.4448C21.9885 27.2136 22.1758 27.0263 22.407 27.0263H33.5449C33.7761 27.0263 33.9635 27.2136 33.9635 27.4448C33.9635 27.676 33.7761 27.8633 33.5449 27.8633L22.407 27.8657V27.8633ZM22.407 30.6046H30.4338V40.0163H29.9038V39.8871C29.9038 39.4733 29.6596 39.1081 29.2967 38.9409C29.3252 38.8461 29.3406 38.7441 29.3406 38.6398V37.8999C29.3406 37.3261 28.8723 36.8577 28.2984 36.8577H22.8301C22.2562 36.8577 21.7879 37.3261 21.7879 37.8999V38.6398C21.7879 39.0536 22.0321 39.4187 22.3949 39.5859C22.3463 39.7484 22.3511 39.8539 22.3511 40.0163H19.7853L19.7841 18H31.8742V21.6032C31.8742 21.8344 32.0616 22.0217 32.2928 22.0217H35.7156V28.9992H31.7828C31.2529 28.9992 30.7833 29.3086 30.5628 29.771H22.4055C22.1743 29.771 21.987 29.9584 21.987 30.1896C21.987 30.4208 22.1743 30.6081 22.4055 30.6081L22.407 30.6046ZM22.407 25.1223C22.1758 25.1223 21.9885 24.9349 21.9885 24.7037C21.9885 24.4725 22.1758 24.2852 22.407 24.2852H33.5449C33.7761 24.2852 33.9635 24.4725 33.9635 24.7037C33.9635 24.9349 33.7761 25.1223 33.5449 25.1223L22.407 25.1258V25.1223ZM22.407 22.381C22.1758 22.381 21.9885 22.1937 21.9885 21.9625C21.9885 21.7313 22.1758 21.544 22.407 21.544H29.9336C30.1648 21.544 30.3521 21.7313 30.3521 21.9625C30.3521 22.1937 30.1648 22.381 29.9336 22.381H22.407Z" fill="white"/>
<defs>
<linearGradient id="paint0_linear_147_26" x1="4.93903" y1="63.2927" x2="62.7439" y2="-4.02439" gradientUnits="userSpaceOnUse">
<stop stop-color="white"/>
<stop offset="0.323723" stop-color="white" stop-opacity="0"/>
</linearGradient>
<linearGradient id="paint1_linear_147_26" x1="59.8171" y1="-7.68292" x2="4.93902" y2="60" gradientUnits="userSpaceOnUse">
<stop stop-color="white"/>
<stop offset="0.576615" stop-color="white" stop-opacity="0"/>
</linearGradient>
<linearGradient id="paint2_linear_147_26" x1="3.31855" y1="10.5929" x2="53.4385" y2="50.6644" gradientUnits="userSpaceOnUse">
<stop stop-color="white"/>
<stop offset="0.323723" stop-color="white" stop-opacity="0"/>
</linearGradient>
<linearGradient id="paint3_linear_147_26" x1="59.496" y1="64.3029" x2="7.4102" y2="29.7633" gradientUnits="userSpaceOnUse">
<stop stop-color="white"/>
<stop offset="0.576615" stop-color="white" stop-opacity="0"/>
</linearGradient>
</defs>
</svg>
