<svg width="60" height="60" viewBox="0 0 60 60" fill="none" xmlns="http://www.w3.org/2000/svg">
<rect x="0.5" y="0.5" width="59" height="59" rx="29.5" stroke="url(#paint0_linear_147_32)"/>
<rect x="0.5" y="0.5" width="59" height="59" rx="29.5" stroke="url(#paint1_linear_147_32)"/>
<rect x="8.5" y="8.5" width="42" height="41.9998" rx="20.9999" stroke="url(#paint2_linear_147_32)"/>
<rect x="8.5" y="8.5" width="42" height="41.9998" rx="20.9999" stroke="url(#paint3_linear_147_32)"/>
<path d="M23.7185 29.3079H22.8391V20.3247C22.8391 20.1708 22.9694 20.0417 23.1221 20.0417H23.7185V29.3089L23.7185 29.3079ZM24.9954 30.605L24.8303 30.2479V20.0405H27.2505V21.2534C27.2505 21.788 27.6851 22.2226 28.2196 22.2226H35.615C36.1496 22.2226 36.5853 21.788 36.5853 21.2534V20.0405H39.0055V39.0077H28.4333L28.1042 38.1137L28.3928 37.4186L29.3688 36.9682C29.5653 36.8773 29.6922 36.6796 29.6922 36.4629V34.9602C29.6922 34.7435 29.5664 34.5458 29.3688 34.4549L28.3928 34.0045L28.1042 33.3082L28.4748 32.2997C28.5501 32.0965 28.4995 31.8674 28.3457 31.7146L27.2833 30.6522C27.1294 30.4984 26.9015 30.4478 26.697 30.5231L25.6908 30.8937L24.9945 30.6051L24.9954 30.605ZM30.2882 32.6377C30.2882 32.33 30.0389 32.0818 29.7323 32.0818H29.7189C29.4111 32.0818 29.1629 32.3311 29.1629 32.6377C29.1629 32.9443 29.4123 33.1936 29.7189 33.1936H29.7323C30.04 33.1936 30.2882 32.9443 30.2882 32.6377ZM32.349 36.6929C32.349 36.3852 32.0997 36.137 31.7931 36.137H30.9744C30.6667 36.137 30.4185 36.3863 30.4185 36.6929C30.4185 36.9995 30.6678 37.2488 30.9744 37.2488H31.7931C32.1008 37.2488 32.349 36.9995 32.349 36.6929ZM37.0985 36.6929C37.0985 36.3852 36.8492 36.137 36.5426 36.137H33.8518C33.5441 36.137 33.2959 36.3863 33.2959 36.6929C33.2959 36.9995 33.5452 37.2488 33.8518 37.2488H36.5426C36.8503 37.2488 37.0985 36.9995 37.0985 36.6929ZM37.0985 34.6658C37.0985 34.3581 36.8492 34.1099 36.5426 34.1099H30.9758C30.668 34.1099 30.4199 34.3592 30.4199 34.6658C30.4199 34.9724 30.6692 35.2217 30.9758 35.2217H36.5426C36.8503 35.2217 37.0985 34.9724 37.0985 34.6658ZM37.0985 32.6376C37.0985 32.3299 36.8492 32.0817 36.5426 32.0817H31.7911C31.4834 32.0817 31.2352 32.331 31.2352 32.6376C31.2352 32.9442 31.4845 33.1935 31.7911 33.1935H36.5426C36.8503 33.1935 37.0985 32.9442 37.0985 32.6376ZM37.0985 30.6094C37.0985 30.3016 36.8492 30.0534 36.5426 30.0534H29.0587C28.751 30.0534 28.5028 30.3028 28.5028 30.6094C28.5028 30.9159 28.7521 31.1653 29.0587 31.1653H36.5426C36.8503 31.1653 37.0985 30.9159 37.0985 30.6094ZM37.0985 28.5811C37.0985 28.2734 36.8492 28.0252 36.5426 28.0252H33.8518C33.5441 28.0252 33.2959 28.2745 33.2959 28.5811C33.2959 28.8877 33.5452 29.137 33.8518 29.137H36.5426C36.8503 29.137 37.0985 28.8877 37.0985 28.5811ZM31.2341 24.526C31.2341 24.8337 31.4834 25.0819 31.79 25.0819H36.5415C36.8492 25.0819 37.0974 24.8326 37.0974 24.526C37.0974 24.2194 36.8481 23.9701 36.5415 23.9701H31.79C31.4823 23.9701 31.2341 24.2194 31.2341 24.526ZM26.4858 24.526C26.4858 24.8337 26.7351 25.0819 27.0417 25.0819H29.7325C30.0402 25.0819 30.2884 24.8326 30.2884 24.526C30.2884 24.2194 30.0391 23.9701 29.7325 23.9701H27.0417C26.734 23.9701 26.4858 24.2194 26.4858 24.526ZM26.4858 26.5542C26.4858 26.8619 26.7351 27.1101 27.0417 27.1101H36.5415C36.8492 27.1101 37.0974 26.8608 37.0974 26.5542C37.0974 26.2476 36.8481 25.9983 36.5415 25.9983H27.0417C26.734 25.9983 26.4858 26.2476 26.4858 26.5542ZM26.4858 28.5813C26.4858 28.889 26.7351 29.1372 27.0417 29.1372H31.7932C32.1009 29.1372 32.3491 28.8879 32.3491 28.5813C32.3491 28.2747 32.0998 28.0254 31.7932 28.0254H27.0417C26.734 28.0254 26.4858 28.2747 26.4858 28.5813ZM25.5503 35.7104C25.5503 36.957 24.5362 37.97 23.2907 37.97C22.0441 37.97 21.0289 36.9559 21.0289 35.7104C21.0289 34.4638 22.043 33.4486 23.2907 33.4486C24.5373 33.4486 25.5503 34.4627 25.5503 35.7104ZM24.7641 34.639C24.5519 34.4178 24.1993 34.4099 23.9769 34.6222L22.9392 35.6172L22.609 35.287C22.3911 35.0691 22.0396 35.0691 21.8218 35.287C21.6039 35.5049 21.6039 35.8564 21.8218 36.0743L22.5371 36.7896C22.6461 36.8986 22.7876 36.9525 22.9302 36.9525C23.0683 36.9525 23.2076 36.9008 23.3154 36.7975L24.7462 35.4252C24.9674 35.2129 24.9753 34.8603 24.7619 34.6379L24.7641 34.639ZM35.4735 18.7906H33.2892C33.0904 18.7906 32.9073 18.685 32.8074 18.5121C32.6243 18.1954 32.284 18 31.919 18C31.5484 18 31.216 18.192 31.0307 18.5121C30.9308 18.6839 30.7477 18.7906 30.5489 18.7906H28.3635V21.1097H35.4733L35.4735 18.7906ZM25.4682 39.4141L24.3688 39.8689C24.2396 39.9228 24.1352 40.0228 24.0757 40.1508L23.6848 40.9998H22.8942L22.5023 40.1497C22.4439 40.0228 22.3394 39.9228 22.2103 39.8689L21.1131 39.4141C20.9839 39.3602 20.8391 39.3579 20.7076 39.4062L19.8294 39.7297L19.2701 39.1704L19.5925 38.2933C19.6408 38.1619 19.6374 38.017 19.5846 37.8879L19.1298 36.7906C19.0759 36.6615 18.9759 36.557 18.849 36.4987L18 36.1067V35.315L18.849 34.923C18.9759 34.8646 19.0759 34.7602 19.1298 34.631L19.5846 33.5338C19.6385 33.4047 19.6407 33.2598 19.5925 33.1284L19.269 32.2502L19.8283 31.6909L20.7065 32.0143C20.8379 32.0626 20.9828 32.0592 21.112 32.0065L22.2092 31.5516C22.3383 31.4977 22.4428 31.3978 22.5011 31.2709L22.8931 30.4219H23.6848L24.0757 31.2698C24.1341 31.3967 24.2385 31.4977 24.3688 31.5505L25.4682 32.0053C25.5974 32.0593 25.7422 32.0615 25.8737 32.0132L26.7508 31.6909L27.31 32.2502L26.9866 33.1284C26.9383 33.2598 26.9417 33.4047 26.9945 33.5338L27.4493 34.631C27.5032 34.7602 27.6031 34.8646 27.73 34.923L28.5802 35.315V36.1067L27.73 36.4987C27.6031 36.5571 27.5032 36.6615 27.4493 36.7906L26.9945 37.8879C26.9405 38.017 26.9383 38.1619 26.9866 38.2933L27.3089 39.1704L26.7496 39.7297L25.8725 39.4073C25.7411 39.359 25.5963 39.3624 25.4671 39.4152L25.4682 39.4141ZM26.6631 35.7102C26.6631 33.8493 25.1504 32.3356 23.2908 32.3356C21.4311 32.3356 19.9161 33.8494 19.9161 35.7102C19.9161 37.5711 21.43 39.0826 23.2908 39.0826C25.1516 39.0826 26.6631 37.5699 26.6631 35.7102ZM40.7147 20.0404H40.1194V39.5633C40.1194 39.871 39.8701 40.1192 39.5635 40.1192H27.9322L27.2842 40.7672C27.1303 40.9211 26.9024 40.9716 26.6979 40.8963L25.6917 40.5257L24.9954 40.8144L24.9101 40.9997H40.7147C40.8686 40.9997 41 40.8694 41 40.7166V20.3232C41 20.1693 40.8696 20.0404 40.7147 20.0404Z" fill="white"/>
<defs>
<linearGradient id="paint0_linear_147_32" x1="4.93903" y1="63.2927" x2="62.7439" y2="-4.02439" gradientUnits="userSpaceOnUse">
<stop stop-color="white"/>
<stop offset="0.323723" stop-color="white" stop-opacity="0"/>
</linearGradient>
<linearGradient id="paint1_linear_147_32" x1="59.8171" y1="-7.68292" x2="4.93902" y2="60" gradientUnits="userSpaceOnUse">
<stop stop-color="white"/>
<stop offset="0.576615" stop-color="white" stop-opacity="0"/>
</linearGradient>
<linearGradient id="paint2_linear_147_32" x1="3.31855" y1="10.4274" x2="50.8264" y2="51" gradientUnits="userSpaceOnUse">
<stop stop-color="white"/>
<stop offset="0.323723" stop-color="white" stop-opacity="0"/>
</linearGradient>
<linearGradient id="paint3_linear_147_32" x1="59.496" y1="60.7094" x2="9.56064" y2="25.3384" gradientUnits="userSpaceOnUse">
<stop stop-color="white"/>
<stop offset="0.576615" stop-color="white" stop-opacity="0"/>
</linearGradient>
</defs>
</svg>
