<svg width="61" height="60" viewBox="0 0 61 60" fill="none" xmlns="http://www.w3.org/2000/svg">
<rect x="1" y="0.5" width="59" height="59" rx="29.5" stroke="url(#paint0_linear_28_704)"/>
<rect x="1" y="0.5" width="59" height="59" rx="29.5" stroke="url(#paint1_linear_28_704)"/>
<rect x="9" y="8.5" width="39.3519" height="41.2039" rx="19.676" stroke="url(#paint2_linear_28_704)"/>
<rect x="9" y="8.5" width="39.3519" height="41.2039" rx="19.676" stroke="url(#paint3_linear_28_704)"/>
<path fill-rule="evenodd" clip-rule="evenodd" d="M37.5114 24.0098C36.772 24.0117 36.172 24.6107 36.1701 25.3501V26.0146L38.8519 26.0155V25.3501C38.85 24.6107 38.2509 24.0117 37.5114 24.0098Z" fill="white"/>
<path d="M36.1699 26.9395H38.8517V36.4894H36.1699V26.9395Z" fill="white"/>
<path fill-rule="evenodd" clip-rule="evenodd" d="M37.5114 40.2035L38.6556 37.4141H36.3672L37.5114 40.2035Z" fill="white"/>
<path fill-rule="evenodd" clip-rule="evenodd" d="M37.8814 19.4221H37.8833C37.8776 18.6394 37.2448 18.0067 36.4622 18C35.6795 18.0029 35.0449 18.6375 35.042 19.4211V20.9106L37.8814 20.9096L37.8814 19.4221Z" fill="white"/>
<path fill-rule="evenodd" clip-rule="evenodd" d="M19.0086 18.5106C18.6827 18.8347 18.5 19.2751 18.5 19.7337V39.4114C18.501 39.5931 18.6481 39.7402 18.8298 39.7412H33.7865C33.9682 39.7402 34.1144 39.5931 34.1163 39.4114V19.4221C34.1153 18.9077 34.2855 18.4077 34.598 18H20.2328C19.7732 18.001 19.3327 18.1837 19.0086 18.5106ZM21.8126 20.9116L30.8038 20.9106C31.0596 20.9106 31.2663 21.1183 31.2663 21.3731C31.2663 21.6289 31.0595 21.8356 30.8038 21.8356H21.8126C21.5568 21.8356 21.3501 21.6289 21.3501 21.3731C21.3501 21.1183 21.5568 20.9106 21.8126 20.9106V20.9116ZM21.8126 24.6605L30.8038 24.6595C31.0557 24.6653 31.2566 24.8711 31.2566 25.122C31.2566 25.3739 31.0557 25.5788 30.8038 25.5855H21.8126C21.6876 25.5884 21.5674 25.5403 21.478 25.4537C21.3895 25.3662 21.3395 25.247 21.3395 25.122C21.3395 24.998 21.3895 24.8787 21.478 24.7912C21.5674 24.7047 21.6876 24.6566 21.8126 24.6595V24.6605ZM21.8126 28.4094L30.8038 28.4084C31.0596 28.4084 31.2663 28.6161 31.2663 28.8709C31.2663 29.1267 31.0595 29.3334 30.8038 29.3334H21.8126C21.5568 29.3334 21.3501 29.1267 21.3501 28.8709C21.3501 28.6161 21.5568 28.4084 21.8126 28.4084V28.4094ZM21.8126 32.1583L30.8038 32.1573C31.0557 32.1631 31.2566 32.3689 31.2566 32.6198C31.2566 32.8717 31.0557 33.0775 30.8038 33.0833H21.8126C21.6876 33.0862 21.5674 33.0381 21.478 32.9515C21.3895 32.864 21.3395 32.7448 21.3395 32.6198C21.3395 32.4958 21.3895 32.3765 21.478 32.289C21.5674 32.2025 21.6876 32.1544 21.8126 32.1573V32.1583ZM21.8126 35.9072L30.8038 35.9062C31.0596 35.9062 31.2663 36.1139 31.2663 36.3687C31.2663 36.6245 31.0595 36.8312 30.8038 36.8312H21.8126C21.5568 36.8312 21.3501 36.6245 21.3501 36.3687C21.3501 36.1139 21.5568 35.9062 21.8126 35.9062V35.9072Z" fill="white"/>
<defs>
<linearGradient id="paint0_linear_28_704" x1="5.43903" y1="63.2927" x2="63.2439" y2="-4.02439" gradientUnits="userSpaceOnUse">
<stop stop-color="white"/>
<stop offset="0.323723" stop-color="white" stop-opacity="0"/>
</linearGradient>
<linearGradient id="paint1_linear_28_704" x1="60.3171" y1="-7.68292" x2="5.43902" y2="60" gradientUnits="userSpaceOnUse">
<stop stop-color="white"/>
<stop offset="0.576615" stop-color="white" stop-opacity="0"/>
</linearGradient>
<linearGradient id="paint2_linear_28_704" x1="4.10685" y1="10.3825" x2="50.3638" y2="48.1531" gradientUnits="userSpaceOnUse">
<stop stop-color="white"/>
<stop offset="0.323723" stop-color="white" stop-opacity="0"/>
</linearGradient>
<linearGradient id="paint3_linear_28_704" x1="56.8247" y1="59.7338" x2="8.58082" y2="27.0606" gradientUnits="userSpaceOnUse">
<stop stop-color="white"/>
<stop offset="0.576615" stop-color="white" stop-opacity="0"/>
</linearGradient>
</defs>
</svg>
