<svg width="61" height="60" viewBox="0 0 61 60" fill="none" xmlns="http://www.w3.org/2000/svg">
<rect x="1" y="0.5" width="59" height="59" rx="29.5" stroke="url(#paint0_linear_28_739)"/>
<rect x="1" y="0.5" width="59" height="59" rx="29.5" stroke="url(#paint1_linear_28_739)"/>
<rect x="9" y="8.5" width="43" height="43" rx="21.5" stroke="url(#paint2_linear_28_739)"/>
<rect x="9" y="8.5" width="43" height="43" rx="21.5" stroke="url(#paint3_linear_28_739)"/>
<path d="M33.4205 28.7756C37.7555 28.7756 41.3691 32.0155 41.9636 36.1925H29.4577C29.4806 35.9943 29.4416 35.7846 29.3294 35.5898L29.2824 35.5096H31.0856C31.9437 35.5096 32.6425 34.8108 32.6425 33.9527V28.8112C32.8992 28.7883 33.1582 28.7756 33.4205 28.7756ZM43.7978 37.077H17.5075C17.228 37.077 17 37.3061 17 37.5845V38.4747C17 38.7542 17.2291 38.9822 17.5075 38.9822H43.7966C44.0761 38.9822 44.3041 38.7531 44.3041 38.4747V37.5845C44.3053 37.3061 44.0762 37.077 43.7978 37.077ZM22.3708 35.5109L22.0649 36.0356C22.0213 36.1112 22.0798 36.1926 22.1554 36.1926H28.4748C28.5492 36.1926 28.6088 36.1101 28.5653 36.0356L28.2594 35.5109H22.3708ZM31.7582 25.8543C31.7582 25.4842 31.4558 25.1818 31.0857 25.1818L19.5435 25.1806C19.1735 25.1806 18.871 25.483 18.871 25.8531V32.2309H31.7582V25.8543ZM19.5435 34.6252H31.0857C31.4557 34.6252 31.7582 34.3228 31.7582 33.9527V33.1164H18.871V33.9527C18.871 34.3227 19.1734 34.6252 19.5435 34.6252ZM31.0857 24.296C31.9438 24.296 32.6426 24.9949 32.6426 25.853V28.2599C32.8958 28.3023 33.1547 28.3253 33.4193 28.3253C35.9947 28.3253 38.082 26.2379 38.082 23.6626C38.082 21.0874 35.9946 19 33.4193 19C30.8441 19 28.7567 21.0874 28.7567 23.6626C28.7567 23.878 28.7716 24.0899 28.8003 24.2973H31.0858L31.0857 24.296ZM17.9601 41.4097H43.3452V39.8677H17.9601V41.4097Z" fill="#CE8943"/>
<defs>
<linearGradient id="paint0_linear_28_739" x1="5.43903" y1="63.2927" x2="63.2439" y2="-4.02439" gradientUnits="userSpaceOnUse">
<stop stop-color="#88292B"/>
<stop offset="0.323723" stop-color="#88292B" stop-opacity="0"/>
</linearGradient>
<linearGradient id="paint1_linear_28_739" x1="60.3171" y1="-7.68292" x2="5.43902" y2="60" gradientUnits="userSpaceOnUse">
<stop stop-color="#88292B"/>
<stop offset="0.576615" stop-color="#88292B" stop-opacity="0.12"/>
</linearGradient>
<linearGradient id="paint2_linear_28_739" x1="3.70968" y1="10.4839" x2="52.3226" y2="52" gradientUnits="userSpaceOnUse">
<stop stop-color="#88292B"/>
<stop offset="0.323723" stop-color="#88292B" stop-opacity="0"/>
</linearGradient>
<linearGradient id="paint3_linear_28_739" x1="61.1935" y1="61.9355" x2="10.0968" y2="25.7419" gradientUnits="userSpaceOnUse">
<stop stop-color="#88292B"/>
<stop offset="0.576615" stop-color="#88292B" stop-opacity="0"/>
</linearGradient>
</defs>
</svg>
