<svg width="61" height="60" viewBox="0 0 61 60" fill="none" xmlns="http://www.w3.org/2000/svg">
<rect x="1" y="0.5" width="59" height="59" rx="29.5" stroke="url(#paint0_linear_28_714)"/>
<rect x="1" y="0.5" width="59" height="59" rx="29.5" stroke="url(#paint1_linear_28_714)"/>
<rect x="9" y="8.5" width="43" height="43" rx="21.5" stroke="url(#paint2_linear_28_714)"/>
<rect x="9" y="8.5" width="43" height="43" rx="21.5" stroke="url(#paint3_linear_28_714)"/>
<path d="M26.5715 18.8574H25.6429V19.786H26.5715V18.8574Z" fill="#FFE4CF"/>
<path d="M31.2143 28.6073C31.4707 28.6073 31.6786 28.3994 31.6786 28.143C31.6786 27.8866 31.4707 27.6787 31.2143 27.6787C30.9579 27.6787 30.75 27.8866 30.75 28.143C30.75 28.3994 30.9579 28.6073 31.2143 28.6073Z" fill="#FFE4CF"/>
<path d="M25.6429 36.5H24.7143V37.4286H25.6429V36.5Z" fill="#FFE4CF"/>
<path d="M21.0799 41.1424H25.1786V42.071H21.0799C21.1762 42.3424 21.3541 42.5773 21.5891 42.7435C21.8242 42.9098 22.105 42.9992 22.3929 42.9996H34.4643V42.071H26.5715V41.1424H34.4643V40.2139H22.3929C22.105 40.2142 21.8242 40.3037 21.5891 40.4699C21.3541 40.6362 21.1762 40.8711 21.0799 41.1424Z" fill="#FFE4CF"/>
<path d="M24.7143 25.085L23.978 25.8213L24.7143 26.5576L25.4506 25.8213L24.7143 25.085Z" fill="#FFE4CF"/>
<path d="M40.5 40.2139H38.1786V41.1424H40.5V40.2139Z" fill="#FFE4CF"/>
<path d="M37.25 17H35.3929V43H37.25V17Z" fill="#FFE4CF"/>
<path d="M40.5 42.0713H38.1786V42.9999H40.5V42.0713Z" fill="#FFE4CF"/>
<path d="M40.5 17H38.1786V39.2857H40.5V17Z" fill="#FFE4CF"/>
<path d="M21 18.3929V39.7513C21.4013 39.4487 21.8903 39.2852 22.3929 39.2857H34.4643V17H22.3929C22.0236 17.0004 21.6695 17.1473 21.4084 17.4084C21.1473 17.6695 21.0004 18.0236 21 18.3929ZM26.5714 37.8929C26.5714 38.016 26.5225 38.1341 26.4354 38.2212C26.3484 38.3082 26.2303 38.3571 26.1071 38.3571H24.25C24.1269 38.3571 24.0088 38.3082 23.9217 38.2212C23.8346 38.1341 23.7857 38.016 23.7857 37.8929V36.0357C23.7857 35.9126 23.8346 35.7945 23.9217 35.7074C24.0088 35.6203 24.1269 35.5714 24.25 35.5714H26.1071C26.2303 35.5714 26.3484 35.6203 26.4354 35.7074C26.5225 35.7945 26.5714 35.9126 26.5714 36.0357V37.8929ZM26.1071 32.978L25.0426 34.0426L24.386 33.386L25.4505 32.3214L24.386 31.2569L25.0426 30.6003L26.1071 31.6648L27.1717 30.6002L27.8283 31.2569L26.7638 32.3214L27.8283 33.386L27.1717 34.0426L26.1071 32.978ZM31.2143 29.5357C30.9388 29.5357 30.6695 29.454 30.4405 29.301C30.2114 29.1479 30.0329 28.9304 29.9275 28.6759C29.822 28.4214 29.7944 28.1413 29.8482 27.8711C29.9019 27.6009 30.0346 27.3528 30.2294 27.158C30.4242 26.9632 30.6724 26.8305 30.9426 26.7768C31.2127 26.723 31.4928 26.7506 31.7473 26.856C32.0018 26.9614 32.2194 27.14 32.3724 27.369C32.5255 27.5981 32.6071 27.8674 32.6071 28.1429C32.6067 28.5121 32.4598 28.8662 32.1987 29.1273C31.9376 29.3884 31.5836 29.5353 31.2143 29.5357ZM29.4931 21.5069L30.1497 20.8503L31.2143 21.9148L32.2789 20.8502L32.9354 21.5069L31.8709 22.5714L32.9354 23.636L32.2789 24.2926L31.2143 23.228L30.1497 24.2926L29.4931 23.636L30.5577 22.5714L29.4931 21.5069ZM29.0635 25.8214C29.0643 26.1228 29.0054 26.4214 28.89 26.6998C28.7747 26.9783 28.6053 27.2311 28.3916 27.4436C28.2532 27.5819 28.1462 27.7484 28.0778 27.9317C28.0094 28.115 27.9812 28.3108 27.9951 28.5059C28.0089 28.7011 28.0646 28.891 28.1582 29.0627C28.2518 29.2345 28.3813 29.3842 28.5378 29.5015L30.5643 31.0214C30.622 31.0647 30.6687 31.1208 30.701 31.1852C30.7332 31.2497 30.75 31.3208 30.75 31.3929V35.1071C30.7493 35.7226 30.5045 36.3127 30.0693 36.7479C29.6341 37.1831 29.044 37.4279 28.4286 37.4286H27.5V36.5H28.4286C28.7979 36.4996 29.1519 36.3527 29.413 36.0916C29.6741 35.8305 29.821 35.4764 29.8214 35.1071V31.625L27.9807 30.2444C27.7177 30.0472 27.5002 29.7958 27.3429 29.5072C27.1856 29.2187 27.0921 28.8996 27.0688 28.5718C27.0455 28.2439 27.0929 27.9149 27.2079 27.6069C27.3228 27.299 27.5026 27.0194 27.735 26.787C27.8618 26.6602 27.9624 26.5096 28.031 26.344C28.0996 26.1783 28.1349 26.0007 28.1349 25.8214C28.1349 25.6421 28.0996 25.4646 28.031 25.2989C27.9624 25.1332 27.8618 24.9827 27.735 24.8559L26.4354 23.5563C26.1834 23.3056 25.9835 23.0074 25.8475 22.679C25.7114 22.3505 25.6419 21.9984 25.6429 21.6429H26.5714C26.5708 21.8764 26.6165 22.1077 26.7058 22.3235C26.7952 22.5392 26.9265 22.7351 27.0921 22.8997L28.3916 24.1993C28.6053 24.4118 28.7747 24.6646 28.89 24.943C29.0054 25.2215 29.0643 25.52 29.0635 25.8214ZM24.7143 18.3929C24.7143 18.2697 24.7632 18.1516 24.8503 18.0646C24.9373 17.9775 25.0554 17.9286 25.1786 17.9286H27.0357C27.1589 17.9286 27.2769 17.9775 27.364 18.0646C27.4511 18.1516 27.5 18.2697 27.5 18.3929V20.25C27.5 20.3731 27.4511 20.4912 27.364 20.5783C27.2769 20.6654 27.1589 20.7143 27.0357 20.7143H25.1786C25.0554 20.7143 24.9373 20.6654 24.8503 20.5783C24.7632 20.4912 24.7143 20.3731 24.7143 20.25V18.3929ZM22.9931 25.4931L24.386 24.1003C24.4731 24.0132 24.5912 23.9643 24.7143 23.9643C24.8374 23.9643 24.9555 24.0132 25.0426 24.1003L26.4354 25.4931C26.4786 25.5362 26.5128 25.5874 26.5361 25.6437C26.5594 25.7001 26.5714 25.7605 26.5714 25.8214C26.5714 25.8824 26.5594 25.9428 26.5361 25.9991C26.5128 26.0554 26.4786 26.1066 26.4354 26.1497L25.0426 27.5426C24.9555 27.6297 24.8374 27.6786 24.7143 27.6786C24.5912 27.6786 24.4731 27.6297 24.386 27.5426L22.9931 26.1497C22.95 26.1066 22.9158 26.0554 22.8925 25.9991C22.8691 25.9428 22.8571 25.8824 22.8571 25.8214C22.8571 25.7605 22.8691 25.7001 22.8925 25.6437C22.9158 25.5874 22.95 25.5362 22.9931 25.4931Z" fill="#CE8943"/>
<defs>
<linearGradient id="paint0_linear_28_714" x1="5.43903" y1="63.2927" x2="63.2439" y2="-4.02439" gradientUnits="userSpaceOnUse">
<stop stop-color="#88292B"/>
<stop offset="0.323723" stop-color="#88292B" stop-opacity="0"/>
</linearGradient>
<linearGradient id="paint1_linear_28_714" x1="60.3171" y1="-7.68292" x2="5.43902" y2="60" gradientUnits="userSpaceOnUse">
<stop stop-color="#88292B"/>
<stop offset="0.576615" stop-color="#88292B" stop-opacity="0.12"/>
</linearGradient>
<linearGradient id="paint2_linear_28_714" x1="3.70968" y1="10.4839" x2="52.3226" y2="52" gradientUnits="userSpaceOnUse">
<stop stop-color="#88292B"/>
<stop offset="0.323723" stop-color="#88292B" stop-opacity="0"/>
</linearGradient>
<linearGradient id="paint3_linear_28_714" x1="61.1935" y1="61.9355" x2="10.0968" y2="25.7419" gradientUnits="userSpaceOnUse">
<stop stop-color="#88292B"/>
<stop offset="0.576615" stop-color="#88292B" stop-opacity="0"/>
</linearGradient>
</defs>
</svg>
