<svg width="61" height="60" viewBox="0 0 61 60" fill="none" xmlns="http://www.w3.org/2000/svg">
<rect x="1" y="0.5" width="59" height="59" rx="29.5" stroke="url(#paint0_linear_28_744)"/>
<rect x="1" y="0.5" width="59" height="59" rx="29.5" stroke="url(#paint1_linear_28_744)"/>
<rect x="9" y="8.5" width="43" height="43" rx="21.5" stroke="url(#paint2_linear_28_744)"/>
<rect x="9" y="8.5" width="43" height="43" rx="21.5" stroke="url(#paint3_linear_28_744)"/>
<path d="M24.7185 30.3079H23.8391V21.3247C23.8391 21.1708 23.9694 21.0417 24.1221 21.0417H24.7185V30.3089L24.7185 30.3079ZM25.9954 31.605L25.8303 31.2479V21.0405H28.2505V22.2534C28.2505 22.788 28.6851 23.2226 29.2196 23.2226H36.615C37.1496 23.2226 37.5853 22.788 37.5853 22.2534V21.0405H40.0055V40.0077H29.4333L29.1042 39.1137L29.3928 38.4186L30.3688 37.9682C30.5653 37.8773 30.6922 37.6796 30.6922 37.4629V35.9602C30.6922 35.7435 30.5664 35.5458 30.3688 35.4549L29.3928 35.0045L29.1042 34.3082L29.4748 33.2997C29.5501 33.0965 29.4995 32.8674 29.3457 32.7146L28.2833 31.6522C28.1294 31.4984 27.9015 31.4478 27.697 31.5231L26.6908 31.8937L25.9945 31.6051L25.9954 31.605ZM31.2882 33.6377C31.2882 33.33 31.0389 33.0818 30.7323 33.0818H30.7189C30.4111 33.0818 30.1629 33.3311 30.1629 33.6377C30.1629 33.9443 30.4123 34.1936 30.7189 34.1936H30.7323C31.04 34.1936 31.2882 33.9443 31.2882 33.6377ZM33.349 37.6929C33.349 37.3852 33.0997 37.137 32.7931 37.137H31.9744C31.6667 37.137 31.4185 37.3863 31.4185 37.6929C31.4185 37.9995 31.6678 38.2488 31.9744 38.2488H32.7931C33.1008 38.2488 33.349 37.9995 33.349 37.6929ZM38.0985 37.6929C38.0985 37.3852 37.8492 37.137 37.5426 37.137H34.8518C34.5441 37.137 34.2959 37.3863 34.2959 37.6929C34.2959 37.9995 34.5452 38.2488 34.8518 38.2488H37.5426C37.8503 38.2488 38.0985 37.9995 38.0985 37.6929ZM38.0985 35.6658C38.0985 35.3581 37.8492 35.1099 37.5426 35.1099H31.9758C31.668 35.1099 31.4199 35.3592 31.4199 35.6658C31.4199 35.9724 31.6692 36.2217 31.9758 36.2217H37.5426C37.8503 36.2217 38.0985 35.9724 38.0985 35.6658ZM38.0985 33.6376C38.0985 33.3299 37.8492 33.0817 37.5426 33.0817H32.7911C32.4834 33.0817 32.2352 33.331 32.2352 33.6376C32.2352 33.9442 32.4845 34.1935 32.7911 34.1935H37.5426C37.8503 34.1935 38.0985 33.9442 38.0985 33.6376ZM38.0985 31.6094C38.0985 31.3016 37.8492 31.0534 37.5426 31.0534H30.0587C29.751 31.0534 29.5028 31.3028 29.5028 31.6094C29.5028 31.9159 29.7521 32.1653 30.0587 32.1653H37.5426C37.8503 32.1653 38.0985 31.9159 38.0985 31.6094ZM38.0985 29.5811C38.0985 29.2734 37.8492 29.0252 37.5426 29.0252H34.8518C34.5441 29.0252 34.2959 29.2745 34.2959 29.5811C34.2959 29.8877 34.5452 30.137 34.8518 30.137H37.5426C37.8503 30.137 38.0985 29.8877 38.0985 29.5811ZM32.2341 25.526C32.2341 25.8337 32.4834 26.0819 32.79 26.0819H37.5415C37.8492 26.0819 38.0974 25.8326 38.0974 25.526C38.0974 25.2194 37.8481 24.9701 37.5415 24.9701H32.79C32.4823 24.9701 32.2341 25.2194 32.2341 25.526ZM27.4858 25.526C27.4858 25.8337 27.7351 26.0819 28.0417 26.0819H30.7325C31.0402 26.0819 31.2884 25.8326 31.2884 25.526C31.2884 25.2194 31.0391 24.9701 30.7325 24.9701H28.0417C27.734 24.9701 27.4858 25.2194 27.4858 25.526ZM27.4858 27.5542C27.4858 27.8619 27.7351 28.1101 28.0417 28.1101H37.5415C37.8492 28.1101 38.0974 27.8608 38.0974 27.5542C38.0974 27.2476 37.8481 26.9983 37.5415 26.9983H28.0417C27.734 26.9983 27.4858 27.2476 27.4858 27.5542ZM27.4858 29.5813C27.4858 29.889 27.7351 30.1372 28.0417 30.1372H32.7932C33.1009 30.1372 33.3491 29.8879 33.3491 29.5813C33.3491 29.2747 33.0998 29.0254 32.7932 29.0254H28.0417C27.734 29.0254 27.4858 29.2747 27.4858 29.5813ZM26.5503 36.7104C26.5503 37.957 25.5362 38.97 24.2907 38.97C23.0441 38.97 22.0289 37.9559 22.0289 36.7104C22.0289 35.4638 23.043 34.4486 24.2907 34.4486C25.5373 34.4486 26.5503 35.4627 26.5503 36.7104ZM25.7641 35.639C25.5519 35.4178 25.1993 35.4099 24.9769 35.6222L23.9392 36.6172L23.609 36.287C23.3911 36.0691 23.0396 36.0691 22.8218 36.287C22.6039 36.5049 22.6039 36.8564 22.8218 37.0743L23.5371 37.7896C23.6461 37.8986 23.7876 37.9525 23.9302 37.9525C24.0683 37.9525 24.2076 37.9008 24.3154 37.7975L25.7462 36.4252C25.9674 36.2129 25.9753 35.8603 25.7619 35.6379L25.7641 35.639ZM36.4735 19.7906H34.2892C34.0904 19.7906 33.9073 19.685 33.8074 19.5121C33.6243 19.1954 33.284 19 32.919 19C32.5484 19 32.216 19.192 32.0307 19.5121C31.9308 19.6839 31.7477 19.7906 31.5489 19.7906H29.3635V22.1097H36.4733L36.4735 19.7906ZM26.4682 40.4141L25.3688 40.8689C25.2396 40.9228 25.1352 41.0228 25.0757 41.1508L24.6848 41.9998H23.8942L23.5023 41.1497C23.4439 41.0228 23.3394 40.9228 23.2103 40.8689L22.1131 40.4141C21.9839 40.3602 21.8391 40.3579 21.7076 40.4062L20.8294 40.7297L20.2701 40.1704L20.5925 39.2933C20.6408 39.1619 20.6374 39.017 20.5846 38.8879L20.1298 37.7906C20.0759 37.6615 19.9759 37.557 19.849 37.4987L19 37.1067V36.315L19.849 35.923C19.9759 35.8646 20.0759 35.7602 20.1298 35.631L20.5846 34.5338C20.6385 34.4047 20.6407 34.2598 20.5925 34.1284L20.269 33.2502L20.8283 32.6909L21.7065 33.0143C21.8379 33.0626 21.9828 33.0592 22.112 33.0065L23.2092 32.5516C23.3383 32.4977 23.4428 32.3978 23.5011 32.2709L23.8931 31.4219H24.6848L25.0757 32.2698C25.1341 32.3967 25.2385 32.4977 25.3688 32.5505L26.4682 33.0053C26.5974 33.0593 26.7422 33.0615 26.8737 33.0132L27.7508 32.6909L28.31 33.2502L27.9866 34.1284C27.9383 34.2598 27.9417 34.4047 27.9945 34.5338L28.4493 35.631C28.5032 35.7602 28.6031 35.8646 28.73 35.923L29.5802 36.315V37.1067L28.73 37.4987C28.6031 37.5571 28.5032 37.6615 28.4493 37.7906L27.9945 38.8879C27.9405 39.017 27.9383 39.1619 27.9866 39.2933L28.3089 40.1704L27.7496 40.7297L26.8725 40.4073C26.7411 40.359 26.5963 40.3624 26.4671 40.4152L26.4682 40.4141ZM27.6631 36.7102C27.6631 34.8493 26.1504 33.3356 24.2908 33.3356C22.4311 33.3356 20.9161 34.8494 20.9161 36.7102C20.9161 38.5711 22.43 40.0826 24.2908 40.0826C26.1516 40.0826 27.6631 38.5699 27.6631 36.7102ZM41.7147 21.0404H41.1194V40.5633C41.1194 40.871 40.8701 41.1192 40.5635 41.1192H28.9322L28.2842 41.7672C28.1303 41.9211 27.9024 41.9716 27.6979 41.8963L26.6917 41.5257L25.9954 41.8144L25.9101 41.9997H41.7147C41.8686 41.9997 42 41.8694 42 41.7166V21.3232C42 21.1693 41.8696 21.0404 41.7147 21.0404Z" fill="#CE8943"/>
<defs>
<linearGradient id="paint0_linear_28_744" x1="5.43903" y1="63.2927" x2="63.2439" y2="-4.02439" gradientUnits="userSpaceOnUse">
<stop stop-color="#88292B"/>
<stop offset="0.323723" stop-color="#88292B" stop-opacity="0"/>
</linearGradient>
<linearGradient id="paint1_linear_28_744" x1="60.3171" y1="-7.68292" x2="5.43902" y2="60" gradientUnits="userSpaceOnUse">
<stop stop-color="#88292B"/>
<stop offset="0.576615" stop-color="#88292B" stop-opacity="0.12"/>
</linearGradient>
<linearGradient id="paint2_linear_28_744" x1="3.70968" y1="10.4839" x2="52.3226" y2="52" gradientUnits="userSpaceOnUse">
<stop stop-color="#88292B"/>
<stop offset="0.323723" stop-color="#88292B" stop-opacity="0"/>
</linearGradient>
<linearGradient id="paint3_linear_28_744" x1="61.1935" y1="61.9355" x2="10.0968" y2="25.7419" gradientUnits="userSpaceOnUse">
<stop stop-color="#88292B"/>
<stop offset="0.576615" stop-color="#88292B" stop-opacity="0"/>
</linearGradient>
</defs>
</svg>
