<svg width="61" height="60" viewBox="0 0 61 60" fill="none" xmlns="http://www.w3.org/2000/svg">
<rect x="1" y="0.5" width="59" height="59" rx="29.5" stroke="url(#paint0_linear_28_729)"/>
<rect x="1" y="0.5" width="59" height="59" rx="29.5" stroke="url(#paint1_linear_28_729)"/>
<rect x="9" y="8.5" width="43" height="43" rx="21.5" stroke="url(#paint2_linear_28_729)"/>
<rect x="9" y="8.5" width="43" height="43" rx="21.5" stroke="url(#paint3_linear_28_729)"/>
<path fill-rule="evenodd" clip-rule="evenodd" d="M36.1582 20.1857L33.711 17.6235V20.1857H36.1582ZM41.4854 28.8362H32.7827C32.5005 28.8362 32.2681 29.0686 32.2681 29.3508V42.4167C32.2681 42.6989 32.5005 42.9313 32.7827 42.9313H41.4854C41.7676 42.9313 42 42.6989 42 42.4167V29.3508C42 29.0686 41.7676 28.8362 41.4854 28.8362ZM40.4587 30.3989V32.7749H33.8096V30.3989H40.4587ZM33.3922 29.5618H40.8772C41.1084 29.5618 41.2958 29.7492 41.2958 29.9804V33.1935C41.2958 33.4247 41.1084 33.612 40.8772 33.612H33.3922C33.161 33.612 32.9737 33.4247 32.9737 33.1935V29.9804C32.9737 29.7492 33.161 29.5618 33.3922 29.5618ZM34.6585 34.9898V35.5957H33.8108V34.9898H34.6585ZM33.3922 34.1527H35.0771C35.3083 34.1527 35.4956 34.3401 35.4956 34.5713V36.0142C35.4956 36.2454 35.3083 36.4327 35.0771 36.4327H33.3922C33.161 36.4327 32.9737 36.2454 32.9737 36.0142V34.5713C32.9737 34.3401 33.161 34.1527 33.3922 34.1527ZM37.5588 34.9898V35.5957H36.711V34.9898H37.5588ZM36.2925 34.1527H37.9773C38.2085 34.1527 38.3958 34.3401 38.3958 34.5713V36.0142C38.3958 36.2454 38.2085 36.4327 37.9773 36.4327H36.2925C36.0613 36.4327 35.8739 36.2454 35.8739 36.0142V34.5713C35.8739 34.3401 36.0613 34.1527 36.2925 34.1527ZM40.459 34.9898V35.5957H39.6112V34.9898H40.459ZM39.1927 34.1527H40.8775C41.1087 34.1527 41.2961 34.3401 41.2961 34.5713V36.0142C41.2961 36.2454 41.1087 36.4327 40.8775 36.4327H39.1927C38.9615 36.4327 38.7742 36.2454 38.7742 36.0142V34.5713C38.7742 34.3401 38.9615 34.1527 39.1927 34.1527ZM34.6586 37.8105V38.4164H33.8109V37.8105H34.6586ZM33.3923 36.9735H35.0772C35.3084 36.9735 35.4957 37.1608 35.4957 37.392V38.8349C35.4957 39.0661 35.3084 39.2535 35.0772 39.2535H33.3923C33.1611 39.2535 32.9738 39.0661 32.9738 38.8349V37.392C32.9738 37.1608 33.1611 36.9735 33.3923 36.9735ZM37.5589 37.8105V38.4164H36.7111V37.8105H37.5589ZM36.2926 36.9735H37.9774C38.2086 36.9735 38.3959 37.1608 38.3959 37.392V38.8349C38.3959 39.0661 38.2086 39.2535 37.9774 39.2535H36.2926C36.0614 39.2535 35.874 39.0661 35.874 38.8349V37.392C35.874 37.1608 36.0614 36.9735 36.2926 36.9735ZM34.6587 40.6313V41.2371H33.811V40.6313H34.6587ZM33.3925 39.7942H35.0773C35.3085 39.7942 35.4958 39.9815 35.4958 40.2127V41.6557C35.4958 41.8869 35.3085 42.0742 35.0773 42.0742H33.3925C33.1613 42.0742 32.9739 41.8869 32.9739 41.6557V40.2127C32.9739 39.9815 33.1613 39.7942 33.3925 39.7942ZM37.559 40.6313V41.2371H36.7112V40.6313H37.559ZM36.2927 39.7942H37.9775C38.2087 39.7942 38.396 39.9815 38.396 40.2127V41.6557C38.396 41.8869 38.2087 42.0742 37.9775 42.0742H36.2927C36.0615 42.0742 35.8742 41.8869 35.8742 41.6557V40.2127C35.8742 39.9815 36.0615 39.7942 36.2927 39.7942ZM40.4592 37.8094V41.2371H39.6115V37.8094H40.4592ZM39.1929 36.9723H40.8777C41.1089 36.9723 41.2963 37.1597 41.2963 37.3909V41.6545C41.2963 41.8857 41.1089 42.0731 40.8777 42.0731H39.1929C38.9617 42.0731 38.7744 41.8857 38.7744 41.6545V37.3909C38.7744 37.1597 38.9617 36.9723 39.1929 36.9723ZM29.2973 36.6949H23.829C23.7164 36.6949 23.6239 36.7886 23.6239 36.9V37.6399C23.6239 37.7525 23.7175 37.845 23.829 37.845H29.2973C29.41 37.845 29.5025 37.7513 29.5025 37.6399V36.9C29.5025 36.7874 29.4088 36.6949 29.2973 36.6949ZM29.8605 38.6832H24.3922C24.2796 38.6832 24.1871 38.7769 24.1871 38.8884V39.6282C24.1871 39.7408 24.2807 39.8333 24.3922 39.8333H29.8605C29.9732 39.8333 30.0656 39.7397 30.0656 39.6282V38.8884C30.0656 38.7757 29.972 38.6832 29.8605 38.6832ZM22.806 40.6811C22.87 40.3491 23.0917 40.0693 23.3952 39.9293C23.3881 39.9044 23.381 39.8795 23.3751 39.8547H20.3671C20.1359 39.8547 19.9485 39.6673 19.9485 39.4361L19.9473 18.6633H19V40.6833H22.8047L22.806 40.6811ZM30.2958 40.5755C30.3065 40.6099 30.3148 40.6455 30.3219 40.6811H31.434V39.8546H30.8791C30.808 40.1736 30.5898 40.4404 30.2958 40.5755ZM24.3925 40.6704H23.8293C23.7167 40.6704 23.6242 40.7641 23.6242 40.8755V41.6154C23.6242 41.728 23.7178 41.8205 23.8293 41.8205H29.2976C29.4103 41.8205 29.5028 41.7268 29.5028 41.6154V40.8755C29.5028 40.7629 29.4091 40.6704 29.2976 40.6704H24.3925ZM24.2882 31.4838L29.5701 32.8995C30.1226 33.0477 30.4546 33.6216 30.3064 34.1741L30.1144 34.889C30.0408 35.1653 29.8594 35.387 29.6294 35.5198V35.5186C29.3994 35.6526 29.1148 35.6988 28.8398 35.6253L23.5578 34.2097C23.0053 34.0614 22.6733 33.4876 22.8215 32.9339L23.0136 32.2189C23.1618 31.6664 23.7356 31.3344 24.2881 31.4826L24.2882 31.4838ZM29.3543 33.7057L24.0723 32.2901C23.9621 32.2604 23.8494 32.3256 23.8198 32.4359L23.6277 33.1509C23.5981 33.2611 23.6633 33.3738 23.7736 33.4034L29.0343 34.8131C29.0983 34.8286 29.1469 34.8369 29.2121 34.7989V34.7977C29.2785 34.7586 29.2951 34.7135 29.3141 34.6507L29.4991 33.9583C29.5287 33.848 29.4635 33.7354 29.3532 33.7058L29.3543 33.7057ZM23.407 26.8633C23.1758 26.8633 22.9885 26.676 22.9885 26.4448C22.9885 26.2136 23.1758 26.0263 23.407 26.0263H34.5449C34.7761 26.0263 34.9635 26.2136 34.9635 26.4448C34.9635 26.676 34.7761 26.8633 34.5449 26.8633L23.407 26.8657V26.8633ZM23.407 29.6046H31.4338V39.0163H30.9038V38.8871C30.9038 38.4733 30.6596 38.1081 30.2967 37.9409C30.3252 37.8461 30.3406 37.7441 30.3406 37.6398V36.8999C30.3406 36.3261 29.8723 35.8577 29.2984 35.8577H23.8301C23.2562 35.8577 22.7879 36.3261 22.7879 36.8999V37.6398C22.7879 38.0536 23.0321 38.4187 23.3949 38.5859C23.3463 38.7484 23.3511 38.8539 23.3511 39.0163H20.7853L20.7841 17H32.8742V20.6032C32.8742 20.8344 33.0616 21.0217 33.2928 21.0217H36.7156V27.9992H32.7828C32.2529 27.9992 31.7833 28.3086 31.5628 28.771H23.4055C23.1743 28.771 22.987 28.9584 22.987 29.1896C22.987 29.4208 23.1743 29.6081 23.4055 29.6081L23.407 29.6046ZM23.407 24.1223C23.1758 24.1223 22.9885 23.9349 22.9885 23.7037C22.9885 23.4725 23.1758 23.2852 23.407 23.2852H34.5449C34.7761 23.2852 34.9635 23.4725 34.9635 23.7037C34.9635 23.9349 34.7761 24.1223 34.5449 24.1223L23.407 24.1258V24.1223ZM23.407 21.381C23.1758 21.381 22.9885 21.1937 22.9885 20.9625C22.9885 20.7313 23.1758 20.544 23.407 20.544H30.9336C31.1648 20.544 31.3521 20.7313 31.3521 20.9625C31.3521 21.1937 31.1648 21.381 30.9336 21.381H23.407Z" fill="#CE8943"/>
<defs>
<linearGradient id="paint0_linear_28_729" x1="5.43903" y1="63.2927" x2="63.2439" y2="-4.02439" gradientUnits="userSpaceOnUse">
<stop stop-color="#88292B"/>
<stop offset="0.323723" stop-color="#88292B" stop-opacity="0"/>
</linearGradient>
<linearGradient id="paint1_linear_28_729" x1="60.3171" y1="-7.68292" x2="5.43902" y2="60" gradientUnits="userSpaceOnUse">
<stop stop-color="#88292B"/>
<stop offset="0.576615" stop-color="#88292B" stop-opacity="0.12"/>
</linearGradient>
<linearGradient id="paint2_linear_28_729" x1="3.70968" y1="10.4839" x2="52.3226" y2="52" gradientUnits="userSpaceOnUse">
<stop stop-color="#88292B"/>
<stop offset="0.323723" stop-color="#88292B" stop-opacity="0"/>
</linearGradient>
<linearGradient id="paint3_linear_28_729" x1="61.1935" y1="61.9355" x2="10.0968" y2="25.7419" gradientUnits="userSpaceOnUse">
<stop stop-color="#88292B"/>
<stop offset="0.576615" stop-color="#88292B" stop-opacity="0"/>
</linearGradient>
</defs>
</svg>
