<svg width="24" height="24" viewBox="0 0 24 24" fill="none" xmlns="http://www.w3.org/2000/svg">
<path d="M11.6998 2.80492C11.8912 2.72128 12.1089 2.72128 12.3003 2.80492C16.0192 4.42974 19.5437 6.416 22.8295 8.71919C23.0673 8.88587 23.1875 9.17483 23.1381 9.46099C23.0887 9.74714 22.8785 9.97904 22.5986 10.0563C21.9137 10.2454 21.2347 10.449 20.5618 10.666C17.8307 11.5468 15.2018 12.655 12.6972 13.9684L12.6939 13.9701C12.5803 14.0297 12.467 14.0897 12.354 14.1501C12.1331 14.2681 11.8679 14.2681 11.6471 14.1501C11.533 14.0891 11.4186 14.0285 11.3039 13.9684C10.0655 13.319 8.79658 12.7197 7.5 12.1733V11.9496C7.5 11.8182 7.56742 11.7017 7.67173 11.6385C9.17685 10.7266 10.7294 9.88528 12.3247 9.11899C12.6981 8.93965 12.8554 8.49158 12.6761 8.11821C12.4967 7.74483 12.0486 7.58754 11.6753 7.76688C10.036 8.55426 8.44086 9.41872 6.89449 10.3556C6.44111 10.6302 6.13632 11.0798 6.03607 11.5834C5.18115 11.2545 4.31499 10.9482 3.43829 10.6655C2.76546 10.4485 2.08644 10.2453 1.40154 10.0563C1.12162 9.97903 0.911461 9.74712 0.86204 9.46097C0.812619 9.17482 0.932824 8.88586 1.17061 8.71918C4.45645 6.41599 7.98097 4.42974 11.6998 2.80492Z" fill="#CE8943"/>
<path d="M13.0609 15.4731C15.4997 14.1699 18.0621 13.0683 20.7258 12.1902C20.8601 13.605 20.9458 15.0339 20.9813 16.4751C20.9889 16.7843 20.8059 17.0665 20.5205 17.1857C17.6693 18.3761 14.9574 19.8337 12.4159 21.5273C12.1641 21.6952 11.836 21.6952 11.5841 21.5273C9.04267 19.8337 6.33073 18.3761 3.4796 17.1857C3.19416 17.0665 3.01116 16.7843 3.01878 16.4751C3.05429 15.0338 3.14001 13.6048 3.27427 12.1899C4.19527 12.4935 5.10415 12.8238 6 13.1799V14.4503C5.55165 14.7097 5.25 15.1944 5.25 15.7496C5.25 16.245 5.49008 16.6842 5.86022 16.9574C5.7707 17.338 5.63822 17.7104 5.46277 18.0671C5.91546 18.2808 6.36428 18.5013 6.8091 18.7286C7.06243 18.2133 7.24612 17.6725 7.36014 17.1203C7.88449 16.8866 8.25 16.3608 8.25 15.7496C8.25 15.1944 7.94835 14.7097 7.5 14.4503V13.8055C8.6714 14.3174 9.81885 14.8739 10.9402 15.4731C11.6028 15.8271 12.3983 15.8271 13.0609 15.4731Z" fill="#CE8943"/>
<path d="M4.46222 19.4619C4.88136 19.0428 5.21502 18.5707 5.46277 18.0671C5.91546 18.2808 6.36428 18.5013 6.8091 18.7286C6.49055 19.3764 6.06164 19.9838 5.52288 20.5226C5.22999 20.8155 4.75512 20.8155 4.46222 20.5226C4.16933 20.2297 4.16933 19.7548 4.46222 19.4619Z" fill="#CE8943"/>
</svg>
